<?xml version="1.0" encoding="UTF-8"?><svg id="Layer_1" xmlns="http://www.w3.org/2000/svg" width="504.3" height="504.3" viewBox="0 0 504.3 504.3"><defs><style>.cls-1{fill:#eaeaea;stroke-width:0px;}</style></defs><path class="cls-1" d="m160.85,268.62v-75.54h42.1c0-2.4-.02-4.28,0-6.16.17-17.69-.29-35.41.7-53.05,1.09-19.37,7.43-37.17,20.22-52.19,13.56-15.91,31.36-24.82,51.7-26.15,27.4-1.79,54.94-1.31,82.84-1.81v74.11c-1.5,0-3.21,0-4.93,0-13.6,0-27.19-.04-40.79.01-13.44.05-20.47,6.79-20.62,20.12-.17,14.72-.04,29.44-.04,44.8h67.9c-2.62,25.54-5.16,50.38-7.76,75.75h-59.95v214h-89.26v-6.23c0-67.17-.05-134.33.11-201.5.01-4.87-1.06-6.52-6.19-6.3-10.14.45-20.31.13-30.46.13h-5.55Z"/></svg>