<?xml version="1.0" encoding="UTF-8"?><svg xmlns="http://www.w3.org/2000/svg" width="1920" height="1080" xmlns:xlink="http://www.w3.org/1999/xlink" viewBox="0 0 1920 1080"><defs><style>.cls-1{fill:url(#linear-gradient);}.cls-1,.cls-2,.cls-3{opacity:.2;}.cls-1,.cls-2,.cls-3,.cls-4,.cls-5,.cls-6,.cls-7{stroke-width:0px;}.cls-2{fill:url(#linear-gradient-3);}.cls-3{fill:url(#linear-gradient-2);}.cls-8{fill:#b3b3b3;}.cls-8,.cls-9{stroke-width:5px;}.cls-8,.cls-9,.cls-10,.cls-11{stroke:#000;stroke-miterlimit:10;}.cls-9{fill:#ccc;}.cls-10,.cls-11{stroke-width:2px;}.cls-10,.cls-4,.cls-7{fill:#fff;}.cls-11{fill:#568076;}.cls-4{opacity:.5;}.cls-12{opacity:.9;}.cls-6{fill:#29abe2;}</style><linearGradient id="linear-gradient" x1="1506.37" y1="733.82" x2="1291.38" y2="637.15" gradientTransform="translate(-34.73 68.66) rotate(-2.86)" gradientUnits="userSpaceOnUse"><stop offset="0" stop-color="#b3b3b3"/><stop offset=".64" stop-color="#000"/></linearGradient><linearGradient id="linear-gradient-2" x1="871.34" y1="619.63" x2="616.55" y2="505.06" gradientUnits="userSpaceOnUse"><stop offset="0" stop-color="#ccc"/><stop offset=".64" stop-color="#000"/></linearGradient><linearGradient id="linear-gradient-3" x1="347.57" y1="752.84" x2="176.52" y2="676.81" gradientTransform="translate(-21.12 8.09) rotate(-1.71)" gradientUnits="userSpaceOnUse"><stop offset=".07" stop-color="#b3b3b3"/><stop offset=".57" stop-color="#000"/></linearGradient></defs><g id="Layer_1"><g class="cls-12"><rect class="cls-6" x=".5" y=".5" width="1919" height="1079"/><path class="cls-5" d="m1919,1v1078H1V1h1918m1-1H0v1080h1920V0h0Z"/></g></g><g id="Layer_6"><path class="cls-4" d="m70.67,668.79s5.31-9.03,5.31,13.8c0,17.75,9.1,27.74,16.99,35.49,18.05,17.75,74.33,7.89,75.39-18.73,0,0,12.74,32.53,50.97,30.56,36.62-1.89,39.83-28.3,43.53-36.48,8.49-18.73,15.48,18.54,53.09,6.9,22.3-6.9,30.78-36.56,28.67-53.24s20.6,4.92,45.66-10.84c10.69-6.73,11.68-42.39-20.17-53.24,0,0,50.57,2.22,49.9-27.61-.31-13.85-21.24-36.48-69.02-33.52,0,0,7.43-43.38-46.72-32.53,0,0-31.26-60.29-70.84-5.5,0,0-49.14-68.44-99.04,5.5,0,0-75.39-27.4-72.2,44.96,0,0-88.13,20.11-30.79,77.29,0,0-38.22,62.11,39.29,57.18Z"/><path class="cls-4" d="m550.98,445.38s4.98-8.08,4.98,12.36c0,15.89,8.53,24.83,15.92,31.77,16.92,15.89,69.66,7.06,70.65-16.77,0,0,11.94,29.12,47.77,27.36,34.32-1.69,37.32-25.33,40.8-32.65,7.96-16.77,14.51,16.6,49.76,6.18,20.9-6.18,28.85-32.73,26.87-47.66s19.31,4.4,42.79-9.71c10.02-6.02,10.95-37.95-18.91-47.66,0,0,47.39,1.99,46.77-24.71-.29-12.4-19.9-32.65-64.68-30.01,0,0,6.97-38.83-43.78-29.12,0,0-29.3-53.97-66.39-4.92,0,0-46.05-61.27-92.82,4.92,0,0-70.65-24.53-67.67,40.25,0,0-82.59,18-28.86,69.19,0,0-35.82,55.6,36.82,51.19Z"/><path class="cls-4" d="m1490.39,421.58s3.38-5.22,3.38,7.98c0,10.26,5.8,16.03,10.83,20.52,11.5,10.26,47.36,4.56,48.04-10.83,0,0,8.12,18.81,32.48,17.67,23.33-1.09,25.38-16.36,27.74-21.09,5.41-10.83,9.86,10.72,33.83,3.99,14.21-3.99,19.62-21.14,18.27-30.77-1.35-9.69,13.13,2.84,29.09-6.27,6.81-3.89,7.44-24.51-12.86-30.77,0,0,32.23,1.28,31.8-15.96-.2-8-13.53-21.09-43.98-19.38,0,0,4.74-25.08-29.77-18.81,0,0-19.92-34.85-45.14-3.18,0,0-31.31-39.56-63.12,3.18,0,0-48.04-15.84-46.01,25.99,0,0-56.16,11.62-19.62,44.68,0,0-24.36,35.9,25.04,33.05Z"/><path class="cls-4" d="m1033.45,296.46s5.9-8.93,5.9,13.65c0,17.55,10.12,27.44,18.9,35.11,20.08,17.55,82.67,7.8,83.85-18.53,0,0,14.17,32.18,56.69,30.23,40.73-1.87,44.3-27.99,48.42-36.08,9.45-18.53,17.22,18.34,59.05,6.83,24.8-6.83,34.24-36.17,31.89-52.66-2.36-16.58,22.91,4.87,50.78-10.73,11.89-6.65,12.99-41.93-22.44-52.66,0,0,56.25,2.2,55.51-27.3-.34-13.7-23.62-36.08-76.76-33.16,0,0,8.27-42.91-51.96-32.18,0,0-34.77-59.64-78.8-5.44,0,0-54.66-67.7-110.16,5.44,0,0-83.85-27.1-80.31,44.47,0,0-98.02,19.89-34.25,76.45,0,0-42.52,61.43,43.7,56.56Z"/><path class="cls-4" d="m67.45,151.07s5-6.62,5,10.13c0,13.03,8.57,20.36,16,26.05,17,13.03,70,5.79,71-13.75,0,0,12,23.88,48,22.43s37.51-20.77,41-26.77c8-13.75,14.58,13.61,50,5.07,21-5.07,28.99-26.84,27-39.08s19.4,3.61,43-7.96c10.07-4.94,11-31.12-19-39.08,0,0,47.63,1.63,47-20.26-.29-10.16-20-26.77-65-24.6,0,0,7-31.84-44-23.88,0,0-29.44-44.26-66.72-4.04,0,0-46.28-50.24-93.28,4.04,0,0-71-20.11-68,33,0,0-83,14.76-29,56.73,0,0-36,45.59,37,41.97Z"/><path class="cls-4" d="m1662.05,597.14s4.33-6.76,4.33,10.34c0,13.29,7.43,20.78,13.86,26.59,14.72,13.29,60.63,5.91,61.49-14.03,0,0,10.39,24.37,41.57,22.89,29.87-1.41,32.49-21.2,35.51-27.33,6.93-14.03,12.63,13.89,43.3,5.17,18.19-5.17,25.11-27.39,23.38-39.88-1.73-12.55,16.8,3.69,37.24-8.12,8.72-5.04,9.53-31.76-16.46-39.88,0,0,41.25,1.66,40.71-20.68-.25-10.37-17.32-27.33-56.3-25.11,0,0,6.06-32.49-38.11-24.37,0,0-25.5-45.17-57.79-4.12,0,0-40.08-51.27-80.79,4.12,0,0-61.49-20.52-58.89,33.68,0,0-71.89,15.06-25.12,57.9,0,0-31.18,46.53,32.05,42.83Z"/></g><g id="Layer_2"><path class="cls-8" d="m1243.97,915.26c70.13-273.88,216.31-520.93,274.98-521.26,57.14-.32,225.08,276.83,272.05,525.51"/><path class="cls-8" d="m127,923.6c71.87-278.27,221.66-529.27,281.79-529.6,58.56-.32,230.64,281.26,278.78,533.92"/><path class="cls-9" d="m486,999.17c120.38-439.87,371.3-836.64,472.02-837.17,98.09-.51,386.35,444.6,466.98,844"/></g><g id="Layer_4"><path class="cls-7" d="m1912,943.19c1.93,0,1.93-3,0-3s-1.93,3,0,3h0Z"/></g><g id="Layer_3"><path class="cls-10" d="m1689.5,629.5c4.91,9.82,3.55,18.92.89,25.64-2.79,7.06-12.44,7.98-16.41,1.52-12.37-20.15-20.49-61.84-27.48-62.16-7.04-.32,2.25,45.03-6,46-17,2-23.66-66.14-32-66-8.18.14-.91,64.08-12,65-11.44.95-21.01-59.71-33-59-13.17.78-15.62,56.71-26,57-10.9.31-17.39-62.97-29-63-13.48-.04-22.9,109.49-32,109-8.13-.44-4.48-87.95-22-91-15.93-2.78-39.05,66.13-49,63-7.55-2.38,2.06-43.25-6-46-11.23-3.84-41.58,71.98-52.5,68.5-2.91-.93-6.57-6.23-3.36-23.01,5.36-27.99,8.36-34.99,13.83-47.03,25.91-57.02,113.73-206.25,159.48-211.96,56.05-7,172.55,233.5,172.55,233.5Z"/><path class="cls-10" d="m859.5,450.92c-12.48-2.1-18,74.84-42,74.84-13,0-1.4-64.69-10-66.86-13.18-3.31-28,107.77-45,105.77-12.12-1.42-4.87-63.25-14-66.86-13.83-5.46-63.69,112.67-74,119.74-22.5,15.44-23.5-36.56,1.5-91.56,67.95-149.48,215-364,282-364s221,226,310,405c16.53,33.24,15,67,11.5,79.5-4.89,17.48-46.26-98.03-60-99.79-10.43-1.34,1,51.89-15,56.88-31.08,9.69-42.32-135.62-62-138.7-13.15-2.06-7.06,62.79-23,60.87-19.31-2.33-20.54-84.27-32-84.82-15.08-.72-28,109.77-56,108.77-20.01-.71-31.36-122.66-44.5-120.71-9.33,1.39-44.28,106.41-64,111-30,6.99-43.87-95.36-63-89"/><path class="cls-1" d="m1524,391l-10.02,103.1c-2.7,13.42-.98,15.9-13.98,28.9l-5,3c-7.77,2.59-21,22.87-20,31,1.29,10.5,1,14,3,27l.57,46.69c2.95,11.27,1.32,23.28-4.52,33.22l-56.3,95.99c-7.7,13.13,12.95,86.34,17.24,101.09l9.67,53.45c3.33,11.44,2.43,23.75-2.54,34.49l-37.08,80.24-17.05-175.18-65-171s125-286,201-292Z"/><path class="cls-10" d="m420,399c-2.9-1.2-2-3-13-2-1.47.13-2.53-.16-4,0-23.97,2.62-97.53,87.3-177,253-47,98,4,64,44.45-16.46,2.39-4.76,9.55-5.54,8.65,3.53-3.51,35.39-13.1,71.93,1.9,61.93,24.2-16.13,34.54-45.14,43.25-57.96,2.39-3.52,7.86-2.14,8.3,2.09,1.66,16.28,4.4,42.41,4.83,41.37.62-1.49,9.62,125.5,51.72-41,.35-1.36,2.25-1.49,2.8-.19,6.71,15.82,44.75,114.54,59.09.51,6.01-47.82,10.78-6.59,11.74-1.24,7.27,40.42,47.27,136.42,59.08-7.08.49-5.94,7.76-8.39,11.48-3.74,23.27,29.14,100.22,85.41,32.99-36.27-100.28-181.5-134.21-191.51-146.28-196.5Z"/><path class="cls-3" d="m958,162l-32.32,122.66c-4.14,15.71-16.25,28.07-31.87,32.54h0c-25.2,7.2-40.48,32.73-34.91,58.34l14.9,68.57c2.93,13.5.19,27.61-7.59,39.02l-75.07,110.19c-10.27,15.07-13.63,33.8-9.26,51.5l32.85,132.84c3.39,13.73,1.53,28.23-5.24,40.64l-50.49,92.7-244,45-6-47S778,176,958,162Z"/><path class="cls-2" d="m420.43,388.89l-22.41,99.11c-2.87,12.69-12.07,22.89-24.21,26.83h0c-19.58,6.36-30.95,27.19-25.98,47.59l13.32,54.63c2.62,10.75.81,22.13-5.02,31.47l-56.22,90.11c-7.69,12.32-9.88,27.42-6.02,41.51l28.93,105.75c2.99,10.93,1.87,22.6-3.13,32.71l-37.36,75.51-190.22,41.79-5.83-37.55S279.64,404.33,420.43,388.89Z"/></g><g id="Layer_5"><path class="cls-11" d="m0,915.45c40.77-19.86,143.66-67.53,189.28-54.36,23.12,6.67,210.33,44.17,255.29,53.14,45.27,9.03,226.17-31.08,294.52-53.73,55.98-18.55,186.93,27.83,248.2,28.57,49.59.6,240.62-12.13,303.87-34.49,61.9-21.87,224.85,41.85,295.9,58.61,46.87,11.06,168.01-9.95,232.98-29.28,75.7-22.52,99.97,50.94,99.97,50.94v145.14H0"/></g></svg>