<?xml version="1.0" encoding="UTF-8"?><svg id="Layer_2" xmlns="http://www.w3.org/2000/svg" width="188" height="374.5" viewBox="0 0 188 374.5"><defs><style>.cls-1,.cls-2,.cls-3,.cls-4,.cls-5{stroke-miterlimit:10;}.cls-1,.cls-3,.cls-4{stroke:#000;}.cls-2,.cls-6{opacity:.5;}.cls-2,.cls-4{stroke-width:3px;}.cls-2,.cls-5{fill:none;stroke:#009145;}.cls-3,.cls-7{fill:#fff;}.cls-8{opacity:.7;}.cls-4{fill:#ceffdd;}.cls-5{opacity:.4;stroke-width:4px;}.cls-7,.cls-9,.cls-10,.cls-11{stroke-width:0px;}.cls-9{fill:#006837;}.cls-10{fill:#009145;}.cls-11{opacity:.2;}</style></defs><g class="cls-6"><path class="cls-10" d="m6.88,23.98c1.93,0,1.93-3,0-3s-1.93,3,0,3h0Z"/></g><path class="cls-4" d="m175.96,230.58c-33.86-91.18-92.58-99.71-118.5-182.56-6.56-20.96,2.22-38.36,1.67-37.88C53.54,14.96,3.68,94.05,10.32,186.3c6.09,84.72,48.65,146.98,104.31,160.75,56.31,13.93,86.11-49.72,61.33-116.47Z"/><path class="cls-5" d="m53.01,20.55c-47.39,129.73,18.54,277.46,92.72,325.75"/><path class="cls-2" d="m80.31,272.44c0-39.52,6.18-61.08,46.36-71.5"/><path class="cls-2" d="m56.87,222.02c0-31.54,17.26-49.48,34.78-57.06"/><path class="cls-2" d="m43.22,170.65c0-23.55,12.44-42.61,27.82-42.61"/><path class="cls-2" d="m80.23,273.8c-21.55-19.82-32.88-21.71-46.27-18.87"/><path class="cls-2" d="m57.48,222.43c-12.99-16.44-25.59-21.48-35.89-21.48"/><path class="cls-2" d="m42.71,171.04c-6.8-10.88-16.49-23.8-24.22-19.33"/><path class="cls-9" d="m148.84,352.84c2.27,1.44,4.55,2.86,6.81,4.32.25.16.49.32.73.49.09.06.18.13.27.19.29.19-.18-.13-.17-.13.03-.02.61.53.66.57.08.07.15.15.22.23.05.05.1.1.14.15.15.17.1.1-.14-.21.05.17.27.45.37.59.18.28-.15-.26-.11-.27,0,0,.13.4.1.38-.04-.04,0-.61-.05-.31-.02.11-.01.58.02.13s-.03-.05-.03.02l-.07.2c.16-.35.19-.43.09-.22-.13.2-.22.51-.41.66,0,0,.36-.41.12-.16-.11.11-.2.23-.31.35-.39.42-.81.8-1.23,1.19-.34.32.07-.11.09-.07,0,0-.26.16-.28.18-.64.37.32-.06-.16.06.63-.16,1.34.09,1.75.59.08.09.28.71.22.38-.02-.13-.07-.27-.1-.4-.6-2.51-1.45-4.91-2.57-7.23-1.26-2.61-2.91-5-4.78-7.21-.96-1.14-2.85-1.08-3.94-.23-1.19.92-1.51,2.55-.77,3.87,2.42,4.34,5.6,8.27,9.31,11.58,1.17,1.05,3.1,1.24,4.24,0,1.05-1.14,1.25-3.13,0-4.24-1.74-1.56-3.36-3.24-4.83-5.06-.16-.19-.31-.39-.46-.58.44.56-.21-.28-.28-.38-.34-.46-.67-.94-.99-1.41-.64-.95-1.24-1.93-1.8-2.94l-4.71,3.64c.21.25.42.51.63.77.51.62-.22-.32.06.08.1.13.2.26.3.4.41.57.81,1.15,1.18,1.74.76,1.21,1.44,2.48,2.03,3.78.04.09.25.56.09.2s.05.12.08.21c.12.3.24.6.35.91.25.68.47,1.38.67,2.08.51,1.8.75,3.68,2.49,4.77,3.38,2.1,7.12-1.31,8.91-3.99,2.01-3.01.96-6.67-1.69-8.87-1.34-1.11-2.83-2.01-4.29-2.94l-4.73-3c-1.33-.84-3.37-.32-4.1,1.08-.78,1.48-.34,3.21,1.08,4.1h0Z"/><path class="cls-1" d="m104,306s-14.66-8.74-14.52,6.6c.01,1.37.17,3.3,3.56.17,4.58-4.22,11.05-3.11,11.05-3.11h0c1.42-.23,1.98-1.87.95-2.8l-1.04-.86Z"/><path class="cls-1" d="m79.74,300.42c1.68-5.48-2.44-10.69-6.37-12.81-.85-.46-3.66-1.92-7.29-1.27-5.32.95-7.74,5.59-7.89,5.9-2.31,4.63-.81,10.44,3.15,13.51,3.54,2.74,7.72,2.27,8.86,2.09,3.63-.56,8.17-2.95,9.54-7.42Z"/><path class="cls-3" d="m70.03,297.77c.73-2.35-1.04-4.59-2.73-5.49-.37-.2-1.58-.82-3.14-.54-2.29.41-3.34,2.41-3.4,2.54-1,1.99-.36,4.48,1.34,5.8,1.52,1.17,3.32.97,3.81.89,1.56-.24,3.52-1.27,4.12-3.19Z"/><path class="cls-3" d="m76.01,306.91c.65-1.26-.31-2.26-1.33-2.6-.22-.07-.94-.3-1.97-.04-1.5.38-2.32,1.48-2.37,1.55-.79,1.09-.57,2.31.41,2.85.88.48,2.05.24,2.37.17,1.02-.24,2.35-.91,2.88-1.94Z"/><path class="cls-1" d="m119.91,281.74c1.64-5.52-2.5-10.8-6.44-12.96-.85-.47-3.67-1.96-7.29-1.33-5.3.92-7.68,5.59-7.83,5.9-2.27,4.66-.74,10.53,3.23,13.65,3.55,2.79,7.72,2.33,8.85,2.16,3.62-.54,8.13-2.92,9.48-7.43Z"/><path class="cls-3" d="m110.2,279.01c.71-2.37-1.07-4.63-2.76-5.56-.37-.2-1.58-.84-3.14-.56-2.28.4-3.31,2.41-3.38,2.54-.98,2-.33,4.52,1.38,5.85,1.53,1.19,3.32.99,3.81.92,1.56-.23,3.51-1.26,4.09-3.2Z"/><path class="cls-3" d="m116.22,288.27c.64-1.26-.33-2.28-1.34-2.63-.22-.07-.94-.31-1.96-.05-1.49.38-2.3,1.48-2.36,1.55-.78,1.09-.56,2.33.43,2.88.88.49,2.05.26,2.37.18,1.01-.24,2.34-.91,2.86-1.94Z"/><g class="cls-8"><path class="cls-7" d="m159.29,262.11c3.15,8.42,4.2,17.26,3.83,26.21-.29,6.99-1.04,13.57-2.85,20.34-.46,1.74-1,3.46-1.68,5.13-.19.46.16-.36-.04.09-.1.21-.19.43-.29.64-.16.33-.32.65-.49.97-.35.66-.75,1.29-1.19,1.9-.95,1.31-.22,3.34,1.08,4.1,1.52.89,3.15.24,4.1-1.08,1.83-2.52,2.95-5.59,3.84-8.55,1.06-3.52,1.76-7.15,2.29-10.79,1.13-7.72,1.71-15.61,1-23.4-.54-5.87-1.75-11.63-3.81-17.15-.57-1.52-2.03-2.55-3.69-2.1-1.46.4-2.67,2.17-2.1,3.69h0Z"/></g><path class="cls-11" d="m167.73,329.56s37.84-77.48-83.24-210.86c-15.64-17.23-27.29-36.4-30.67-63.57-1.03-8.27-.03-37.02-.03-24.15,0,16.88,30.45,73.93,38.14,80.42,17.38,14.66,59.18,68.29,69.85,91.56,7.21,15.72,40.18,78.22,5.95,126.6Z"/></svg>