<?xml version="1.0" encoding="UTF-8"?><svg id="Layer_2" xmlns="http://www.w3.org/2000/svg" width="145" height="289" viewBox="0 0 145 289"><defs><style>.cls-1,.cls-2,.cls-3,.cls-4,.cls-5{stroke-miterlimit:10;}.cls-1,.cls-3,.cls-4{stroke:#000;}.cls-2{opacity:.5;}.cls-2,.cls-4{stroke-width:3px;}.cls-2,.cls-5{fill:none;stroke:#009145;}.cls-3,.cls-6{fill:#fff;}.cls-7{opacity:.7;}.cls-4{fill:#ceffdd;}.cls-5{opacity:.4;stroke-width:4px;}.cls-6,.cls-8,.cls-9{stroke-width:0px;}.cls-8{fill:#006837;}.cls-9{opacity:.2;}</style></defs><path class="cls-4" d="m17.93,174.11c9.43-23.72,81.1-116.97,84.22-139.03s-1.88-29.44-1.49-29.07c3.96,3.68,33.83,44.38,34.56,134.33.66,81.47-39.14,124.33-73.87,122.59-41.19-2.07-63.31-38.8-43.43-88.82Z"/><path class="cls-5" d="m104.28,13.95c33.56,98.93-13.13,211.58-65.65,248.41"/><path class="cls-2" d="m84.95,206.04c0-30.14-4.38-46.58-32.83-54.52"/><path class="cls-2" d="m101.55,167.59c0-24.05-12.22-37.73-24.63-43.51"/><path class="cls-2" d="m111.21,128.41c0-17.96-8.81-32.5-19.7-32.5"/><path class="cls-2" d="m85.01,207.07c15.26-15.11,23.28-16.56,32.77-14.39"/><path class="cls-2" d="m101.12,167.9c9.2-12.54,18.12-16.38,25.42-16.38"/><path class="cls-2" d="m111.57,128.7c4.82-8.29,11.68-18.15,17.15-14.74"/><path class="cls-8" d="m33.84,262.78c-2.04,1.39-4.16,2.72-6.1,4.25-.86.68-1.67,1.54-2.11,2.55-.73,1.67-.71,3.27.03,4.93.48,1.07,1.33,2.02,2.19,2.81,1.29,1.18,2.92,1.93,4.68,1.44.96-.27,1.79-.98,2.28-1.84.36-.63.49-1.32.65-2.02.23-1,.53-1.99.9-2.95.09-.25.26-.52.31-.78-.12.59-.18.42-.08.2.08-.17.15-.34.23-.51.24-.51.5-1.01.77-1.5s.57-.97.88-1.44c.17-.26.35-.52.53-.77.12-.17.77-1.01.21-.29l-4.71-3.64c-.79,1.52-1.7,2.99-2.72,4.36-.06.08-.11.15-.17.23-.14.18-.08.1.18-.23-.06,0-.36.46-.42.52-.26.32-.53.64-.8.95-.59.67-1.21,1.31-1.85,1.93-1.13,1.09-1.18,3.16,0,4.24s3.03,1.16,4.24,0c2.7-2.6,5-5.65,6.73-8.98.69-1.34.44-2.93-.77-3.87-1.07-.82-3.02-.94-3.94.23-2.41,3.08-4.25,6.53-5.21,10.34-.1.4-.2.81-.28,1.22-.02.11-.14.37.05-.06.1-.22.22-.39.39-.57.34-.36.94-.6,1.46-.6l.5.06.42.19c-.12-.01-.68-.44-.26-.13s-.12-.14-.2-.22c-.13-.13-.25-.25-.37-.38-.08-.09-.16-.18-.24-.27-.29-.29.1.08.13.19-.04-.17-.25-.36-.34-.51-.04-.07-.07-.17-.12-.23.04.05.25.7.12.24-.13-.5,0,.65.01.12.01-.5-.03.32-.06.33,0,0,.07-.3.08-.3.04.02-.37.71-.12.29.04-.07.07-.14.12-.2.33-.53-.37.38-.04.04.27-.28.57-.51.84-.79-.03.03-.6.45-.21.16.09-.06.18-.13.27-.19.21-.15.42-.29.63-.43l1.44-.99,2.89-1.97c1.29-.88,2-2.68,1.08-4.1-.83-1.29-2.72-2.02-4.1-1.08h0Z"/><path class="cls-1" d="m70.84,232.76s1-7.88-6.81-4.58c-.66.28-1.42,1,.87,1.63,3.1.84,4.33,4.02,4.33,4.02h0c.48.57,1.36.35,1.5-.36l.11-.7Z"/><path class="cls-1" d="m61.8,216.82c5.02-1.34,7.1-7.05,6.89-11.12-.05-.88-.24-3.77-2.44-6.27-3.23-3.67-7.94-3.3-8.25-3.28-4.65.44-8.44,4.41-8.94,8.96-.45,4.07,1.87,7.08,2.54,7.88,2.13,2.55,6.1,4.92,10.2,3.83Z"/><path class="cls-3" d="m59.29,208c2.16-.57,3.05-3.02,2.95-4.77-.02-.38-.11-1.62-1.06-2.7-1.39-1.58-3.42-1.43-3.55-1.42-2,.18-3.63,1.88-3.84,3.84-.19,1.75.81,3.04,1.1,3.39.92,1.1,2.63,2.12,4.39,1.65Z"/><path class="cls-3" d="m55.04,217.06c1.27-.1,1.6-1.33,1.38-2.28-.05-.21-.21-.88-.89-1.54-1-.98-2.23-1.09-2.31-1.09-1.21-.09-2.05.67-2.01,1.7.04.92.77,1.71.98,1.92.66.67,1.81,1.38,2.84,1.3Z"/><path class="cls-1" d="m92.64,236.52c5.03-1.39,7.16-7.15,6.98-11.25-.04-.89-.21-3.79-2.39-6.29-3.2-3.67-7.92-3.26-8.23-3.23-4.66.48-8.47,4.5-9.01,9.09-.48,4.1,1.82,7.11,2.48,7.91,2.11,2.55,6.07,4.9,10.17,3.77Z"/><path class="cls-3" d="m90.19,227.66c2.16-.59,3.07-3.06,2.99-4.82-.02-.38-.09-1.63-1.04-2.71-1.38-1.58-3.41-1.41-3.54-1.4-2,.2-3.64,1.92-3.87,3.89-.2,1.76.79,3.06,1.08,3.4.91,1.1,2.62,2.11,4.38,1.63Z"/><path class="cls-3" d="m85.87,236.8c1.27-.11,1.61-1.35,1.4-2.31-.05-.21-.2-.88-.88-1.55-.99-.98-2.22-1.08-2.3-1.08-1.21-.08-2.06.69-2.02,1.73.03.92.76,1.71.97,1.92.66.67,1.8,1.38,2.83,1.28Z"/><g class="cls-7"><path class="cls-6" d="m33.5,242.16c-.64-.76-.74-.87-1.36-1.78-.51-.75-.98-1.52-1.4-2.32-.2-.38-.39-.76-.56-1.15-.25-.55-.16-.34-.4-.97-.33-.89-.62-1.81-.85-2.74-1.16-4.62-1.07-9.63-.64-14.54.35-4.05,1-8.07,1.75-12.07.22-1.19-.33-2.43-1.57-2.77-1.1-.3-2.54.37-2.77,1.57-2.06,10.98-4.27,23.87.87,34.37.99,2.02,2.3,3.86,3.75,5.58.78.93,2.37.81,3.18,0,.92-.92.79-2.25,0-3.18h0Z"/></g><path class="cls-9" d="m22.82,243.75c.37-3.54-14.23-46,23.24-98.98,15.16-21.43,55.66-93.09,57.61-98.98,1.01-3.06,3.52-15.02,1.3-22.37-.07-.22-1.44-6.56-1.41-6.26,1.63,18.54-11.28,40.04-17.48,49.48-13.3,20.23-48.45,75.84-61.08,94.52-8.24,12.18-25.42,53-2.17,82.59Z"/></svg>