<?xml version="1.0" encoding="UTF-8"?><svg id="Layer_2" xmlns="http://www.w3.org/2000/svg" width="190" height="385" viewBox="0 0 190 385"><defs><style>.cls-1,.cls-2,.cls-3,.cls-4,.cls-5{stroke-miterlimit:10;}.cls-1,.cls-3,.cls-4{stroke:#000;}.cls-2{opacity:.5;}.cls-2,.cls-4{stroke-width:3px;}.cls-2,.cls-5{fill:none;stroke:#009145;}.cls-3,.cls-6{fill:#fff;}.cls-7{opacity:.7;}.cls-4{fill:#ceffdd;}.cls-5{opacity:.4;stroke-width:4px;}.cls-6,.cls-8,.cls-9{stroke-width:0px;}.cls-8{fill:#006837;}.cls-9{opacity:.2;}</style></defs><path class="cls-4" d="m17.66,238.32c33.46-96.23,91.5-105.23,117.11-192.66,6.48-22.12-2.19-40.48-1.65-39.98,5.52,5.09,54.79,88.56,48.24,185.91-6.02,89.42-48.08,155.12-103.09,169.65-55.65,14.7-85.1-52.48-60.61-122.92Z"/><path class="cls-5" d="m138.17,16.66c46.83,136.92-18.33,292.82-91.63,343.79"/><path class="cls-2" d="m111.19,282.5c0-41.71-6.11-64.46-45.81-75.45"/><path class="cls-2" d="m134.36,229.29c0-33.28-17.06-52.22-34.37-60.22"/><path class="cls-2" d="m147.84,175.07c0-24.86-12.29-44.97-27.49-44.97"/><path class="cls-2" d="m111.27,283.93c21.3-20.92,32.5-22.92,45.73-19.92"/><path class="cls-2" d="m133.75,229.72c12.84-17.36,25.29-22.67,35.47-22.67"/><path class="cls-2" d="m148.34,175.48c6.72-11.48,16.3-25.12,23.93-20.4"/><path class="cls-8" d="m40.45,362.02c-2.76,1.87-5.64,3.65-8.27,5.71-1.12.88-2.18,1.97-2.76,3.29-.83,1.9-.8,3.77.04,5.66.62,1.39,1.75,2.63,2.87,3.65,1.47,1.34,3.36,2.28,5.38,1.7,2.16-.63,2.81-2.59,3.26-4.53.33-1.39.74-2.75,1.25-4.09.06-.16.12-.32.19-.48.09-.24.21-.52.04-.12.17-.4.35-.79.54-1.18.34-.7.7-1.4,1.08-2.07s.79-1.34,1.22-1.99c.24-.36.49-.72.74-1.07.1-.14.21-.28.31-.42.38-.52-.27.33.17-.22l-4.71-3.64c-1.11,2.12-2.38,4.12-3.8,6.04-.52.7.37-.45-.18.23-.19.24-.39.48-.58.72-.37.44-.74.88-1.12,1.31-.82.93-1.69,1.81-2.59,2.67-1.14,1.09-1.17,3.16,0,4.24s3.03,1.16,4.24,0c3.69-3.52,6.83-7.67,9.2-12.19.7-1.33.44-2.93-.77-3.87-1.07-.83-3.01-.94-3.94.23-3.24,4.09-5.68,8.72-6.96,13.8-.14.56-.28,1.12-.39,1.69-.03.16-.18.3.01.05.11-.14.16-.29.3-.42.72-.67,1.14-.47,1.88-.3-.12-.03-.31-.17-.41-.23-.05-.03-.36-.27-.08-.04s-.02-.02-.06-.06c-.11-.11-.23-.22-.34-.33-.41-.41-.82-.82-1.18-1.28.36.46-.05-.12-.15-.3-.03-.05-.18-.26-.17-.32,0,.01.24.67.05.06-.17-.55,0,.45-.02-.14s.03.11-.04.15c.01,0,.11-.41.11-.41.04.03-.35.65-.05.13.05-.09.1-.19.16-.28.01-.02.18-.27.18-.27.03.02-.49.55-.05.09.37-.39.76-.75,1.17-1.09-.08.06-.5.36-.05.05.12-.09.25-.18.37-.27.29-.2.58-.4.88-.6l2.01-1.36,4.03-2.73c1.3-.88,1.99-2.68,1.08-4.1-.83-1.29-2.72-2.02-4.1-1.08h0Z"/><path class="cls-1" d="m95.92,319.74s.51-10.26-13.48-8.84c-1.39.14-2.79,1.88,1.75,3.11,6.11,1.66,8.58,7.74,8.58,7.74h0c.95,1.08,2.69.69,2.95-.67l.2-1.34Z"/><path class="cls-1" d="m80.57,295.96c5.68-1.46,8.04-7.71,7.81-12.16-.05-.97-.27-4.12-2.76-6.86-3.66-4.01-9-3.61-9.35-3.58-5.27.48-9.56,4.82-10.13,9.8-.51,4.45,2.12,7.74,2.88,8.62,2.41,2.78,6.92,5.38,11.56,4.18Z"/><path class="cls-3" d="m77.72,286.32c2.44-.62,3.45-3.3,3.35-5.21-.02-.41-.12-1.77-1.2-2.95-1.58-1.73-3.88-1.56-4.03-1.55-2.27.2-4.11,2.06-4.35,4.2-.22,1.91.92,3.33,1.25,3.7,1.04,1.2,2.98,2.32,4.98,1.81Z"/><path class="cls-3" d="m72.91,296.21c1.44-.11,1.81-1.46,1.56-2.49-.05-.22-.24-.96-1.01-1.69-1.13-1.07-2.52-1.19-2.61-1.19-1.37-.1-2.33.73-2.27,1.86.05,1,.88,1.87,1.11,2.1.75.74,2.05,1.51,3.22,1.42Z"/><path class="cls-1" d="m121.22,323.06c5.69-1.52,8.11-7.82,7.9-12.29-.04-.97-.24-4.14-2.71-6.88-3.63-4.01-8.97-3.57-9.32-3.53-5.28.53-9.59,4.92-10.21,9.94-.55,4.48,2.06,7.78,2.81,8.65,2.39,2.78,6.87,5.36,11.52,4.12Z"/><path class="cls-3" d="m118.45,313.38c2.45-.65,3.48-3.35,3.39-5.27-.02-.42-.11-1.78-1.17-2.96-1.56-1.73-3.86-1.54-4.01-1.53-2.27.22-4.12,2.1-4.38,4.26-.23,1.92.9,3.34,1.22,3.72,1.03,1.2,2.96,2.31,4.96,1.78Z"/><path class="cls-3" d="m113.56,323.37c1.44-.12,1.82-1.48,1.58-2.52-.05-.23-.23-.96-1-1.69-1.12-1.07-2.51-1.18-2.61-1.18-1.37-.09-2.33.75-2.29,1.89.04,1.01.86,1.87,1.1,2.1.75.74,2.03,1.51,3.21,1.4Z"/><path class="cls-9" d="m32.78,351s-60.06-87.99,74.33-232.9c21.52-23.2,28.49-58.96,28.66-70.68,0-.38-.52-.49-.67-.14-3.81,9.23-22.93,54.85-32.07,63.82-17.82,17.5-65.16,77.95-75.03,103.78-6.67,17.45-38.01,87.19,4.76,136.11Z"/><g class="cls-7"><path class="cls-6" d="m21.65,281c-1.34,15.28-1.72,31.12,3.84,45.68,1.56,4.09,3.49,8.03,5.73,11.8,1.97,3.31,7.16.3,5.18-3.03-3.62-6.07-6.23-12.3-7.8-19.22s-1.93-13.88-1.79-21.08c.09-4.73.42-9.44.83-14.15.14-1.62-1.48-3-3-3-1.74,0-2.86,1.38-3,3h0Z"/></g></svg>