<?xml version="1.0" encoding="utf-8"?>
<!-- Generator: Adobe Illustrator 28.0.0, SVG Export Plug-In . SVG Version: 6.00 Build 0)  -->
<svg version="1.1" id="Layer_2_00000091727593948692321090000000938681961227638944_"
	 xmlns="http://www.w3.org/2000/svg" xmlns:xlink="http://www.w3.org/1999/xlink" x="0px" y="0px" viewBox="0 0 157 292"
	 style="enable-background:new 0 0 157 292;" xml:space="preserve">
<style type="text/css">
	.st0{fill:#DDD1FF;}
	.st1{fill:#0D0019;stroke:#000000;stroke-width:2;stroke-miterlimit:10;}
	.st2{fill:#FFFFFF;}
	.st3{fill:none;stroke:#000000;stroke-width:2;stroke-miterlimit:10;}
	.st4{opacity:0.2;enable-background:new    ;}
	.st5{opacity:0.5;enable-background:new    ;}
	.st6{opacity:0.7;}
</style>
<path class="st0" d="M85.3,279.7c-29.7,0-53.2-8.1-57.2-11.2l-0.1-0.1l-0.1,0c-1.4-0.6-2.4-2-2.4-3.6l-5.6-149.1
	c0-1.1,0.4-2.2,1.1-3c0.8-0.8,1.9-1.3,3-1.3c0.6,0,1.2,0.2,1.8,0.4c19.2,9.4,38.9,14.2,58.6,14.2l0,0c26.7,0,47-8.8,56.8-14
	c0.6-0.3,1.2-0.5,1.8-0.5c1.9,0,3.9,1.5,3.9,3.9c0,9.8,0.1,20.3,0.1,31.1c0.1,38.1,0.2,81.2,0.9,116.6c0,1.2-2.8,3.4-5.3,4.6
	C125.7,275.7,106.4,279.7,85.3,279.7L85.3,279.7L85.3,279.7z"/>
<path d="M24,112.3c0.5,0,1,0.1,1.4,0.3c19.3,9.5,39.2,14.3,59.1,14.3c26.9,0,47.4-8.9,57.2-14.1c0.4-0.2,0.9-0.3,1.3-0.3
	c1.4,0,2.9,1.1,2.9,2.9c0,9.8,0.1,20.3,0.1,31c0.1,38.1,0.2,81.2,0.9,116.7c-0.1,0.7-2.4,2.6-4.7,3.7c-16.8,8-35.9,12-56.9,12
	c-29.7,0-53.2-8.4-56.6-11l-0.2-0.1l-0.2-0.1c-1.1-0.5-1.8-1.5-1.8-2.7l-5.6-149.1c0-1.1,0.4-1.8,0.9-2.3
	C22.3,112.7,23.1,112.3,24,112.3L24,112.3 M24,110.3c-2.8,0-5.2,2.2-5.1,5.3l5.6,149.1c0.1,2,1.2,3.7,3,4.5
	c4.1,3.3,28.1,11.5,57.8,11.5c18.2,0,38.4-3.1,57.7-12.2c1.9-0.9,5.9-3.4,5.9-5.5c-0.9-45.4-0.8-102.9-1-147.7
	c0-2.8-2.3-4.9-4.9-4.9c-0.8,0-1.5,0.2-2.3,0.6c-10,5.4-30,13.9-56.3,13.9c-17.1,0-36.8-3.6-58.2-14.1
	C25.5,110.5,24.8,110.3,24,110.3L24,110.3L24,110.3z"/>
<path class="st1" d="M111.5,86.7c0,0-6.5,33.5-63.5,32c0,0,55.6,19.3,99-11.4C146.2,95.9,130.7,86.7,111.5,86.7"/>
<path d="M56.9,192.3c-1.8,0-3.5-0.2-5.2-0.7c-2.1-0.6-7.2-2.4-9.9-7.2c-3.2-5.9-1.5-13.4,3.9-17.5c0.2-0.1,4.2-3.1,9.8-3.1
	c1.2,0,2.4,0.1,3.5,0.4c2.3,0.6,5.6,1.9,8.4,5.4c3.2,4,6.2,12.6,0.6,18.4C64.6,191.8,59.6,192.3,56.9,192.3L56.9,192.3L56.9,192.3z"
	/>
<path d="M55.6,164.8c1.1,0,2.2,0.1,3.3,0.4c3.1,0.8,5.7,2.5,7.8,5.1c1.9,2.3,3.1,5.5,3.4,8.4c0.2,2.4-0.1,5.8-2.8,8.7
	c-3.2,3.4-7.9,3.9-10.4,3.9c-1.7,0-3.4-0.2-4.9-0.6c-2-0.5-6.8-2.2-9.2-6.7c-3-5.4-1.4-12.4,3.7-16.2
	C46.6,167.6,50.4,164.8,55.6,164.8 M55.6,162.8c-5.8,0-10,3.1-10.4,3.3c-6,4.5-7.6,12.7-4.2,18.8c3,5.5,8.9,7.3,10.5,7.7
	c1.6,0.4,3.5,0.7,5.4,0.7c4.2,0,8.7-1.2,11.9-4.6c5.6-5.9,3.4-14.8-0.5-19.8c-0.8-1.1-3.7-4.5-8.9-5.8
	C58.1,162.9,56.8,162.8,55.6,162.8L55.6,162.8L55.6,162.8z"/>
<path class="st2" d="M49.8,180.8c-0.7,0-1.4-0.1-2.1-0.3c-0.8-0.2-2.9-0.9-3.9-2.8c-1.2-2.3-0.6-5.2,1.5-6.8c0,0,1.7-1.2,3.9-1.2
	c0.5,0,0.9,0.1,1.4,0.2c0.9,0.2,2.2,0.8,3.3,2.1c1.3,1.6,2.4,4.9,0.3,7.2C52.8,180.6,50.8,180.8,49.8,180.8L49.8,180.8L49.8,180.8z"
	/>
<path d="M49.2,170.7c0.4,0,0.8,0.1,1.2,0.1c1.1,0.3,2,0.9,2.8,1.8c1.1,1.4,2,4.1,0.3,5.8c-1.1,1.2-2.8,1.3-3.7,1.3
	c-0.6,0-1.2-0.1-1.8-0.2c-0.7-0.2-2.4-0.8-3.3-2.3c-1-1.8-0.4-4.2,1.3-5.5C45.9,171.8,47.4,170.7,49.2,170.7 M49.2,168.7
	c-2.5,0-4.3,1.3-4.5,1.4c-2.6,1.9-3.3,5.4-1.8,8.1c1.3,2.4,3.8,3.1,4.5,3.3s1.5,0.3,2.3,0.3c1.8,0,3.8-0.5,5.1-1.9
	c2.4-2.5,1.5-6.4-0.2-8.5c-0.4-0.5-1.6-1.9-3.8-2.5C50.3,168.8,49.7,168.7,49.2,168.7L49.2,168.7L49.2,168.7z"/>
<path class="st2" d="M55,195.2c-0.5,0-1-0.1-1.5-0.1s-2-0.4-2.8-1.4c-0.3-0.4-0.5-0.9-0.4-1.4c0.1-0.6,0.6-1.2,1.4-1.6
	c0,0,1.2-0.6,2.8-0.6c0.3,0,0.7,0,1,0.1c0.6,0.1,1.6,0.4,2.3,1.1c0.6,0.6,1,1.3,1,1.9c0,0.5-0.3,0.9-0.8,1.3
	C57.5,194.9,56.4,195.2,55,195.2L55,195.2L55,195.2z"/>
<path d="M54.7,190.5c0.3,0,0.6,0,0.9,0.1c0.6,0.1,1.4,0.3,2.1,0.9c0.5,0.4,0.8,1.1,0.8,1.5c0,0.4-0.2,0.7-0.6,0.9
	c-0.6,0.5-1.7,0.7-2.9,0.7c-0.5,0-1,0-1.4-0.1c-0.4-0.1-1.8-0.4-2.5-1.2c-0.2-0.3-0.3-0.7-0.3-1c0.1-0.5,0.5-1,1.2-1.3
	C52.1,191.1,53.2,190.5,54.7,190.5 M54.6,189.5c-1.7,0-2.9,0.6-3,0.7c-1.7,0.9-2.2,2.6-1.2,3.8c0.9,1.1,2.6,1.5,3,1.6
	c0.5,0.1,1,0.1,1.6,0.1c1.2,0,2.5-0.2,3.5-0.9c1.6-1.2,1-3-0.2-4c-0.2-0.2-1.1-0.9-2.6-1.2C55.4,189.6,55,189.5,54.6,189.5
	L54.6,189.5L54.6,189.5z"/>
<path d="M115.1,191c-1.8,0-3.5-0.2-5.2-0.7c-2.1-0.6-7.2-2.4-9.9-7.2c-3.2-5.9-1.5-13.4,3.9-17.5c0.2-0.1,4.2-3.1,9.8-3.1
	c1.2,0,2.4,0.1,3.6,0.4c2.3,0.6,5.6,1.9,8.4,5.4c3.2,4,6.2,12.6,0.6,18.4C122.8,190.5,117.8,191,115.1,191L115.1,191L115.1,191z"/>
<path d="M113.8,163.5c1.1,0,2.2,0.1,3.3,0.4c3.1,0.8,5.7,2.5,7.8,5.1c1.9,2.3,3.1,5.5,3.4,8.4c0.2,2.4-0.1,5.8-2.8,8.7
	c-3.2,3.4-7.9,3.9-10.4,3.9c-1.7,0-3.4-0.2-4.9-0.6c-2-0.5-6.8-2.2-9.2-6.7c-3-5.4-1.4-12.4,3.7-16.2
	C104.8,166.3,108.6,163.5,113.8,163.5 M113.8,161.5c-5.8,0-10,3.1-10.4,3.3c-5.9,4.5-7.6,12.7-4.2,18.8c3,5.5,8.9,7.3,10.5,7.7
	c1.6,0.4,3.5,0.7,5.4,0.7c4.2,0,8.7-1.2,11.9-4.6c5.6-5.9,3.4-14.8-0.5-19.8c-0.8-1.1-3.7-4.5-8.9-5.8
	C116.2,161.6,115,161.5,113.8,161.5L113.8,161.5L113.8,161.5z"/>
<path class="st2" d="M109.3,179.5c-0.7,0-1.4-0.1-2.1-0.3c-0.8-0.2-2.9-0.9-3.9-2.8c-1.2-2.3-0.6-5.2,1.5-6.8
	c0.1-0.1,1.7-1.2,3.9-1.2c0.5,0,0.9,0.1,1.4,0.2c0.9,0.2,2.2,0.8,3.3,2.1c1.3,1.6,2.4,4.9,0.3,7.2
	C112.3,179.3,110.3,179.5,109.3,179.5L109.3,179.5L109.3,179.5z"/>
<path d="M108.7,169.4c0.4,0,0.8,0.1,1.2,0.1c1.1,0.3,2,0.9,2.8,1.8c1.1,1.4,2,4.1,0.3,5.8c-1.1,1.2-2.8,1.3-3.7,1.3
	c-0.6,0-1.2-0.1-1.8-0.2c-0.7-0.2-2.4-0.8-3.3-2.3c-1-1.8-0.4-4.2,1.3-5.5C105.4,170.4,106.8,169.4,108.7,169.4 M108.7,167.4
	c-2.5,0-4.3,1.3-4.5,1.4c-2.6,1.9-3.3,5.4-1.8,8.1c1.3,2.4,3.8,3.1,4.5,3.3s1.5,0.3,2.3,0.3c1.8,0,3.8-0.5,5.1-1.9
	c2.4-2.5,1.5-6.4-0.2-8.5c-0.4-0.5-1.6-1.9-3.8-2.5C109.8,167.5,109.2,167.4,108.7,167.4L108.7,167.4L108.7,167.4z"/>
<path class="st2" d="M113.2,193.9c-0.5,0-1-0.1-1.5-0.1c-0.6-0.1-2-0.5-2.8-1.4c-0.3-0.4-0.5-0.9-0.4-1.4c0.1-0.6,0.6-1.2,1.4-1.6
	c0,0,1.2-0.6,2.8-0.6c0.3,0,0.7,0,1,0.1c0.7,0.1,1.6,0.4,2.3,1.1c0.6,0.6,1,1.3,1,1.9c0,0.5-0.3,0.9-0.8,1.3
	C115.6,193.6,114.5,193.9,113.2,193.9L113.2,193.9L113.2,193.9z"/>
<path d="M112.8,189.2c0.3,0,0.6,0,0.9,0.1c0.6,0.1,1.4,0.3,2.1,0.9c0.5,0.4,0.8,1.1,0.8,1.5c0,0.4-0.2,0.6-0.6,0.9
	c-0.6,0.5-1.7,0.7-2.9,0.7c-0.5,0-1,0-1.4-0.1c-0.4-0.1-1.8-0.4-2.4-1.2c-0.2-0.3-0.3-0.7-0.3-1c0.1-0.5,0.5-1,1.2-1.3
	C110.3,189.8,111.4,189.2,112.8,189.2 M112.8,188.2c-1.7,0-2.9,0.6-3,0.7c-1.7,0.9-2.2,2.6-1.2,3.8c0.9,1.1,2.6,1.5,3.1,1.6
	c0.5,0.1,1,0.1,1.6,0.1c1.2,0,2.5-0.2,3.5-0.9c1.6-1.2,1-3-0.2-4c-0.2-0.2-1.1-0.9-2.6-1.2C113.5,188.2,113.2,188.2,112.8,188.2
	L112.8,188.2L112.8,188.2z"/>
<path class="st0" d="M46.3,117.8c-4.4,0-9.1-0.2-13.9-0.5c-5.5-0.4-12-2.2-12.3-8.4c-0.4-8.1,9.6-18.8,16.8-20.1c0.2,0,0.5,0,1,0
	c4.6,0,20.5-0.9,32.1-12.6c7.6-7.7,8.7-21.5,9.8-34.8c1.2-15.5,2.3-28.9,13.1-29.6c1.1-0.1,2.1-0.1,3.1-0.1
	c12.9,0,14.8,6.2,16.5,11.6c0.1,0.5,0.3,0.9,0.4,1.4c0.2,3.5,0.5,7.2,0.9,11.2c1.8,21,4.2,47.2-11.2,64
	C91.4,111.9,73.1,117.8,46.3,117.8L46.3,117.8z"/>
<path d="M95.9,10.7v2l0,0c12.1,0,13.9,5.6,15.5,10.9c0.1,0.4,0.3,0.8,0.4,1.2c0.2,3.5,0.5,7.2,0.9,11.1c1.8,20.8,4.1,46.8-11,63.3
	c-10.8,11.8-28.9,17.6-55.4,17.6c-4.4,0-9-0.2-13.8-0.5c-7.4-0.5-11.2-3.1-11.4-7.5c-0.4-7.5,9.2-17.8,15.8-19.1c0.2,0,0.5,0,0.9,0
	c4.7,0,21-0.9,32.8-12.8c7.9-7.9,9-21.9,10.1-35.4c1.4-17.4,2.9-28.1,12.2-28.7c1.1-0.1,2.1-0.1,3.1-0.1L95.9,10.7 M95.9,10.7
	c-1,0-2.1,0-3.2,0.1c-21.5,1.4-7.3,48.3-23.5,64.7C57.8,87,41.9,87.8,37.8,87.8c-0.7,0-1,0-1,0c-12.2,2-30.5,28.6-4.4,30.5
	c4.9,0.3,9.6,0.5,14,0.5c84.2,0,69.5-59.2,67.5-94.3C111.9,18.8,110.7,10.7,95.9,10.7L95.9,10.7L95.9,10.7z"/>
<path class="st3" d="M97.8,195.8c-2.1,13.2-16.9,16.2-20.8,2.5"/>
<path class="st4" d="M23.3,102.1c0,0,22.5,22.4,70.1-2.6c19.6-10.3,18.5-63.3,8.3-85.4c-2.2-4.8,9.7,3.9,9.7,3.9
	s12.2,66.4-13.6,85.6C75.3,120.3,6.6,124.9,23.3,102.1z"/>
<path class="st4" d="M26,259c0,0,56.8,29,121-2.1l2,6c0,0-44.4,31-121.4,6.2L26,259L26,259z"/>
<path class="st5" d="M93.4,29.5c-1.9,2.1,0.5,9,4,9.2c2.7,0.2,6.1-3.6,5.3-6.6C101.7,28.6,95.2,27.5,93.4,29.5L93.4,29.5z"/>
<g class="st6">
	<path class="st2" d="M31.2,152.2c-0.1-0.9,0-2.1-0.5-2.9s-1.6-1.3-2.5-1c-1,0.3-1.5,1.2-1.7,2.2c-0.2,1.1,0.1,2.9,0.8,3.7
		c1.1,1.3,3.4,0.6,3.8-1c0.3-1.6,0-3.5-0.1-5.1c-0.1-2.8-0.3-5.7-0.4-8.5c-0.2-4.2-0.4-8.4-0.6-12.6c-0.1-2.9-4.6-2.9-4.5,0
		c0,0.5,0,1.1,0.1,1.6c0.1,2.9,4.6,2.9,4.5,0c0-0.5,0-1.1-0.1-1.6h-4.5c0.2,4.1,0.4,8.2,0.6,12.3l0.4,8.3c0,1,0.1,2,0.1,3
		c0,0.5,0,0.9,0.1,1.4c0,0.4-0.1,1.1,0.1,0l3.8-1l0,0c0.2,0.3,0.4,0.7,0.6,1c0.2,1.1,0-0.2,0-0.5c0-0.3-0.1-0.7,0-1l-4.2,1.1
		c-0.5-1.1-0.3-1.4-0.3-0.6c0,0.4,0.1,0.9,0.1,1.3c0.1,1.2,1,2.3,2.2,2.3C30.1,154.5,31.3,153.4,31.2,152.2L31.2,152.2L31.2,152.2z"
		/>
</g>
</svg>
