<?xml version="1.0" encoding="UTF-8"?><svg id="Layer_2" xmlns="http://www.w3.org/2000/svg" width="143" height="337.5" viewBox="0 0 143 337.5"><defs><style>.cls-1,.cls-2,.cls-3,.cls-4,.cls-5,.cls-6{stroke:#000;stroke-miterlimit:10;}.cls-1,.cls-2,.cls-4,.cls-5{stroke-width:2px;}.cls-1,.cls-3,.cls-7{fill:#fff;}.cls-2{fill:#fffac6;}.cls-4{fill:none;}.cls-8{opacity:.5;}.cls-9{opacity:.9;}.cls-6{fill:gray;opacity:.6;}.cls-10,.cls-7,.cls-11{stroke-width:0px;}.cls-11{opacity:.2;}</style></defs><g class="cls-9"><path class="cls-7" d="m44.52,51.67c-12,8.52-20.45,21.2-21.61,36.08-.13,1.62,1.47,3,3,3,1.73,0,2.87-1.38,3-3,.98-12.56,8.47-23.68,18.63-30.9,1.32-.94,1.95-2.62,1.08-4.1-.76-1.3-2.78-2.02-4.1-1.08h0Z"/></g><path class="cls-2" d="m95.06,37.9c-.3,3.34,1.19,6.43,4.59,8.24,31.06,16.53,29.85,74.72,29.85,74.72,0,0-.5,131.98-.25,180.52.22,41.4-14.3,24.14-17.94,19.13-2.28-3.15-7.28-16.05-16.19-13.22-5.31,1.69-9.82,5.71-11.7,8.2-18.19,24.08-31.53-23.07-44.86-4.01-21.22,30.33-25.46,8.03-25.46-3.26V121.87c.04-64.1,23.71-65.23,34.93-83.23-1.18-13.46,2.17-23.2,19.64-22.11,23.32-1.07,30.35,1.96,27.4,21.38Z"/><path class="cls-3" d="m112.28,153.82c.63-1.11-.22-1.99-1.14-2.28-.2-.06-.86-.26-1.81-.03-1.39.34-2.18,1.31-2.23,1.37-.76.96-.6,2.04.29,2.51.8.42,1.88.21,2.17.14.94-.21,2.19-.81,2.71-1.71Z"/><path class="cls-5" d="m53.64,146.39c4.2-4.33,2.53-10.83-.39-14.42-.63-.78-2.74-3.3-6.64-4.22-5.71-1.36-10.25,1.89-10.54,2.11-4.43,3.28-5.63,9.24-3.12,13.72,2.24,4,6.6,5.31,7.81,5.63,3.85,1.01,9.46.72,12.89-2.81Z"/><path class="cls-1" d="m45.24,139.89c1.81-1.85,1.09-4.64-.17-6.18-.27-.33-1.18-1.41-2.86-1.81-2.46-.58-4.42.81-4.55.9-1.91,1.41-2.43,3.96-1.35,5.88.97,1.71,2.85,2.28,3.37,2.41,1.66.43,4.08.31,5.56-1.21Z"/><path class="cls-3" d="m46.93,150.79c1.22-.88.73-2.21-.11-2.94-.18-.16-.8-.67-1.93-.86-1.66-.28-2.98.39-3.07.43-1.29.67-1.64,1.88-.91,2.79.65.81,1.92,1.08,2.27,1.15,1.12.21,2.75.15,3.75-.57Z"/><path class="cls-4" d="m90.57,147.98c.17-23.68,17.47-24.41,17.85.03"/><path class="cls-5" d="m68.09,153.15s8.4,12.21,12.33-2.74c.35-1.33.74-3.25-2.56-1.07-4.45,2.94-8.88.22-8.88.22h0c-1.1-.14-1.94,1.32-1.43,2.48l.53,1.1Z"/><path class="cls-10" d="m13.79,104.98c14.47,4.27,29.49,6.68,44.57,7.21,15.08.53,30.25-.82,45-4,8.33-1.8,16.51-4.2,24.49-7.18,1.79-.67,1.02-3.57-.8-2.89-27.92,10.43-58.47,13.66-87.96,9.36-8.29-1.21-16.48-3.01-24.51-5.38-1.86-.55-2.65,2.35-.8,2.89h0Z"/><path class="cls-10" d="m11.82,223.49c15.13,7.85,32.22,11.94,49.12,13.46,16.56,1.49,34.26.59,49.76-5.93,7.41-3.12,14.16-7.66,19.07-14.09,1.17-1.53-1.43-3.03-2.59-1.51-8.81,11.54-24.15,16.28-37.96,18.13-16.8,2.24-34.23.73-50.63-3.37-8.71-2.18-17.27-5.14-25.25-9.28-1.71-.89-3.23,1.7-1.51,2.59h0Z"/><path class="cls-10" d="m94.44,36.91c-15.33,1.06-30.71,1.3-46.06.72v3c5.18-.08,10.36-.16,15.55-.24,8.27-.13,16.53-.26,24.8-.39,1.91-.03,3.81-.06,5.72-.09s1.93-3.03,0-3c-5.18.08-10.36.16-15.55.24-8.27.13-16.53.26-24.8.39-1.91.03-3.81.06-5.72.09s-1.93,2.93,0,3c15.36.58,30.73.34,46.06-.72,1.92-.13,1.93-3.13,0-3Z"/><path class="cls-11" d="m13.05,305.79l6.19,10.21c.71,1.39,3.08,3.01,5.13,1l16.41-14.05c4.1-3.01,7.41-1.11,9.23,0l15.38,12.04c2.61,1.6,6.29,1.63,9,.2l17.66-12.24c4.1-2.01,9.6-.45,13.33,2.01l12.22,14.17c1.19,1.13,4.19,2.89,5.22-1.12l6.15-17.06-2.05,23.07c-.83,3.32-7.85,4.49-10.26,2.01l-14.36-17.06c-2.45-2.69-8.9-2.57-11.65-.17l-13.99,12.21c-2,1.56-7.58,1.95-9.61.43l-18.08-13.47c-1.6-1.24-4.71-2.41-6.15-1l-20.27,20.8c-2.46-1.5-6.38-2.99-7.42-4.74l-3.08-16.05c0-2.01.94-1.27.99-1.18Z"/><path class="cls-6" d="m74.03,16.34c-6.05.45-30.89-4.76-25.66,22.8l46.06-.72s9.25-24.26-20.41-22.07Z"/><g class="cls-8"><path class="cls-10" d="m53.42,38.83c-.37-3.13-.64-6.28-.6-9.44s.3-6.24.48-9.36c.06-.96-1.44-.96-1.5,0-.18,3.11-.45,6.24-.48,9.36s.24,6.3.6,9.44c.11.95,1.61.96,1.5,0h0Z"/></g><g class="cls-8"><path class="cls-10" d="m58.96,39.09c-.68-7.33-.72-14.72-.12-22.06.08-.96-1.42-.96-1.5,0-.6,7.34-.56,14.73.12,22.06.09.95,1.59.96,1.5,0h0Z"/></g><g class="cls-8"><path class="cls-10" d="m64.6,38.74c-.17-7.57-.11-15.15.19-22.72.04-.97-1.46-.96-1.5,0-.3,7.57-.36,15.14-.19,22.72.02.96,1.52.97,1.5,0h0Z"/></g><g class="cls-8"><path class="cls-10" d="m70.38,38.52c0-7.5,0-15,0-22.5,0-.97-1.5-.97-1.5,0,0,7.5,0,15,0,22.5,0,.97,1.5.97,1.5,0h0Z"/></g><g class="cls-8"><path class="cls-10" d="m75.62,38.63v-22.61c0-.97-1.5-.97-1.5,0v22.61c0,.97,1.5.97,1.5,0h0Z"/></g><g class="cls-8"><path class="cls-10" d="m80.65,38.96c-.2-3.67.29-7.3.55-10.95s.3-7.33.11-10.99c-.05-.96-1.55-.97-1.5,0,.19,3.66.16,7.33-.11,10.99s-.76,7.28-.55,10.95c.05.96,1.55.97,1.5,0h0Z"/></g><g class="cls-8"><path class="cls-10" d="m86.88,38.38c.67-7.06,1-14.28.32-21.36-.09-.95-1.59-.96-1.5,0,.68,7.07.35,14.29-.32,21.36-.09.96,1.41.95,1.5,0h0Z"/></g><g class="cls-8"><path class="cls-10" d="m92.53,37.96c.37-6.31.22-12.64-.44-18.93-.1-.95-1.6-.96-1.5,0,.66,6.29.81,12.62.44,18.93-.06.96,1.44.96,1.5,0h0Z"/></g></svg>