<?xml version="1.0" encoding="UTF-8"?><svg id="Layer_2" xmlns="http://www.w3.org/2000/svg" width="481" height="231" viewBox="0 0 481 231"><defs><style>.cls-1,.cls-2,.cls-3{stroke:#000;stroke-miterlimit:10;stroke-width:3px;}.cls-2{fill:#494b49;}.cls-3{fill:#3f413f;}.cls-4,.cls-5{stroke-width:0px;}.cls-5{fill:#fff;}</style></defs><path class="cls-2" d="m119.16,67.96s-2.66-7.3-2.66-29.21c0-21.91,49.21-29.21,49.21-29.21,0,0,14.63-1.46,23.94,48.2,0,0-59.85,7.3-70.49,10.22Z"/><path class="cls-3" d="m371.62,98.42s-.44-14.57,11.26-16.35h16.22l-9.79,23.74-17.69-7.39Z"/><path class="cls-3" d="m46.65,108.93s-85.67,37.15,0,83.72c85.67,46.57,311.03-32.68,311.03-32.68,0,0,44.85-12.09,77.12-16.79,32.27-4.7,33.59-78.57,33.59-78.57,0,0,1.32-21.49-32.95-12.09-34.27,9.4-44.81,53.72-44.81,53.72,0,0-195.05-73.87-278.08-44.32,0,0-22.4,4.03-35.58,20.15s-6.59,25.52-30.31,26.86Z"/><path class="cls-3" d="m207.28,146.81c6.33-11.82,21.25-29.82,85.83-19.08,2.33.39,5.54,1.72,9.23,2.69,7.1,1.86,47.69,45.55,118.5,63.18,4.99,1.24,6.11,8.02,1.76,10.81-6.65,4.26-21.36,9.45-52.58,14.52-6.38,1.04-12.9.76-19.17-.83-24.78-6.28-92.68-24.98-138.11-51.85-6.64-3.93-9.13-12.56-5.45-19.43Z"/><path class="cls-1" d="m51.93,110.27s39.54,39.84,0,83.72c0,0-43.56-16.12-43.53-41.86.04-25.74,43.53-41.86,43.53-41.86Z"/><path class="cls-1" d="m66.91,116.74c5.24,8.77,17.79,23.23,42.8,20.78,11.11-1.09,19.81-10.69,19.26-22.05-.55-11.44-7.69-25.32-35.09-33.45-3.57-1.06-13.14-3.66-15.6.04-2.7,4.06-6.96,10.27-14.5,21.49-2.33,3.47.98,9.6,3.13,13.19Z"/><path class="cls-4" d="m79.6,137.13s36.24,27.53,57.33-3.36c9.81-14.38,2.64-49.7-31.63-52.38-1.32,0,31.11,5.06,29.19,38.33-.71,12.33-9.71,22.78-21.72,24.44-7.91,1.09-18.67-.32-33.17-7.04Z"/><path class="cls-4" d="m169.88,102.88c-6.64.37-12.03,4.97-13.18,10.74-1.56,7.85,5.09,16.1,13.18,16.12,6.47.02,12.57-5.23,13.18-12.09.66-7.37-5.22-14.37-13.18-14.77Z"/><path class="cls-4" d="m202.83,101.54c-5.84.33-10.54,5.97-10.54,12.09,0,5.87,4.33,11.71,10.54,12.09,6.28.38,11.27-5.04,11.86-10.74.71-6.92-5.09-13.82-11.86-13.43Z"/><path class="cls-4" d="m233.14,98.86c-5.97.03-10.81,6-10.54,12.09.22,4.98,3.85,10.05,9.23,10.74,5.81.75,10.95-3.98,11.86-9.4,1.09-6.54-4.09-13.47-10.54-13.43Z"/><path class="cls-5" d="m168.79,108.35s-1.21-.32-2.56.05c-1.51.41-3.2,1.69-3.57,5.23,0,0,.94,2.69,4.73,0,3.8-2.69,2.94-5.19,1.39-5.28Z"/><path class="cls-5" d="m200.43,105.7s-1-.32-2.11.05c-1.25.41-2.64,1.67-2.95,5.2,0,0,.77,2.67,3.91,0,3.13-2.67,2.43-5.15,1.15-5.25Z"/><path class="cls-5" d="m231.81,102.97s-1.21-.32-2.56.05c-1.51.41-3.2,1.69-3.57,5.23,0,0,.94,2.69,4.73,0s2.94-5.19,1.39-5.28Z"/><path class="cls-5" d="m73.47,111.32c-1.25,1.44-3.44,1.52-3.75-.37-1-6.16.3-12.7,3.95-17.46,5.68-7.39,7.91-8.06,7.91-8.06,0,0,1.32-1.34,5.68-1.04,1.92.13,3.16,2.06,2.13,3.72-3.71,5.93-11.49,18.11-15.92,23.21Z"/><path class="cls-5" d="m78.36,114.56l-.48-2.15c-.09-.4-.02-.83.21-1.18l13.41-20.99c.18-.29.45-.51.78-.63.81-.3,2.45-.69,4.05.2.78.43.98,1.47.48,2.2l-15.53,23.07c-.78,1.17-2.61.84-2.92-.53Z"/><path class="cls-5" d="m17.52,147.21s-.72-18.99,20.33-26.87c1.23-.46,2.63-.45,3.81.14,1.44.72,2.71,2.28.38,5.24-5.27,6.72-5.55-4.03-24.52,21.49Z"/><path class="cls-5" d="m111.89,101.54s-1.32-5.37,3.95-2.69c2.85,1.45,4.04,3.76,4.55,5.59.41,1.5-.84,2.94-2.34,2.63-2.01-.41-4.66-1.72-6.16-5.53Z"/><path class="cls-3" d="m388.66,135.12s-3.28-7.92,6.93-10.68c10.2-2.75,40.32,0,40.32,0,0,0,35.79,24.11,31.83,41.57,0,0-18.45,5.37-40.86,1.34l-38.22-32.23Z"/></svg>