<?xml version="1.0" encoding="UTF-8"?><svg id="Layer_2" xmlns="http://www.w3.org/2000/svg" width="928" height="376" viewBox="0 0 928 376"><defs><style>.cls-1,.cls-2,.cls-3{stroke-width:0px;}.cls-2{fill:#1b1464;}.cls-3{fill:#7dd0ff;}</style></defs><path class="cls-3" d="m187,374.5c-100.63,0-182.5-81.87-182.5-182.5S86.37,9.5,187,9.5h554c100.63,0,182.5,81.87,182.5,182.5s-81.87,182.5-182.5,182.5H187Z"/><path class="cls-2" d="m741,15c47.28,0,91.73,18.41,125.16,51.84,33.43,33.43,51.84,77.88,51.84,125.16s-18.41,91.73-51.84,125.16c-33.43,33.43-77.88,51.84-125.16,51.84H187c-47.28,0-91.73-18.41-125.16-51.84-33.43-33.43-51.84-77.88-51.84-125.16s18.41-91.73,51.84-125.16C95.27,33.41,139.72,15,187,15h554m0-11H187C83.17,4-1,88.17-1,192h0c0,103.83,84.17,188,188,188h554c103.83,0,188-84.17,188-188h0c0-103.83-84.17-188-188-188h0Z"/><path class="cls-1" d="m89.66,235.15c-5.55-3.12-9.91-7.64-13.09-13.54-3.18-5.9-4.77-12.92-4.77-21.06,0-10.12,2.27-19.69,6.81-28.72,4.54-9.03,10.97-16.32,19.3-21.87,8.33-5.55,17.83-8.33,28.53-8.33,6.26,0,11.35.97,15.29,2.9s5.9,4.69,5.9,8.26c0,2.68-1.04,5.26-3.1,7.74-2.07,2.48-4.31,3.72-6.74,3.72-1.01,0-1.82-.25-2.42-.74-5.25-3.47-11.2-5.21-17.86-5.21s-12.74,1.56-17.63,4.69c-4.9,3.12-8.6,7.34-11.13,12.65-2.52,5.31-3.78,11.09-3.78,17.33,0,9.23,2.65,16.57,7.95,22.02,5.3,5.46,12.39,8.18,21.27,8.18,6.05,0,11.25-1.24,15.59-3.72,4.34-2.48,6.51-5.9,6.51-10.27,0-4.07-1.72-6.94-5.15-8.63-3.43-1.69-8.17-2.73-14.23-3.12-2.83-.2-4.72-.52-5.68-.97-.96-.45-1.44-1.61-1.44-3.5,0-2.38.73-4.36,2.19-5.95,1.46-1.59,3.35-2.48,5.68-2.68,8.48-.69,20.84-1.04,37.08-1.04,1.41,0,2.45.25,3.1.74.66.5.98,1.39.98,2.68,0,2.78-.86,5.58-2.57,8.41-1.72,2.83-3.78,4.24-6.21,4.24h-2.42c.81,2.58,1.21,5.11,1.21,7.59,0,5.75-1.84,11.16-5.52,16.22-3.68,5.06-8.63,9.1-14.83,12.13-6.21,3.02-12.84,4.54-19.9,4.54s-13.37-1.56-18.92-4.69Z"/><path class="cls-1" d="m231.87,235.67c-2.17-2.58-4.26-6.94-6.28-13.09-2.02-6.15-3.33-11.8-3.94-16.96-1.31,1.99-2.5,3.3-3.56,3.94-1.06.65-2.6.97-4.62.97-8.88,0-19.07-.2-30.58-.59-.51,3.97-.76,7.59-.76,10.86,0,2.28.2,5.41.61,9.37.3,2.78-.78,5.01-3.25,6.7-2.47,1.69-5.63,2.53-9.46,2.53-1.72,0-2.95-.32-3.71-.97-.76-.64-1.14-1.71-1.14-3.2,0-1.69.45-4.21,1.36-7.59,1.11-4.66,1.67-7.93,1.67-9.82,0-2.78-.86-4.66-2.57-5.65-1.41-.79-2.12-1.83-2.12-3.12,0-1.79.61-4.02,1.82-6.7,1.21-2.68,2.47-4.46,3.78-5.36,1.51-.79,3.63-1.34,6.36-1.64,5.95-16.96,12.94-30.23,20.96-39.8,8.02-9.57,16.32-14.36,24.9-14.36,3.53,0,6.1,1.19,7.72,3.57,1.61,2.38,2.42,6.25,2.42,11.61v6.7c0,9.62.73,18.67,2.19,27.16,1.46,8.48,3.35,15.5,5.68,21.05,2.22,5.56,5.3,10.12,9.23,13.69,1.21.99,2.02,1.84,2.42,2.53.4.7.61,1.49.61,2.38,0,2.28-1.26,4.46-3.78,6.55-2.52,2.08-5.2,3.12-8.02,3.12-3.13,0-5.78-1.29-7.95-3.87Zm-22.02-41.96h10.6c-.51-6.15-.76-12.3-.76-18.45v-8.63c0-2.78-.33-4.66-.98-5.65-.66-.99-1.89-1.49-3.71-1.49-4.95,0-9.89,3.18-14.83,9.52-4.95,6.35-9.18,14.83-12.71,25.44,10.9-.5,18.36-.74,22.4-.74Z"/><path class="cls-1" d="m256.46,234.18c0-11.21,2.17-26.14,6.51-44.79,2.72-11.41,6.26-22.32,10.6-32.74,2.22-5.26,4.79-9.23,7.72-11.9,2.93-2.68,6.26-4.02,9.99-4.02,3.13,0,5.73.99,7.8,2.98,2.07,1.99,3.3,5.21,3.71,9.67.91,9.43,2.09,18.3,3.56,26.63,1.46,8.33,2.95,14.29,4.47,17.86.5,1.29,1.06,2.18,1.67,2.68.61.5,1.36.74,2.27.74,1.11,0,2.02-.27,2.72-.82.71-.54,1.46-1.46,2.27-2.75,2.72-4.56,6.91-15.38,12.56-32.44,2.52-7.54,5.3-13.54,8.33-18s7.16-6.7,12.41-6.7c3.63,0,6.23,1.19,7.8,3.57,1.56,2.38,2.35,6.25,2.35,11.61,0,4.07-.15,8.33-.45,12.8-.4,6.94-.61,12.4-.61,16.37,0,19.25,3.18,32.29,9.54,39.13,2.12,1.88,3.18,3.67,3.18,5.36,0,2.48-1.34,4.74-4.01,6.77-2.67,2.03-5.73,3.05-9.16,3.05-2.93,0-5.17-.92-6.74-2.75-1.57-1.83-2.85-4.59-3.86-8.26-1.82-7.74-2.72-16.81-2.72-27.23,0-5.65.35-13.44,1.06-23.36.4-5.36.61-8.58.61-9.67,0-1.69-.18-2.88-.53-3.57-.35-.69-1.09-1.04-2.19-1.04-2.62,0-4.59,2.33-5.9,6.99-2.72,8.63-5.27,16.22-7.64,22.77-2.37,6.55-4.87,12.15-7.49,16.81-2.22,3.87-4.62,6.6-7.19,8.18-2.57,1.59-5.37,2.38-8.4,2.38-6.96,0-11.76-4.22-14.38-12.65-1.41-4.56-2.68-10.34-3.78-17.33-1.11-6.99-1.87-14.56-2.27-22.69-.2-3.67-1.41-5.51-3.63-5.51-2.42,0-4.34,1.79-5.75,5.36-2.02,5.75-3.71,12.57-5.07,20.46-1.36,7.89-2.04,15.4-2.04,22.54,0,3.47.2,7.59.61,12.35.3,2.78.45,5.36.45,7.74,0,2.78-1.49,4.91-4.47,6.4-2.98,1.49-5.93,2.23-8.85,2.23-3.33,0-5-1.73-5-5.21Z"/><path class="cls-1" d="m392.77,235.15c-4.39-3.12-6.58-8.75-6.58-16.89,0-3.47.5-8.38,1.51-14.73.91-5.06,1.54-9.47,1.89-13.24.35-3.77.53-7.89.53-12.35,0-6.25-.35-11.75-1.06-16.52l-3.03.45c-.81,0-1.36-.17-1.67-.52-.3-.35-.45-1.02-.45-2.01,0-2.08.25-4.14.76-6.17.5-2.03,1.21-3.7,2.12-4.99,1.71-2.38,4.34-3.77,7.87-4.17,4.14-.5,9.56-.92,16.27-1.26,6.71-.35,12.49-.52,17.33-.52,9.28,0,14.78.2,16.5.6,1.41.2,2.42.62,3.03,1.26.61.65.91,1.61.91,2.9,0,2.98-1.06,5.71-3.18,8.18-1.21,1.59-2.37,2.68-3.48,3.27-1.11.59-2.62.84-4.54.74-7.47-.5-13.68-.74-18.62-.74-5.35,0-10.24.2-14.68.59,0,6.75-.56,14.63-1.67,23.66,9.18-.6,19.63-.89,31.33-.89,2.12,0,3.53.22,4.24.67.7.45,1.06,1.46,1.06,3.05,0,1.69-.43,3.5-1.29,5.43-.86,1.93-1.99,3.55-3.41,4.84-.71.7-1.41,1.19-2.12,1.49-.71.3-1.62.4-2.72.3-6.56-.3-14.03-.45-22.4-.45h-6.81c-.81,4.96-1.21,8.73-1.21,11.31,0,5.36,1.41,9.15,4.24,11.38,2.82,2.23,7.47,3.35,13.93,3.35,4.14,0,8.02-.37,11.66-1.12,3.63-.74,7.31-2.01,11.05-3.79,1.41-.79,2.47-1.19,3.18-1.19,1.11,0,2.19.77,3.25,2.31,1.06,1.54,1.59,3.2,1.59,4.98,0,2.18-.81,4.22-2.42,6.1-1.62,1.88-3.84,3.57-6.66,5.06-3.03,1.39-6.71,2.46-11.05,3.2-4.34.74-8.88,1.12-13.62,1.12-9.99,0-17.18-1.56-21.57-4.69Z"/><path class="cls-1" d="m511.29,230.69c-6.11-6.1-9.16-14.9-9.16-26.41s3.18-22.77,9.54-33.18c-1.92,1.69-3.73,2.53-5.45,2.53-2.93,0-4.39-2.28-4.39-6.84,0-2.88.58-5.28,1.74-7.22,1.16-1.93,2.65-3.74,4.47-5.43,4.03-3.47,9.11-6.42,15.21-8.85,6.1-2.43,13.09-3.65,20.96-3.65,13.32,0,23.44,3.7,30.35,11.08,6.91,7.39,10.37,17.83,10.37,31.32,0,10.42-2.04,19.87-6.13,28.35s-9.81,15.18-17.18,20.09c-7.37,4.91-15.79,7.37-25.28,7.37-10.6,0-18.95-3.05-25.05-9.15Zm45.64-11.08c4.84-2.38,8.8-6.12,11.88-11.23,3.08-5.11,4.62-11.48,4.62-19.12,0-7.14-1.39-13.02-4.16-17.63-2.78-4.61-6.41-7.98-10.9-10.12-4.49-2.13-9.36-3.2-14.61-3.2-5.96,0-11.96,1.49-18.01,4.46-3.13,4.66-5.73,9.82-7.8,15.48-2.07,5.65-3.1,11.36-3.1,17.11,0,9.13,2.57,16.05,7.72,20.76,5.15,4.71,11.5,7.07,19.07,7.07,5.35,0,10.44-1.19,15.29-3.57Z"/><path class="cls-1" d="m616.41,236.86c-1.82-2.28-2.88-6.15-3.18-11.61-.51-12.5-2.02-23.76-4.54-33.78-1.92-8.04-4.34-15.03-7.27-20.98-2.93-5.95-6.76-10.81-11.5-14.58-.91-.79-1.59-1.51-2.04-2.16-.45-.64-.68-1.41-.68-2.31,0-2.18,1.16-4.26,3.48-6.25,2.32-1.98,4.94-2.98,7.87-2.98,3.33,0,6.28,1.39,8.85,4.17,2.57,2.78,4.92,6.84,7.04,12.2,3.23,7.74,5.68,16.54,7.34,26.41,1.67,9.87,2.6,19.86,2.8,29.98.1,2.68.5,4.52,1.21,5.51.7.99,1.92,1.49,3.63,1.49,4.74,0,9.41-2.4,14-7.22,4.59-4.81,8.35-11.13,11.28-18.97,2.93-7.83,4.39-16.02,4.39-24.55,0-6.64-.91-11.95-2.72-15.92-.91-1.88-1.36-3.47-1.36-4.76,0-2.08,1.41-4.04,4.24-5.88,2.82-1.83,5.45-2.75,7.87-2.75,2.62,0,4.39,1.32,5.3,3.94.91,2.63,1.36,6.08,1.36,10.34,0,11.61-2.22,24.03-6.66,37.27-4.44,13.24-10.47,24.35-18.09,33.33-7.62,8.98-15.82,13.47-24.6,13.47-3.53,0-6.21-1.14-8.02-3.42Z"/><path class="cls-1" d="m693.98,235.15c-4.39-3.12-6.58-8.75-6.58-16.89,0-3.47.5-8.38,1.51-14.73.91-5.06,1.54-9.47,1.89-13.24.35-3.77.53-7.89.53-12.35,0-6.25-.35-11.75-1.06-16.52l-3.03.45c-.81,0-1.36-.17-1.67-.52-.3-.35-.45-1.02-.45-2.01,0-2.08.25-4.14.76-6.17.5-2.03,1.21-3.7,2.12-4.99,1.71-2.38,4.34-3.77,7.87-4.17,4.14-.5,9.56-.92,16.27-1.26,6.71-.35,12.49-.52,17.33-.52,9.28,0,14.78.2,16.5.6,1.41.2,2.42.62,3.03,1.26.61.65.91,1.61.91,2.9,0,2.98-1.06,5.71-3.18,8.18-1.21,1.59-2.37,2.68-3.48,3.27-1.11.59-2.62.84-4.54.74-7.47-.5-13.68-.74-18.62-.74-5.35,0-10.24.2-14.68.59,0,6.75-.56,14.63-1.67,23.66,9.18-.6,19.63-.89,31.33-.89,2.12,0,3.53.22,4.24.67.7.45,1.06,1.46,1.06,3.05,0,1.69-.43,3.5-1.29,5.43-.86,1.93-1.99,3.55-3.41,4.84-.71.7-1.41,1.19-2.12,1.49-.71.3-1.62.4-2.72.3-6.56-.3-14.03-.45-22.4-.45h-6.81c-.81,4.96-1.21,8.73-1.21,11.31,0,5.36,1.41,9.15,4.24,11.38,2.82,2.23,7.47,3.35,13.93,3.35,4.14,0,8.02-.37,11.66-1.12,3.63-.74,7.31-2.01,11.05-3.79,1.41-.79,2.47-1.19,3.18-1.19,1.11,0,2.19.77,3.25,2.31,1.06,1.54,1.59,3.2,1.59,4.98,0,2.18-.81,4.22-2.42,6.1-1.62,1.88-3.84,3.57-6.66,5.06-3.03,1.39-6.71,2.46-11.05,3.2-4.34.74-8.88,1.12-13.62,1.12-9.99,0-17.18-1.56-21.57-4.69Z"/><path class="cls-1" d="m763.31,237.38c-1.46-1.34-2.19-4.09-2.19-8.26s.55-9.57,1.67-16.81c2.12-13.99,3.18-25.34,3.18-34.07,0-5.26-.25-9.62-.76-13.09-1.62.8-2.93,1.19-3.94,1.19-1.72,0-2.57-1.73-2.57-5.21,0-3.07.73-5.58,2.19-7.51,1.46-1.93,3.86-3.74,7.19-5.43,4.03-2.18,8.38-3.82,13.02-4.91,4.64-1.09,9.18-1.64,13.62-1.64,9.48,0,17.2,2.43,23.16,7.29,5.95,4.86,8.93,11.36,8.93,19.49,0,5.46-1.36,10.47-4.09,15.03-2.72,4.56-6.21,8.28-10.44,11.16-4.24,2.88-8.68,4.76-13.32,5.65,3.83,5.85,7.47,10.57,10.9,14.14,5.75,5.85,11.6,8.78,17.56,8.78,1.61,0,3.03-.1,4.24-.3h.3c1.31,0,1.97,1.29,1.97,3.87,0,3.27-1.06,6.18-3.18,8.71s-5.45,3.79-9.99,3.79c-7.06,0-13.6-3.92-19.6-11.75-6.01-7.83-11.23-16.86-15.67-27.08-1.01-2.28-1.51-4.36-1.51-6.25,0-1.69.55-3.07,1.67-4.17.81-.79,1.94-1.34,3.41-1.64,1.46-.3,3.61-.45,6.43-.45,5.35,0,9.69-1.44,13.02-4.32,3.33-2.88,5-6.6,5-11.16s-1.82-8.33-5.45-10.71-8.33-3.57-14.08-3.57c-4.44,0-9.08.7-13.93,2.08-.3,6.45-1.01,13.84-2.12,22.17-1.51,12.5-2.27,21.82-2.27,27.97,0,3.87.35,7.04,1.06,9.52.7,2.48,2.02,4.61,3.94,6.4,1.41,1.39,2.12,2.88,2.12,4.46,0,2.28-1.29,4.29-3.86,6.03s-5.83,2.6-9.76,2.6c-2.42,0-4.37-.67-5.83-2.01Z"/></svg>