<?xml version="1.0" encoding="UTF-8"?><svg xmlns="http://www.w3.org/2000/svg" width="1920" height="1080" viewBox="0 0 1920 1080"><defs><style>.cls-1,.cls-2,.cls-3,.cls-4,.cls-5{stroke-miterlimit:10;}.cls-1,.cls-3,.cls-4{stroke:#000;}.cls-2,.cls-6{opacity:.5;}.cls-2,.cls-4{stroke-width:3px;}.cls-2,.cls-5{fill:none;stroke:#009145;}.cls-3,.cls-7{fill:#fff;}.cls-8{opacity:.9;}.cls-9{opacity:.7;}.cls-4{fill:#ceffdd;}.cls-5{opacity:.4;stroke-width:4px;}.cls-10,.cls-11,.cls-12,.cls-13,.cls-7,.cls-14,.cls-15,.cls-16{stroke-width:0px;}.cls-11{fill:#29abe2;}.cls-12{fill:#1b1464;}.cls-13{fill:#7dd0ff;}.cls-14{fill:#006837;}.cls-15{fill:#009145;}.cls-16{opacity:.2;}</style></defs><g id="Layer_1"><g class="cls-8"><rect class="cls-11" x="-17.5" y="-21.5" width="1955" height="1130"/><path class="cls-10" d="m1937-21v1129H-17V-21h1954m1-1H-18v1131h1956V-22h0Z"/></g></g><g id="Layer_2"><path class="cls-13" d="m713,590.5c-86.29,0-156.5-70.21-156.5-156.5s70.21-156.5,156.5-156.5h511c86.29,0,156.5,70.21,156.5,156.5s-70.21,156.5-156.5,156.5h-511Z"/><path class="cls-12" d="m1224,283c40.33,0,78.25,15.71,106.77,44.23s44.23,66.44,44.23,106.77-15.71,78.25-44.23,106.77c-28.52,28.52-66.44,44.23-106.77,44.23h-511c-40.33,0-78.25-15.71-106.77-44.23-28.52-28.52-44.23-66.44-44.23-106.77s15.71-78.25,44.23-106.77,66.44-44.23,106.77-44.23h511m0-11h-511c-89.47,0-162,72.53-162,162h0c0,89.47,72.53,162,162,162h511c89.47,0,162-72.53,162-162h0c0-89.47-72.53-162-162-162h0Z"/><path class="cls-10" d="m632.4,474.63c-4.98-2.69-8.9-6.58-11.76-11.67-2.85-5.08-4.28-11.13-4.28-18.14,0-8.72,2.04-16.97,6.12-24.75,4.08-7.78,9.85-14.06,17.33-18.85,7.48-4.79,16.01-7.18,25.62-7.18,5.62,0,10.19.83,13.73,2.5,3.53,1.67,5.3,4.04,5.3,7.12,0,2.31-.93,4.53-2.79,6.67-1.86,2.14-3.87,3.21-6.05,3.21-.91,0-1.63-.21-2.17-.64-4.71-2.99-10.06-4.49-16.04-4.49s-11.44,1.35-15.83,4.04c-4.4,2.69-7.73,6.33-9.99,10.9-2.27,4.57-3.4,9.55-3.4,14.94,0,7.95,2.38,14.28,7.13,18.98,4.76,4.7,11.12,7.05,19.09,7.05,5.44,0,10.1-1.07,14-3.21,3.89-2.14,5.84-5.08,5.84-8.85,0-3.5-1.54-5.98-4.62-7.44-3.08-1.45-7.34-2.35-12.77-2.69-2.54-.17-4.24-.45-5.1-.83-.86-.38-1.29-1.39-1.29-3.01,0-2.05.66-3.76,1.97-5.13,1.31-1.37,3.01-2.14,5.1-2.31,7.61-.6,18.71-.9,33.3-.9,1.27,0,2.2.21,2.79.64.59.43.88,1.2.88,2.31,0,2.39-.77,4.81-2.31,7.24-1.54,2.44-3.4,3.65-5.57,3.65h-2.17c.72,2.22,1.09,4.4,1.09,6.54,0,4.96-1.65,9.62-4.96,13.98-3.31,4.36-7.75,7.84-13.32,10.45-5.57,2.61-11.53,3.91-17.87,3.91s-12.01-1.35-16.99-4.04Z"/><path class="cls-10" d="m760.08,475.08c-1.95-2.22-3.83-5.98-5.64-11.28-1.81-5.3-2.99-10.17-3.53-14.62-1.18,1.71-2.24,2.84-3.19,3.4-.95.56-2.33.83-4.15.83-7.97,0-17.12-.17-27.45-.51-.45,3.42-.68,6.54-.68,9.36,0,1.97.18,4.66.54,8.08.27,2.39-.7,4.32-2.92,5.77-2.22,1.45-5.05,2.18-8.49,2.18-1.54,0-2.65-.28-3.33-.83-.68-.55-1.02-1.47-1.02-2.76,0-1.45.41-3.63,1.22-6.54,1-4.02,1.5-6.84,1.5-8.46,0-2.39-.77-4.02-2.31-4.87-1.27-.68-1.9-1.58-1.9-2.69,0-1.54.54-3.46,1.63-5.77,1.09-2.31,2.22-3.85,3.4-4.62,1.36-.68,3.26-1.15,5.71-1.41,5.34-14.62,11.62-26.05,18.82-34.3,7.2-8.25,14.65-12.37,22.36-12.37,3.17,0,5.48,1.03,6.93,3.08,1.45,2.05,2.17,5.39,2.17,10v5.77c0,8.29.66,16.09,1.97,23.4,1.31,7.31,3.01,13.36,5.1,18.14,1.99,4.79,4.76,8.72,8.29,11.8,1.09.86,1.81,1.58,2.17,2.18.36.6.54,1.28.54,2.05,0,1.97-1.13,3.85-3.4,5.64-2.27,1.79-4.67,2.69-7.2,2.69-2.81,0-5.19-1.11-7.14-3.33Zm-19.77-36.16h9.51c-.45-5.3-.68-10.6-.68-15.9v-7.44c0-2.39-.3-4.02-.88-4.87-.59-.85-1.7-1.28-3.33-1.28-4.44,0-8.88,2.74-13.32,8.21-4.44,5.47-8.25,12.78-11.42,21.93,9.79-.43,16.49-.64,20.11-.64Z"/><path class="cls-10" d="m782.16,473.8c0-9.66,1.95-22.52,5.84-38.59,2.45-9.83,5.62-19.23,9.51-28.21,1.99-4.53,4.3-7.95,6.93-10.26,2.63-2.31,5.62-3.46,8.97-3.46,2.81,0,5.14.86,7,2.56,1.86,1.71,2.97,4.49,3.33,8.33.82,8.12,1.88,15.77,3.19,22.95,1.31,7.18,2.65,12.31,4.01,15.39.45,1.11.95,1.88,1.5,2.31.54.43,1.22.64,2.04.64,1,0,1.81-.23,2.45-.71.63-.47,1.31-1.26,2.04-2.37,2.45-3.93,6.2-13.25,11.28-27.95,2.26-6.5,4.76-11.67,7.47-15.51,2.72-3.85,6.43-5.77,11.14-5.77,3.26,0,5.59,1.03,7,3.08,1.4,2.05,2.11,5.39,2.11,10,0,3.51-.14,7.18-.41,11.03-.36,5.98-.54,10.69-.54,14.1,0,16.58,2.85,27.82,8.56,33.72,1.9,1.62,2.85,3.16,2.85,4.62,0,2.14-1.2,4.08-3.6,5.83-2.4,1.75-5.14,2.63-8.22,2.63-2.63,0-4.64-.79-6.05-2.37-1.41-1.58-2.56-3.95-3.47-7.12-1.63-6.67-2.45-14.49-2.45-23.46,0-4.87.32-11.58.95-20.13.36-4.62.54-7.39.54-8.33,0-1.45-.16-2.48-.48-3.08-.32-.6-.97-.9-1.97-.9-2.36,0-4.12,2.01-5.3,6.03-2.45,7.44-4.74,13.98-6.86,19.62-2.13,5.64-4.37,10.47-6.73,14.49-1.99,3.33-4.15,5.69-6.46,7.05-2.31,1.37-4.82,2.05-7.54,2.05-6.25,0-10.56-3.63-12.91-10.9-1.27-3.93-2.4-8.91-3.4-14.94-1-6.03-1.68-12.54-2.04-19.55-.18-3.16-1.27-4.74-3.26-4.74-2.17,0-3.9,1.54-5.16,4.62-1.81,4.96-3.33,10.83-4.55,17.63-1.22,6.8-1.83,13.27-1.83,19.43,0,2.99.18,6.54.54,10.64.27,2.39.41,4.62.41,6.67,0,2.39-1.34,4.23-4.01,5.51-2.67,1.28-5.32,1.92-7.95,1.92-2.99,0-4.48-1.49-4.48-4.49Z"/><path class="cls-10" d="m904.55,474.63c-3.94-2.69-5.91-7.54-5.91-14.55,0-2.99.45-7.22,1.36-12.69.82-4.36,1.38-8.16,1.7-11.41.32-3.25.48-6.8.48-10.64,0-5.38-.32-10.13-.95-14.23l-2.72.38c-.73,0-1.22-.15-1.5-.45-.27-.3-.41-.88-.41-1.73,0-1.79.23-3.57.68-5.32.45-1.75,1.09-3.18,1.9-4.3,1.54-2.05,3.89-3.25,7.07-3.59,3.71-.43,8.58-.79,14.61-1.09,6.02-.3,11.21-.45,15.56-.45,8.33,0,13.27.17,14.81.51,1.27.17,2.17.54,2.72,1.09.54.56.82,1.39.82,2.5,0,2.56-.95,4.92-2.85,7.05-1.09,1.37-2.13,2.31-3.13,2.82-1,.51-2.36.73-4.08.64-6.71-.43-12.28-.64-16.72-.64-4.8,0-9.2.17-13.18.51,0,5.81-.5,12.61-1.5,20.39,8.24-.51,17.62-.77,28.13-.77,1.9,0,3.17.19,3.81.58.63.38.95,1.26.95,2.63,0,1.45-.39,3.01-1.16,4.68-.77,1.67-1.79,3.06-3.06,4.17-.63.6-1.27,1.03-1.9,1.28-.64.26-1.45.34-2.45.26-5.89-.26-12.59-.38-20.11-.38h-6.12c-.73,4.28-1.09,7.52-1.09,9.74,0,4.62,1.27,7.89,3.81,9.81,2.54,1.92,6.7,2.88,12.5,2.88,3.71,0,7.2-.32,10.46-.96s6.57-1.73,9.92-3.27c1.27-.68,2.22-1.03,2.85-1.03,1,0,1.97.66,2.92,1.99.95,1.33,1.43,2.76,1.43,4.3,0,1.88-.73,3.63-2.17,5.26-1.45,1.62-3.44,3.08-5.98,4.36-2.72,1.2-6.03,2.12-9.92,2.76-3.9.64-7.97.96-12.23.96-8.97,0-15.43-1.35-19.37-4.04Z"/><path class="cls-10" d="m1010.96,470.78c-5.48-5.26-8.22-12.84-8.22-22.76s2.85-19.62,8.56-28.59c-1.72,1.45-3.35,2.18-4.89,2.18-2.63,0-3.94-1.97-3.94-5.9,0-2.48.52-4.55,1.56-6.22,1.04-1.67,2.38-3.23,4.01-4.68,3.62-2.99,8.18-5.53,13.66-7.63,5.48-2.09,11.76-3.14,18.82-3.14,11.96,0,21.04,3.19,27.25,9.55,6.21,6.37,9.31,15.37,9.31,26.99,0,8.98-1.83,17.12-5.5,24.43-3.67,7.31-8.81,13.08-15.43,17.31-6.61,4.23-14.18,6.35-22.7,6.35-9.51,0-17.01-2.63-22.49-7.89Zm40.97-9.55c4.35-2.05,7.9-5.28,10.67-9.68,2.76-4.4,4.14-9.89,4.14-16.48,0-6.15-1.25-11.22-3.74-15.19-2.49-3.97-5.75-6.88-9.79-8.72-4.03-1.84-8.4-2.76-13.11-2.76-5.35,0-10.74,1.28-16.17,3.85-2.81,4.02-5.14,8.46-7,13.33-1.86,4.87-2.79,9.79-2.79,14.75,0,7.87,2.31,13.83,6.93,17.89,4.62,4.06,10.33,6.09,17.12,6.09,4.8,0,9.38-1.03,13.73-3.08Z"/><path class="cls-10" d="m1105.34,476.1c-1.63-1.97-2.58-5.3-2.85-10-.46-10.77-1.81-20.47-4.08-29.11-1.72-6.92-3.9-12.95-6.52-18.08-2.63-5.13-6.07-9.32-10.33-12.57-.82-.68-1.43-1.3-1.83-1.86-.41-.56-.61-1.22-.61-1.99,0-1.88,1.04-3.67,3.13-5.39,2.08-1.71,4.44-2.56,7.07-2.56,2.99,0,5.64,1.2,7.95,3.59,2.31,2.39,4.42,5.9,6.32,10.51,2.9,6.67,5.1,14.25,6.59,22.76,1.5,8.51,2.33,17.12,2.51,25.84.09,2.31.45,3.89,1.09,4.74.63.86,1.72,1.28,3.26,1.28,4.26,0,8.45-2.07,12.57-6.22,4.12-4.15,7.5-9.59,10.12-16.35,2.63-6.75,3.94-13.8,3.94-21.16,0-5.73-.82-10.3-2.45-13.72-.82-1.62-1.22-2.99-1.22-4.1,0-1.79,1.27-3.48,3.81-5.06,2.54-1.58,4.89-2.37,7.07-2.37,2.35,0,3.94,1.13,4.76,3.4.82,2.27,1.22,5.24,1.22,8.91,0,10-1.99,20.71-5.98,32.12-3.99,11.41-9.4,20.99-16.24,28.72-6.84,7.74-14.2,11.6-22.08,11.6-3.17,0-5.57-.98-7.2-2.95Z"/><path class="cls-10" d="m1174.99,474.63c-3.94-2.69-5.91-7.54-5.91-14.55,0-2.99.45-7.22,1.36-12.69.82-4.36,1.38-8.16,1.7-11.41.32-3.25.48-6.8.48-10.64,0-5.38-.32-10.13-.95-14.23l-2.72.38c-.73,0-1.22-.15-1.49-.45-.27-.3-.41-.88-.41-1.73,0-1.79.23-3.57.68-5.32.45-1.75,1.09-3.18,1.9-4.3,1.54-2.05,3.89-3.25,7.07-3.59,3.71-.43,8.58-.79,14.61-1.09,6.02-.3,11.21-.45,15.56-.45,8.33,0,13.27.17,14.81.51,1.27.17,2.17.54,2.72,1.09.54.56.82,1.39.82,2.5,0,2.56-.95,4.92-2.85,7.05-1.09,1.37-2.13,2.31-3.13,2.82-1,.51-2.36.73-4.08.64-6.71-.43-12.28-.64-16.72-.64-4.8,0-9.2.17-13.18.51,0,5.81-.5,12.61-1.49,20.39,8.24-.51,17.62-.77,28.13-.77,1.9,0,3.17.19,3.81.58.63.38.95,1.26.95,2.63,0,1.45-.39,3.01-1.16,4.68-.77,1.67-1.79,3.06-3.06,4.17-.64.6-1.27,1.03-1.9,1.28-.63.26-1.45.34-2.45.26-5.89-.26-12.59-.38-20.11-.38h-6.12c-.73,4.28-1.09,7.52-1.09,9.74,0,4.62,1.27,7.89,3.81,9.81,2.54,1.92,6.7,2.88,12.5,2.88,3.71,0,7.2-.32,10.46-.96s6.57-1.73,9.92-3.27c1.27-.68,2.22-1.03,2.85-1.03,1,0,1.97.66,2.92,1.99.95,1.33,1.43,2.76,1.43,4.3,0,1.88-.73,3.63-2.17,5.26-1.45,1.62-3.44,3.08-5.98,4.36-2.72,1.2-6.03,2.12-9.92,2.76-3.9.64-7.97.96-12.23.96-8.97,0-15.43-1.35-19.37-4.04Z"/><path class="cls-10" d="m1237.23,476.55c-1.31-1.15-1.97-3.53-1.97-7.12s.5-8.25,1.5-14.49c1.9-12.05,2.85-21.84,2.85-29.36,0-4.53-.23-8.29-.68-11.28-1.45.69-2.63,1.03-3.53,1.03-1.54,0-2.31-1.49-2.31-4.49,0-2.65.66-4.81,1.97-6.48,1.31-1.67,3.47-3.23,6.46-4.68,3.62-1.88,7.52-3.29,11.69-4.23,4.17-.94,8.24-1.41,12.23-1.41,8.51,0,15.45,2.1,20.79,6.28,5.34,4.19,8.02,9.79,8.02,16.8,0,4.7-1.22,9.02-3.67,12.95-2.45,3.93-5.57,7.14-9.38,9.62-3.81,2.48-7.79,4.1-11.96,4.87,3.44,5.04,6.7,9.1,9.79,12.18,5.17,5.04,10.42,7.56,15.77,7.56,1.45,0,2.72-.08,3.8-.26h.27c1.18,0,1.77,1.11,1.77,3.33,0,2.82-.95,5.32-2.85,7.5-1.9,2.18-4.89,3.27-8.97,3.27-6.34,0-12.21-3.38-17.6-10.13-5.39-6.75-10.08-14.53-14.07-23.34-.91-1.97-1.36-3.76-1.36-5.39,0-1.45.5-2.65,1.5-3.59.72-.68,1.74-1.15,3.06-1.41,1.31-.26,3.24-.38,5.78-.38,4.8,0,8.7-1.24,11.69-3.72,2.99-2.48,4.48-5.68,4.48-9.62s-1.63-7.18-4.89-9.23c-3.26-2.05-7.47-3.08-12.64-3.08-3.99,0-8.15.6-12.5,1.8-.27,5.56-.91,11.92-1.9,19.1-1.36,10.77-2.04,18.81-2.04,24.11,0,3.33.32,6.07.95,8.21.63,2.14,1.81,3.98,3.53,5.51,1.27,1.2,1.9,2.48,1.9,3.85,0,1.97-1.16,3.7-3.47,5.19-2.31,1.49-5.23,2.24-8.77,2.24-2.17,0-3.92-.58-5.23-1.73Z"/></g><g id="Layer_3"><path class="cls-4" d="m1469.09,637.6c45.3-143.53,141.28-162.13,174.43-292.09,8.39-32.88-8.13-58.85-7.17-58.17,9.79,6.9,101.33,124.01,101.12,266.64-.2,131-63.22,230.81-153.54,257.2-91.37,26.7-148-68.52-114.84-173.59Z"/><path class="cls-5" d="m1646.01,302.9c93.37,195.3,1.69,428.87-115.18,510.14"/><path class="cls-2" d="m1630.26,693.23c-4.6-60.84-17.32-93.45-84.88-105.74"/><path class="cls-2" d="m1663.11,613.42c-3.67-48.55-34.27-74.57-64.07-84.6"/><path class="cls-2" d="m1679.65,533.06c-2.74-36.26-25.51-64.44-50.9-63.01"/><path class="cls-2" d="m1630.56,695.31c33.28-32.52,51.77-36.49,74.22-33.37"/><path class="cls-2" d="m1662.14,614.11c19.54-26.53,39.76-35.46,56.77-36.42"/><path class="cls-2" d="m1680.54,533.61c9.97-17.38,24.46-38.18,37.74-32.01"/><path class="cls-14" d="m1522.14,816.95c-4.07,2.76-8.31,5.38-12.23,8.36-1.76,1.34-3.53,2.87-4.49,4.92-1.07,2.29-1.03,4.74.15,6.99,1.05,2.01,2.89,3.47,4.65,4.81s3.89,2.55,6.18,2.3c2.83-.31,4.37-2.41,4.82-5.07.37-2.17.9-4.31,1.59-6.4,1.53-4.58,3.92-8.95,6.92-12.74-1.57-1.21-3.14-2.42-4.71-3.64-3.26,6.44-7.62,12.15-12.85,17.11-2.81,2.66,1.44,6.9,4.24,4.24,5.57-5.28,10.31-11.48,13.79-18.33.67-1.33.46-2.95-.77-3.87-1.08-.81-3-.95-3.94.23-4.86,6.15-8.47,13.27-9.92,21.02-.08.42-.14.85-.22,1.27-.02.09-.15.61-.14.63-.01-.01.1-.15.13-.16-.02,0,.6-.27.44-.2.58-.27.2.02-.01-.08.45.2-.64-.25-.46-.17-1.44-.63-2.64-1.73-3.73-2.88-.32-.34-.76-.95-.83-1.15-.05-.15-.1-.3-.13-.46.03.13,0,.5,0-.15,0-.01.05-.51,0-.22-.04.26.17-.51.17-.51-.13.31.29-.45.37-.56.09-.13.22-.29.5-.58.47-.5,1.12-1.07,1.58-1.42,3.8-2.93,7.97-5.45,11.94-8.14,1.34-.91,1.93-2.64,1.08-4.1-.78-1.33-2.76-1.99-4.1-1.08h0Z"/><path class="cls-1" d="m1608.85,748.99s-.28-15.01-23.5-11.63c-2.31.34-4.45,3.01,3.26,4.38,10.4,1.84,15.2,10.47,15.2,10.47h0c1.71,1.49,4.57.75,4.86-1.26l.18-1.97Z"/><path class="cls-1" d="m1580.58,715.75c9.33-2.67,12.59-12,11.7-18.47-.19-1.4-.9-5.98-5.38-9.74-6.55-5.51-15.43-4.42-16.01-4.34-8.76,1.2-15.44,7.93-15.85,15.25-.37,6.54,4.4,11.09,5.76,12.3,4.34,3.83,12.15,7.19,19.77,5.01Z"/><path class="cls-3" d="m1574.76,701.95c4.01-1.14,5.41-5.14,5.02-7.92-.08-.6-.4-2.57-2.33-4.19-2.83-2.37-6.65-1.91-6.9-1.88-3.77.51-6.63,3.39-6.8,6.53-.15,2.81,1.91,4.77,2.5,5.28,1.87,1.65,5.24,3.1,8.52,2.17Z"/><path class="cls-3" d="m1567.81,716.84c2.39-.3,2.86-2.3,2.34-3.78-.11-.32-.51-1.38-1.88-2.37-2.01-1.45-4.35-1.49-4.5-1.49-2.3-.01-3.81,1.29-3.59,2.92.19,1.46,1.67,2.64,2.09,2.96,1.34,1,3.59,2.01,5.54,1.77Z"/><path class="cls-1" d="m1651.51,751.45c9.35-2.75,12.68-12.17,11.85-18.68-.18-1.41-.85-6.02-5.29-9.78-6.5-5.51-15.38-4.36-15.96-4.27-8.76,1.26-15.49,8.08-15.96,15.46-.42,6.59,4.3,11.15,5.65,12.35,4.3,3.83,12.08,7.17,19.71,4.92Z"/><path class="cls-3" d="m1645.81,737.59c4.02-1.17,5.44-5.21,5.08-8.01-.08-.61-.37-2.59-2.29-4.2-2.81-2.37-6.63-1.88-6.88-1.85-3.77.53-6.66,3.46-6.85,6.62-.17,2.83,1.87,4.79,2.45,5.31,1.86,1.65,5.21,3.09,8.49,2.13Z"/><path class="cls-3" d="m1638.74,752.63c2.39-.32,2.88-2.33,2.37-3.83-.11-.32-.49-1.38-1.85-2.37-1.99-1.45-4.33-1.48-4.48-1.48-2.3,0-3.81,1.32-3.62,2.97.18,1.47,1.65,2.65,2.07,2.97,1.33,1,3.57,2.01,5.52,1.75Z"/><path class="cls-16" d="m1506.8,800.55s-110.06-122.68,98.51-346.75c33.4-35.88,41.1-88.69,40.1-105.81-.03-.55-.93-.66-1.13-.13-5.35,13.82-32.26,82.17-46.54,96.12-27.85,27.2-100.28,119.86-113.91,158.47-9.21,26.08-53.89,130.77,22.98,198.1Z"/><g class="cls-9"><path class="cls-7" d="m1482.49,699.21c-.31,12.13-.11,24.3,1.76,36.3,1.64,10.54,4.84,20.78,9.8,30.24,3.05,5.81,6.75,11.21,10.81,16.35,1.01,1.27,3.19,1.05,4.24,0,1.26-1.26,1.01-2.97,0-4.24-6.52-8.25-11.77-17.51-15.06-27.27-3.42-10.15-4.85-20.36-5.39-30.93-.35-6.81-.33-13.64-.15-20.45.1-3.86-5.9-3.86-6,0h0Z"/></g><g class="cls-6"><path class="cls-15" d="m191.38,215.07c1.93,0,1.93-3,0-3s-1.93,3,0,3h0Z"/></g><path class="cls-4" d="m359.83,423.18c-33.74-91.84-92.25-100.43-118.07-183.88-6.53-21.11,2.21-38.64,1.66-38.16-5.57,4.85-55.24,84.52-48.63,177.44,6.07,85.34,48.47,148.05,103.93,161.92,56.1,14.03,85.8-50.08,61.1-117.32Z"/><path class="cls-5" d="m237.33,211.63c-47.22,130.67,18.48,279.47,92.38,328.11"/><path class="cls-2" d="m264.54,465.35c0-39.8,6.16-61.52,46.19-72.01"/><path class="cls-2" d="m241.18,414.56c0-31.77,17.2-49.84,34.65-57.47"/><path class="cls-2" d="m227.58,362.81c0-23.72,12.4-42.92,27.71-42.92"/><path class="cls-2" d="m264.45,466.71c-21.47-19.96-32.76-21.87-46.11-19.01"/><path class="cls-2" d="m241.79,414.97c-12.94-16.56-25.5-21.64-35.76-21.64"/><path class="cls-2" d="m227.08,363.2c-6.78-10.95-16.43-23.97-24.13-19.47"/><path class="cls-14" d="m332.81,546.31c2.32,1.49,4.66,2.95,6.96,4.47.21.14.43.29.64.44.03.02.27.17.27.2,0-.02-.43-.37-.09-.06.19.17.38.33.56.51.08.08.15.15.22.23.46.46-.2-.35-.02-.04.08.14.23.49.35.6l-.08-.18c-.1-.24-.1-.24-.02.01.01,0,.09.56.02-.01-.06-.45,0-.09-.02,0-.07.6.07-.13.04-.15.05.04-.15.38-.12.41-.06-.06.3-.54.04-.12-.08.12-.15.25-.23.38-.03.05-.25.37-.03.06s0,0-.05.05c-.1.12-.21.23-.31.35-.39.42-.82.79-1.23,1.18-.29.27.45-.25.08-.08-.09.05-.19.12-.28.17-.14.09-.53.22.14-.05-.12.05-.4.04,0,.02.64-.03,1.3.15,1.67.76.06.1.18.63.08.13-.03-.14-.07-.27-.1-.41-.58-2.49-1.44-4.88-2.54-7.18-1.26-2.63-2.9-5.02-4.77-7.25-.96-1.14-2.85-1.08-3.94-.23-1.19.92-1.5,2.55-.77,3.87,2.41,4.36,5.58,8.32,9.28,11.66,1.16,1.05,3.11,1.24,4.24,0,1.05-1.15,1.24-3.12,0-4.24-1.74-1.57-3.35-3.26-4.82-5.09-.08-.1-.16-.2-.24-.3.21.27.21.28,0,0-.15-.2-.3-.4-.45-.61-.35-.48-.68-.96-1.01-1.45-.65-.98-1.26-1.98-1.83-3.01l-4.71,3.64c.21.26.42.52.63.77-.37-.45-.09-.11-.01-.01.12.17.25.33.37.5.41.57.8,1.15,1.18,1.75.74,1.19,1.4,2.42,1.97,3.7.07.15.13.3.2.45-.25-.56-.07-.16-.02-.04.13.34.27.68.39,1.03.23.65.45,1.31.64,1.98.45,1.59.62,3.25,1.92,4.44,3.28,3,7.45-.59,9.37-3.35,1.06-1.52,1.46-3.4,1.03-5.22-.35-1.48-1.36-2.83-2.5-3.81-1.33-1.14-2.84-2.05-4.31-3-1.59-1.02-3.18-2.04-4.77-3.06-1.32-.85-3.37-.32-4.1,1.08-.79,1.49-.34,3.2,1.08,4.1h0Z"/><path class="cls-1" d="m288.14,499.15s-14.6-8.8-14.47,6.64c.01,1.38.17,3.32,3.55.17,4.56-4.25,11.01-3.13,11.01-3.13h0c1.41-.23,1.97-1.89.95-2.82l-1.04-.86Z"/><path class="cls-1" d="m263.97,493.52c1.67-5.52-2.43-10.77-6.35-12.9-.85-.46-3.65-1.93-7.27-1.28-5.3.96-7.71,5.63-7.86,5.94-2.3,4.66-.81,10.52,3.14,13.61,3.53,2.76,7.69,2.28,8.83,2.11,3.61-.56,8.14-2.97,9.51-7.48Z"/><path class="cls-3" d="m254.29,490.85c.73-2.37-1.04-4.62-2.72-5.53-.37-.2-1.57-.83-3.13-.54-2.28.42-3.32,2.42-3.39,2.56-1,2-.36,4.51,1.34,5.84,1.52,1.18,3.31.97,3.8.9,1.56-.24,3.51-1.28,4.1-3.22Z"/><path class="cls-3" d="m260.25,500.06c.64-1.26-.31-2.28-1.32-2.61-.22-.07-.94-.3-1.96-.04-1.49.39-2.31,1.49-2.36,1.56-.79,1.1-.57,2.33.41,2.88.88.49,2.04.24,2.36.17,1.01-.24,2.34-.92,2.87-1.95Z"/><path class="cls-1" d="m303.99,474.71c1.64-5.56-2.49-10.88-6.41-13.06-.85-.47-3.65-1.97-7.26-1.34-5.28.93-7.66,5.63-7.81,5.94-2.27,4.69-.74,10.61,3.22,13.75,3.54,2.81,7.69,2.35,8.82,2.18,3.6-.54,8.1-2.94,9.44-7.48Z"/><path class="cls-3" d="m294.31,471.96c.71-2.39-1.06-4.67-2.75-5.6-.37-.2-1.57-.84-3.12-.57-2.28.4-3.3,2.42-3.37,2.56-.98,2.01-.33,4.55,1.37,5.9,1.52,1.2,3.31,1,3.8.93,1.55-.24,3.49-1.27,4.07-3.22Z"/><path class="cls-3" d="m300.32,481.29c.64-1.27-.33-2.3-1.33-2.65-.22-.08-.94-.31-1.96-.05-1.49.38-2.3,1.49-2.35,1.56-.78,1.1-.56,2.35.43,2.9.88.5,2.04.26,2.36.18,1.01-.24,2.33-.91,2.85-1.95Z"/><g class="cls-9"><path class="cls-7" d="m343.22,454.93c3.12,8.43,4.17,17.27,3.82,26.23-.28,7.09-1.03,13.76-2.83,20.62-.46,1.74-.99,3.46-1.65,5.13-.22.56-.08.21-.03.09-.09.22-.19.43-.29.64-.17.37-.35.73-.54,1.09-.35.66-.74,1.29-1.17,1.89-.95,1.32-.23,3.34,1.08,4.1,1.51.88,3.16.24,4.1-1.08,1.84-2.56,2.96-5.67,3.85-8.68,1.06-3.58,1.75-7.26,2.28-10.95,1.13-7.84,1.69-15.83.94-23.73-.55-5.8-1.75-11.49-3.77-16.95-.56-1.52-2.03-2.55-3.69-2.1-1.46.4-2.66,2.16-2.1,3.69h0Z"/></g><path class="cls-16" d="m351.63,522.87s37.7-78.04-82.94-212.39c-15.58-17.35-27.19-36.66-30.56-64.03-1.03-8.33-.03-37.29-.03-24.33,0,17,30.34,74.47,38,81,17.32,14.77,58.96,68.78,69.59,92.22,7.18,15.84,40.03,78.79,5.93,127.52Z"/><path class="cls-4" d="m236.28,780.88c9.33-23.25,80.24-114.63,83.33-136.25,3-21-1.86-28.85-1.47-28.49,3.91,3.6,33.47,43.49,34.2,131.65.66,79.84-38.73,121.84-73.09,120.14-40.75-2.02-62.65-38.02-42.97-87.04Z"/><path class="cls-5" d="m321.72,623.92c33.2,96.95-12.99,207.35-64.96,243.45"/><path class="cls-2" d="m302.59,812.17c0-29.53-4.33-45.65-32.48-53.43"/><path class="cls-2" d="m319.02,774.49c0-23.57-12.1-36.98-24.37-42.64"/><path class="cls-2" d="m328.58,736.09c0-17.6-8.72-31.85-19.49-31.85"/><path class="cls-2" d="m302.65,813.18c15.1-14.81,23.04-16.23,32.42-14.1"/><path class="cls-2" d="m318.59,774.79c9.1-12.29,17.93-16.05,25.15-16.05"/><path class="cls-2" d="m328.93,736.38c4.77-8.13,11.55-17.79,16.97-14.44"/><path class="cls-14" d="m252,867.72c-2.02,1.37-4.12,2.67-6.04,4.18-.85.67-1.65,1.51-2.09,2.51-.73,1.65-.71,3.24.03,4.89.47,1.05,1.32,1.99,2.17,2.76,1.29,1.17,2.91,1.92,4.67,1.43.96-.27,1.79-.97,2.27-1.83.36-.63.49-1.3.65-1.99.23-.98.53-1.95.89-2.89.04-.11.09-.23.13-.34.17-.43.06-.11-.06.12.14-.27.25-.56.38-.84.24-.5.49-.99.77-1.47s.56-.95.87-1.41c.17-.26.35-.51.53-.76.07-.1.15-.2.22-.3.34-.46-.4.51-.02.02l-4.71-3.64c-.79,1.5-1.7,2.91-2.69,4.28-.4.54.43-.53.01-.01-.14.17-.27.34-.41.51-.26.31-.52.62-.79.93-.58.66-1.2,1.28-1.83,1.89-1.14,1.09-1.17,3.16,0,4.24s3.03,1.16,4.24,0c2.67-2.54,4.95-5.54,6.66-8.81.7-1.33.44-2.93-.77-3.87-1.07-.83-3.01-.94-3.94.23-1.43,1.8-2.68,3.69-3.61,5.8-.49,1.11-.94,2.23-1.29,3.39-.15.5-.28,1-.4,1.51-.05.24-.14.49-.17.74-.05.15-.02.1.07-.14.04-.16.12-.29.24-.4.15-.22.35-.37.62-.45.53-.24.65-.32.33-.24l.8-.11c-.1.01-.19.01-.29,0l.8.11c-.52-.11.57.38.13.09-.1-.05-.19-.11-.28-.18l.34.26c-.05-.11-.27-.25-.36-.34-.15-.14-.29-.29-.43-.44-.12-.13-.23-.27-.35-.4-.19-.22.41.61.06.05-.06-.1-.33-.66-.12-.17s0-.16-.03-.28l.11.8c-.02-.22-.02-.42,0-.64l-.11.8c.02-.12.11-.31.1-.44-.22.48-.26.58-.13.3l.07-.13c.05-.09.11-.17.17-.26l-.28.36c.05-.12.23-.25.32-.35.12-.11.24-.22.36-.33.08-.07.17-.14.25-.21l-.35.27c.27-.25.63-.45.93-.65l4.37-2.96c1.3-.88,1.99-2.68,1.08-4.1-.83-1.29-2.71-2.02-4.1-1.08h0Z"/><path class="cls-1" d="m288.62,838.36s.99-7.73-6.74-4.49c-.66.27-1.41.98.86,1.59,3.07.83,4.28,3.94,4.28,3.94h0c.47.55,1.35.34,1.49-.36l.1-.69Z"/><path class="cls-1" d="m279.68,822.74c4.96-1.31,7.03-6.91,6.82-10.9-.05-.87-.23-3.69-2.41-6.15-3.19-3.6-7.86-3.24-8.16-3.21-4.6.43-8.35,4.32-8.85,8.78-.45,3.99,1.85,6.94,2.52,7.72,2.11,2.5,6.04,4.82,10.09,3.75Z"/><path class="cls-3" d="m277.2,814.1c2.13-.56,3.02-2.96,2.92-4.67-.02-.37-.1-1.59-1.05-2.64-1.38-1.55-3.39-1.4-3.52-1.39-1.98.18-3.59,1.85-3.8,3.76-.19,1.71.81,2.98,1.09,3.32.91,1.07,2.6,2.08,4.35,1.62Z"/><path class="cls-3" d="m272.99,822.97c1.26-.1,1.58-1.31,1.37-2.23-.05-.2-.21-.86-.88-1.51-.99-.96-2.2-1.06-2.28-1.07-1.2-.09-2.03.66-1.99,1.66.04.9.77,1.67.97,1.88.66.66,1.79,1.36,2.81,1.27Z"/><path class="cls-1" d="m310.2,842.04c4.97-1.36,7.08-7.01,6.9-11.02-.04-.87-.21-3.71-2.37-6.17-3.17-3.6-7.83-3.2-8.14-3.17-4.61.47-8.38,4.41-8.92,8.91-.48,4.02,1.8,6.97,2.46,7.75,2.09,2.5,6,4.81,10.06,3.69Z"/><path class="cls-3" d="m307.78,833.36c2.14-.58,3.04-3,2.96-4.73-.02-.37-.09-1.6-1.03-2.65-1.37-1.55-3.37-1.38-3.51-1.37-1.98.2-3.6,1.88-3.83,3.82-.2,1.72.78,3,1.07,3.33.9,1.07,2.59,2.07,4.34,1.6Z"/><path class="cls-3" d="m303.5,842.32c1.26-.11,1.59-1.33,1.38-2.26-.04-.2-.2-.86-.87-1.52-.98-.96-2.2-1.05-2.28-1.06-1.2-.08-2.04.68-2,1.69.03.91.75,1.68.96,1.89.65.66,1.78,1.35,2.8,1.26Z"/><g class="cls-9"><path class="cls-7" d="m251.7,847.54c-.77-.9-1.04-1.25-1.76-2.37-.61-.95-1.14-1.93-1.6-2.96-.11-.24-.12-.26-.03-.06-.06-.13-.11-.27-.16-.4-.11-.28-.21-.55-.31-.83-.2-.58-.38-1.16-.54-1.75-.31-1.14-.6-2.64-.72-3.56-.96-7.6.29-15.43,1.7-22.89.23-1.19-.33-2.43-1.57-2.77-1.1-.3-2.54.37-2.77,1.57-2.04,10.77-4.23,23.44.87,33.72.98,1.98,2.28,3.78,3.71,5.46.79.93,2.37.81,3.18,0,.92-.92.79-2.25,0-3.18h0Z"/></g><path class="cls-16" d="m241.11,849.13c.36-3.47-14.08-45.08,23-97,15-21,55.08-91.23,57-97,1-3,3.49-14.72,1.28-21.93-.07-.21-1.42-6.43-1.4-6.14,1.61,18.17-11.16,39.24-17.29,48.49-13.16,19.83-47.94,74.33-60.44,92.64-8.15,11.94-25.15,51.94-2.15,80.94Z"/></g></svg>