<?xml version="1.0" encoding="UTF-8"?><svg xmlns="http://www.w3.org/2000/svg" width="1920" height="1080" viewBox="0 0 1920 1080"><defs><style>.cls-1,.cls-2,.cls-3,.cls-4,.cls-5,.cls-6,.cls-7,.cls-8{stroke:#000;stroke-miterlimit:10;}.cls-1,.cls-7,.cls-8{stroke-width:3px;}.cls-2{fill:#ffd7f2;}.cls-2,.cls-3,.cls-4,.cls-5,.cls-6{stroke-width:2px;}.cls-3,.cls-9{fill:#fff;}.cls-10{opacity:.5;}.cls-10,.cls-11,.cls-12,.cls-13,.cls-14,.cls-15,.cls-16,.cls-9,.cls-17{stroke-width:0px;}.cls-4{fill:#0d0019;}.cls-11{fill:#5f0053;opacity:.4;}.cls-5{fill:none;}.cls-18{opacity:.9;}.cls-19{opacity:.8;}.cls-20{opacity:.7;}.cls-7{fill:#494b49;}.cls-8{fill:#3f413f;}.cls-13{fill:#29abe2;}.cls-14{fill:#1b1464;}.cls-15{fill:#ddd1ff;}.cls-16{fill:#7dd0ff;}.cls-17{opacity:.2;}</style></defs><g id="Layer_1"><g class="cls-18"><rect class="cls-13" x="-16.5" y="-18.5" width="1955" height="1130"/><path class="cls-12" d="m1938-18v1129H-16V-18h1954m1-1H-17v1131h1956V-19h0Z"/></g><g class="cls-19"><path class="cls-7" d="m1497.92,109.59s-2.68-7.21-2.68-28.82c0-21.62,49.51-28.82,49.51-28.82,0,0,14.72-1.44,24.08,47.56,0,0-60.21,7.21-70.91,10.09Z"/><path class="cls-8" d="m1751.91,139.63s-.45-14.38,11.33-16.13h16.32l-9.85,23.42-17.8-7.29Z"/><path class="cls-8" d="m1424.97,150s-86.19,36.66,0,82.6c86.19,45.94,312.92-32.24,312.92-32.24,0,0,45.12-11.93,77.59-16.56,32.47-4.64,33.79-77.52,33.79-77.52,0,0,1.33-21.2-33.15-11.93-34.47,9.28-45.08,53.01-45.08,53.01,0,0-196.24-72.89-279.77-43.73,0,0-22.54,3.98-35.8,19.88-13.26,15.9-6.63,25.18-30.5,26.5Z"/><path class="cls-8" d="m1586.57,187.38c6.37-11.66,21.38-29.42,86.35-18.82,2.34.38,5.58,1.7,9.28,2.65,7.14,1.83,47.98,44.94,119.22,62.34,5.02,1.23,6.14,7.91,1.77,10.66-6.69,4.2-21.49,9.32-52.9,14.32-6.42,1.02-12.98.75-19.28-.82-24.93-6.19-93.24-24.65-138.95-51.16-6.68-3.88-9.19-12.4-5.49-19.17Z"/><path class="cls-1" d="m1430.27,151.33s39.78,39.31,0,82.6c0,0-43.83-15.9-43.79-41.3.04-25.4,43.79-41.3,43.79-41.3Z"/><path class="cls-1" d="m1445.35,157.71c5.27,8.66,17.9,22.92,43.06,20.51,11.18-1.07,19.93-10.54,19.38-21.76-.55-11.28-7.74-24.98-35.3-33-3.59-1.05-13.22-3.61-15.7.04-2.71,4.01-7,10.14-14.59,21.2-2.35,3.42.99,9.47,3.14,13.01Z"/><path class="cls-12" d="m1458.12,177.83s36.46,27.17,57.68-3.31c9.87-14.18,2.65-49.03-31.82-51.68-1.33,0,31.3,4.99,29.36,37.82-.72,12.17-9.76,22.48-21.85,24.12-7.96,1.08-18.78-.32-33.37-6.94Z"/><path class="cls-12" d="m1548.94,144.04c-6.68.36-12.11,4.9-13.26,10.6-1.57,7.75,5.12,15.88,13.26,15.9,6.51.02,12.64-5.16,13.26-11.93.66-7.27-5.25-14.18-13.26-14.58Z"/><path class="cls-12" d="m1582.09,142.72c-5.87.33-10.61,5.89-10.61,11.93,0,5.79,4.36,11.56,10.61,11.93,6.32.37,11.34-4.97,11.93-10.6.72-6.83-5.12-13.63-11.93-13.25Z"/><path class="cls-12" d="m1612.59,140.06c-6.01.03-10.88,5.92-10.61,11.93.22,4.91,3.88,9.92,9.28,10.6,5.84.74,11.02-3.93,11.93-9.28,1.1-6.45-4.11-13.29-10.61-13.25Z"/><path class="cls-9" d="m1547.85,149.43s-1.21-.31-2.57.05c-1.52.41-3.22,1.66-3.59,5.16,0,0,.94,2.65,4.76,0s2.96-5.12,1.4-5.21Z"/><path class="cls-9" d="m1579.67,146.82s-1-.31-2.12.05c-1.26.4-2.66,1.65-2.96,5.13,0,0,.78,2.63,3.93,0,3.15-2.63,2.44-5.09,1.16-5.18Z"/><path class="cls-9" d="m1611.25,144.12s-1.21-.31-2.57.05c-1.52.41-3.22,1.66-3.59,5.16,0,0,.94,2.65,4.76,0s2.96-5.12,1.4-5.21Z"/><path class="cls-9" d="m1451.94,152.36c-1.25,1.42-3.46,1.5-3.77-.37-1-6.07.3-12.53,3.98-17.23,5.71-7.29,7.96-7.95,7.96-7.95,0,0,1.33-1.33,5.71-1.02,1.94.13,3.18,2.04,2.14,3.67-3.73,5.85-11.56,17.87-16.01,22.9Z"/><path class="cls-9" d="m1456.87,155.56l-.48-2.12c-.09-.4-.02-.81.21-1.16l13.49-20.71c.18-.28.45-.51.78-.62.81-.29,2.46-.68,4.08.2.79.43.98,1.45.48,2.18l-15.62,22.76c-.79,1.15-2.63.82-2.93-.52Z"/><path class="cls-9" d="m1395.66,187.77s-.73-18.74,20.45-26.52c1.24-.46,2.65-.44,3.83.14,1.45.71,2.72,2.25.38,5.17-5.3,6.63-5.58-3.98-24.67,21.2Z"/><path class="cls-9" d="m1490.6,142.72s-1.33-5.3,3.98-2.65c2.86,1.43,4.07,3.71,4.57,5.51.42,1.48-.84,2.9-2.35,2.6-2.02-.41-4.69-1.69-6.2-5.46Z"/><path class="cls-8" d="m1769.05,175.84s-3.3-7.82,6.97-10.54c10.27-2.72,40.56,0,40.56,0,0,0,36,23.79,32.03,41.01,0,0-18.56,5.3-41.1,1.33l-38.45-31.8Z"/></g></g><g id="Layer_2"><path class="cls-2" d="m378.93,834.25s45.05-342.09-78.85-359.65c-124.77-17.69-211.26,298.04-211.26,298.04,0,0-48.88,111.1,114.97,144.74,176.71,36.28,175.14-83.13,175.14-83.13Zm-49.17-169.46c-.39.66-1.05,1.37-1.28,2.09-.55,1.76-1.89,3.15-3.61,3.71-1.5,1.51-3.33,2.82-5.58,3.85-8.99,4.11-18.81,2.06-28.34,3.22-.86.1-1.62.03-2.27-.17-1.18.74-2.69,1.04-4.24.9-3.21-.28-6.43-.33-9.64-.62-2.94-.27-5.83-1-8.77-1.19-.76-.05-1.49-.2-2.17-.45-.64.1-1.33.09-2.09-.07-6.84-1.43-13.73-3.1-20.34-5.3-6.32-2.1-11.78-5.8-17.95-8.23-1.12-.44-1.88-1.09-2.35-1.83-.81-.14-1.6-.48-2.31-1.02-.55-.22-1.09-.55-1.61-1.01-3.87-3.42-7.71-7.19-8.64-12.32-.82-4.54-.28-9.3,2.81-12.98.15-.18.31-.31.47-.46,0-.39.05-.8.15-1.23,1.25-5.1,4.29-9.36,6.08-14.25,1.62-4.41,2.42-8.35,5.2-12.21.02-1.28.53-2.58,1.36-3.62-.67.84.33-.72.43-.93.24-.51.45-1.04.66-1.57.44-1.12.87-2.24,1.46-3.3.17-.3.37-.56.59-.81.83-2.2,2.04-4.24,3.29-6.27,1.9-4.37,4.03-8.64,6.64-12.7,1-1.96,2.04-3.89,3.19-5.81,2.68-4.47,5.29-8.97,8.03-13.42,1.01-1.64,1.95-3.31,3.14-4.84.07-.09.15-.16.22-.25,2.43-3.76,5.08-7.39,7.98-10.85,5.94-7.07,13.93-15.14,23.17-18.18,1.19-.39,2.34-.65,3.45-.82,15.02-5.64,25.21,15.6,28.7,25.8,5.3,15.49,9.7,32.3,10.73,48.63,2.35,6.55,2.11,13.68,2.75,20.51.75,8.02,1.76,16.18,1.48,24.24,0,.05-.01.1-.01.15.4,1.26.59,2.58.55,3.93-.03.99-.15,1.97-.18,2.95-.01.35,0,.71,0,1.06,0,.19-.01.3-.02.37.03.05.08.17.15.39.37,1.19.3,2.26-.07,3.18.06.25.12.51.15.79.23,2.2.36,4.42.12,6.62-.17,1.51-.7,2.97-1.48,4.3Z"/><path class="cls-6" d="m189.39,791.56c12.06-7.63,11.54-23,6.6-32.45-1.07-2.05-4.68-8.71-13.3-12.68-12.63-5.82-24.92-.76-25.72-.42-12.05,5.18-17.97,17.93-14.44,29.17,3.15,10.03,12.65,15.1,15.3,16.4,8.47,4.13,21.71,6.22,31.55-.01Z"/><path class="cls-3" d="m173.16,772.92c5.19-3.27,4.96-9.85,2.83-13.91-.46-.88-2.02-3.74-5.74-5.44-5.45-2.5-10.74-.34-11.08-.19-5.19,2.22-7.73,7.68-6.21,12.5,1.36,4.3,5.46,6.48,6.6,7.04,3.65,1.78,9.36,2.68,13.6,0Z"/><path class="cls-3" d="m171.44,798.12c3.31-1.38,2.86-4.57,1.27-6.62-.35-.44-1.51-1.89-4.06-2.86-3.73-1.43-7.16-.59-7.38-.53-3.35.87-4.8,3.41-3.58,5.81,1.1,2.14,3.92,3.36,4.71,3.67,2.51,1.01,6.35,1.67,9.05.55Z"/><path class="cls-6" d="m318.88,818.04c12.06-7.63,11.54-23,6.6-32.45-1.07-2.05-4.68-8.71-13.3-12.68-12.63-5.82-24.92-.76-25.72-.42-12.05,5.18-17.97,17.93-14.44,29.17,3.15,10.03,12.65,15.1,15.3,16.4,8.47,4.13,21.71,6.22,31.55-.01Z"/><path class="cls-3" d="m302.65,799.4c5.19-3.27,4.96-9.85,2.83-13.91-.46-.88-2.02-3.74-5.74-5.44-5.45-2.5-10.74-.34-11.08-.19-5.19,2.22-7.73,7.68-6.21,12.5,1.36,4.3,5.46,6.48,6.6,7.04,3.65,1.78,9.36,2.68,13.6,0Z"/><path class="cls-3" d="m300.93,824.6c3.31-1.38,2.86-4.57,1.27-6.62-.35-.44-1.51-1.89-4.06-2.86-3.73-1.43-7.16-.59-7.38-.53-3.35.87-4.8,3.41-3.58,5.81,1.1,2.14,3.92,3.36,4.71,3.67,2.51,1.01,6.35,1.67,9.05.55Z"/><path class="cls-3" d="m332.26,659.68c-8.98-233.02-84.78-126.04-123.81-21.74-13.12,40.12,125.18,57.19,123.81,21.74Zm-2.49,5.11c-.39.66-1.05,1.37-1.28,2.09-.55,1.76-1.89,3.15-3.61,3.71-1.5,1.51-3.33,2.82-5.58,3.85-8.99,4.11-18.81,2.06-28.34,3.22-.86.1-1.62.03-2.27-.17-1.18.74-2.69,1.04-4.24.9-3.21-.28-6.43-.33-9.64-.62-2.94-.27-5.83-1-8.77-1.19-.76-.05-1.49-.2-2.17-.45-.64.1-1.33.09-2.09-.07-6.84-1.43-13.73-3.1-20.34-5.3-6.32-2.1-11.78-5.8-17.95-8.23-1.12-.44-1.88-1.09-2.35-1.83-.81-.14-1.6-.48-2.31-1.02-.55-.22-1.09-.55-1.61-1.01-3.87-3.42-7.71-7.19-8.64-12.32-.82-4.54-.28-9.3,2.81-12.98.15-.18.31-.31.47-.46,0-.39.05-.8.15-1.23,1.25-5.1,4.29-9.36,6.08-14.25,1.62-4.41,2.42-8.35,5.2-12.21.02-1.28.53-2.58,1.36-3.62-.67.84.33-.72.43-.93.24-.51.45-1.04.66-1.57.44-1.12.87-2.24,1.46-3.3.17-.3.37-.56.59-.81.83-2.2,2.04-4.24,3.29-6.27,1.9-4.37,4.03-8.64,6.64-12.7,1-1.96,2.04-3.89,3.19-5.81,2.68-4.47,5.29-8.97,8.03-13.42,1.01-1.64,1.95-3.31,3.14-4.84.07-.09.15-.16.22-.25,2.43-3.76,5.08-7.39,7.98-10.85,5.94-7.07,13.93-15.14,23.17-18.18,1.19-.39,2.34-.65,3.45-.82,15.02-5.64,25.21,15.6,28.7,25.8,5.3,15.49,9.7,32.3,10.73,48.63,2.35,6.55,2.11,13.68,2.75,20.51.75,8.02,1.76,16.18,1.48,24.24,0,.05-.01.1-.01.15.4,1.26.59,2.58.55,3.93-.03.99-.15,1.97-.18,2.95-.01.35,0,.71,0,1.06,0,.19-.01.3-.02.37.03.05.08.17.15.39.37,1.19.3,2.26-.07,3.18.06.25.12.51.15.79.23,2.2.36,4.42.12,6.62-.17,1.51-.7,2.97-1.48,4.3Z"/><path class="cls-12" d="m218.04,803.25c-1.53,18.87,23.6,24.07,28.33,5.29"/><g class="cls-20"><path class="cls-9" d="m227.23,521.2c3.64-3.34,6.62-7.33,10.32-10.6s7.25-5.84,11.52-8.78,8.27-5.54,12.68-7.84c.79-.41,1.62-.75,2.4-1.16.19-.1-.61.23-.05.02.17-.06.33-.13.5-.19.5-.18,1-.36,1.51-.52,2.5-.83,5.05-1.51,7.62-2.09,3.41-.77,6.71-1.35,10.12-1.63,1.71-.14,3.44-.21,5.15-.17.81.02,1.63.06,2.44.14.15.01,1.02.12.7.07.43.06.85.14,1.27.23,1.59.32,3.24-.46,3.69-2.1.41-1.48-.5-3.37-2.1-3.69-6.47-1.3-13.22-.53-19.64.68-4.99.94-10.12,2.16-14.76,4.29-4.35,2-8.42,4.65-12.39,7.3-4.59,3.06-9.09,6.31-13.33,9.84s-7.72,8.12-11.88,11.93c-1.19,1.1-1.11,3.13,0,4.24,1.19,1.19,3.05,1.1,4.24,0h0Z"/></g><path class="cls-17" d="m85.08,786.38c.23-.99,1.12-.86,1.04.22-1.5,22.69,8.69,84.32,122.15,110.99,124.06,29.15,161.39-37.87,168.06-54.54.37-.92,1.91-.54,2.09.44l-1.84,7.91c-1.27.77,0,0,0,0-.81-1.21-7.58,98.75-170.51,65.88-137.63-27.77-127.06-104.87-120.99-130.89Z"/><path class="cls-11" d="m302.78,526.48c-32.48-1.6-58.55,51.54-85.21,133.07-6.02-6.08-9.03-9.17-8.99-13.21.18-17.51,55.51-155.93,94.2-119.86Z"/><path class="cls-15" d="m1621.14,976.53c-3.03,0-4.59-.23-5.38-.43l-.12-.03h-.12c-2.43,0-4.62-1.38-5.71-3.59l-95.49-193.61c-.99-2-.88-4.32.28-6.2,1.17-1.89,3.21-3.02,5.44-3.02h.25c2.65.1,5.32.15,7.93.15h.01c82.71,0,128.13-47.39,143.83-67.76,1.14-1.48,2.85-2.32,4.71-2.32,2.41,0,4.53,1.37,5.52,3.57,5.85,12.94,12.04,26.69,18.43,40.89,22.62,50.23,48.25,107.17,70.1,153.58.92,1.96-1.9,6.88-4.3,9.68-44.67,52.22-117.23,69.11-145.38,69.11h0Z"/><path class="cls-12" d="m1676.77,700.71c2.02,0,3.78,1.14,4.61,2.98,5.85,12.96,12.05,26.72,18.45,40.94,22.61,50.22,48.23,107.14,70.08,153.54.56,1.2-1.53,5.54-4.15,8.61-25.42,29.72-58.3,46.32-81.41,55-25.27,9.5-49.96,13.75-63.22,13.75-3.08,0-4.54-.25-5.13-.4l-.24-.06h-.25c-2.05,0-3.89-1.16-4.81-3.04l-95.5-193.61c-.85-1.72-.76-3.62.24-5.23.99-1.59,2.71-2.55,4.6-2.55.07,0,.14,0,.21,0,2.66.1,5.35.14,7.98.14,83.15,0,128.84-47.66,144.62-68.16.96-1.25,2.35-1.93,3.91-1.93m0-2c-2.04,0-4.08.88-5.5,2.71-15.95,20.71-61.01,67.38-143.04,67.38-2.6,0-5.23-.05-7.91-.14-.09,0-.19,0-.28,0-5.45,0-9.08,5.68-6.63,10.66l95.49,193.61c1.25,2.53,3.8,4.15,6.6,4.15,1.18.3,3.09.46,5.62.46,23.15,0,98.59-13.87,146.15-69.46,1.98-2.32,5.74-8,4.44-10.76-27.97-59.4-61.81-135.32-88.52-194.45-1.22-2.71-3.82-4.15-6.44-4.15h0Z"/><path class="cls-4" d="m1618.31,686.58s11.24,48.12-64.77,79.74c0,0,84.62-7.28,123.66-73.36-7.65-14.77-33.62-17.69-58.89-6.39"/><path class="cls-12" d="m1597.46,861.13c-3.59,0-8.82-.72-13.34-4.15-7.88-5.98-10.16-17.16-5.3-26.01.22-.39,5.4-9.66,16.25-11.66,1.31-.24,2.65-.36,3.97-.36,3.61,0,7.16.89,10.55,2.65,8.42,4.37,15.44,14.46,11.88,24.57-2.96,8.4-12.04,13.4-19.74,14.63-1.38.22-2.82.33-4.27.33h0Z"/><path class="cls-12" d="m1599.04,819.95c3.45,0,6.84.85,10.09,2.54,3.97,2.06,7.65,5.61,9.86,9.5,1.81,3.18,3.54,8.16,1.54,13.85-2.82,8.01-11.55,12.79-18.95,13.98-1.33.21-2.72.32-4.11.32-3.44,0-8.44-.68-12.73-3.94-7.49-5.68-9.65-16.32-5.03-24.74.21-.38,5.18-9.24,15.56-11.16,1.25-.23,2.53-.35,3.79-.35m0-2c-1.31,0-2.7.11-4.15.38-11.2,2.07-16.6,11.54-16.95,12.16-5.18,9.44-2.48,21.18,5.57,27.29,4.71,3.58,10.11,4.35,13.94,4.35,2.02,0,3.61-.21,4.43-.35,7.63-1.22,17.32-6.18,20.52-15.29,3.93-11.15-4.3-21.6-12.36-25.79-1.42-.74-5.46-2.77-11.01-2.77h0Z"/><path class="cls-9" d="m1588.01,848.68c-1.45,0-3.56-.29-5.37-1.65-3.16-2.39-4.07-6.87-2.1-10.42.09-.16,2.21-3.92,6.62-4.73.54-.1,1.08-.15,1.63-.15,1.46,0,2.89.36,4.26,1.06,2.71,1.4,6.42,5.31,4.82,9.83-1.2,3.39-4.92,5.42-8.07,5.93-.57.09-1.17.14-1.77.14Z"/><path class="cls-12" d="m1588.78,832.72c1.3,0,2.57.32,3.8.95,2.59,1.34,5.65,4.89,4.33,8.6-1.07,3-4.43,4.81-7.29,5.27-.51.08-1.07.13-1.62.13-1.3,0-3.18-.25-4.77-1.45-2.77-2.09-3.55-6.02-1.83-9.14.02-.03,1.98-3.5,5.92-4.23.48-.09.96-.13,1.44-.13m0-2c-.57,0-1.17.05-1.81.17-4.83.9-7.16,4.96-7.31,5.23-2.24,4.06-1.09,9.09,2.38,11.71,2.02,1.52,4.33,1.85,5.97,1.85.88,0,1.58-.09,1.93-.15,3.29-.53,7.46-2.67,8.85-6.58,1.7-4.79-1.83-9.26-5.3-11.05-.61-.31-2.34-1.18-4.72-1.18h0Z"/><path class="cls-9" d="m1603.86,864.32c-.95,0-1.75-.17-2.38-.5-.77-.41-1.27-1.04-1.44-1.83-.21-1,.12-2.14.94-3.19.07-.09,1.77-2.25,4.81-3.03.66-.17,1.32-.26,1.96-.26.99,0,1.66.21,1.88.28,1.21.38,2.19,1.19,2.56,2.11.3.75.21,1.55-.27,2.39-1.07,1.89-3.71,3.25-5.85,3.76-.52.12-1.33.27-2.21.27h0Z"/><path class="cls-12" d="m1607.76,856.01c.91,0,1.53.19,1.73.26,1.07.33,1.93,1.03,2.24,1.82.24.6.16,1.26-.24,1.95-.99,1.75-3.49,3.03-5.53,3.52-.4.1-1.21.26-2.1.26s-1.59-.15-2.15-.45c-.63-.34-1.04-.85-1.18-1.49-.18-.86.12-1.84.85-2.78.07-.09,1.67-2.11,4.54-2.85.62-.16,1.24-.24,1.83-.24m0-1c-.59,0-1.29.07-2.08.27-3.16.81-4.96,3.06-5.08,3.2-1.74,2.23-1.37,4.7.65,5.77.81.43,1.76.56,2.62.56,1.05,0,1.96-.2,2.33-.29,2.15-.52,4.98-1.91,6.17-4,1.45-2.56-.48-4.57-2.58-5.22-.29-.09-1-.3-2.03-.3h0Z"/><path class="cls-12" d="m1673.31,825.12c-3.59,0-8.82-.72-13.34-4.15-7.88-5.98-10.16-17.16-5.3-26.02.22-.39,5.42-9.66,16.25-11.66,1.31-.24,2.65-.37,3.97-.37,3.61,0,7.16.89,10.55,2.65,8.42,4.37,15.44,14.46,11.88,24.57-2.96,8.4-12.04,13.4-19.74,14.63-1.38.22-2.82.33-4.27.33h0Z"/><path class="cls-12" d="m1674.9,783.93c3.45,0,6.84.85,10.09,2.54,3.97,2.06,7.65,5.61,9.86,9.5,1.81,3.18,3.54,8.16,1.54,13.85-2.82,8.01-11.55,12.79-18.95,13.98-1.33.21-2.72.32-4.11.32-3.44,0-8.44-.68-12.73-3.94-7.49-5.68-9.65-16.32-5.03-24.74.21-.38,5.18-9.24,15.56-11.16,1.25-.23,2.53-.35,3.79-.35m0-2c-1.31,0-2.7.11-4.15.38-11.2,2.07-16.6,11.54-16.95,12.16-5.18,9.44-2.48,21.18,5.57,27.29,4.71,3.58,10.11,4.35,13.94,4.35,2.02,0,3.61-.21,4.43-.35,7.63-1.22,17.32-6.18,20.52-15.29,3.93-11.15-4.3-21.6-12.36-25.79-1.42-.74-5.46-2.77-11.01-2.77h0Z"/><path class="cls-9" d="m1665.61,811.88c-1.45,0-3.56-.29-5.37-1.65-3.16-2.39-4.07-6.87-2.1-10.42.09-.16,2.21-3.92,6.62-4.73.54-.1,1.09-.15,1.63-.15,1.46,0,2.89.36,4.26,1.07,2.72,1.4,6.42,5.31,4.82,9.83-1.2,3.39-4.92,5.42-8.07,5.93-.57.09-1.17.14-1.77.14Z"/><path class="cls-12" d="m1666.38,795.92c1.29,0,2.57.32,3.8.95,2.59,1.34,5.65,4.89,4.33,8.6-1.07,3-4.43,4.81-7.29,5.27-.51.08-1.07.13-1.62.13-1.3,0-3.18-.25-4.77-1.45-2.77-2.09-3.55-6.02-1.83-9.14.02-.03,1.98-3.5,5.92-4.23.48-.09.96-.13,1.44-.13m0-2c-.57,0-1.17.05-1.81.17-4.83.9-7.16,4.96-7.31,5.23-2.24,4.06-1.09,9.09,2.38,11.71,2.02,1.52,4.33,1.85,5.97,1.85.88,0,1.58-.09,1.93-.15,3.29-.53,7.46-2.67,8.85-6.58,1.7-4.79-1.83-9.26-5.3-11.05-.61-.31-2.34-1.18-4.72-1.18h0Z"/><path class="cls-9" d="m1679.72,828.31c-.95,0-1.75-.17-2.38-.5-.77-.41-1.27-1.04-1.43-1.83-.21-1,.12-2.14.94-3.19.07-.09,1.79-2.25,4.81-3.03.66-.17,1.32-.26,1.96-.26.99,0,1.66.21,1.88.28,1.21.38,2.19,1.19,2.56,2.11.29.75.2,1.55-.27,2.38-1.07,1.89-3.71,3.25-5.85,3.76-.42.1-1.27.27-2.21.27h0Z"/><path class="cls-12" d="m1683.61,819.99c.91,0,1.53.19,1.73.26,1.07.33,1.93,1.03,2.24,1.82.24.6.16,1.26-.24,1.95-.99,1.76-3.49,3.03-5.53,3.52-.4.1-1.21.26-2.1.26s-1.59-.15-2.15-.45c-.63-.34-1.04-.85-1.18-1.49-.18-.86.12-1.84.85-2.78.07-.09,1.67-2.11,4.54-2.85.62-.16,1.24-.24,1.83-.24m0-1c-.59,0-1.29.07-2.08.27-3.16.81-4.96,3.06-5.08,3.2-1.74,2.23-1.37,4.7.65,5.77.81.43,1.76.56,2.62.56,1.05,0,1.96-.2,2.33-.29,2.15-.52,4.98-1.91,6.17-4,1.45-2.56-.48-4.57-2.58-5.22-.29-.09-1-.3-2.03-.3h0Z"/><path class="cls-15" d="m1521.71,776.14c-6.25,0-10.31-2.95-12.07-8.75-3.23-10.68,2.72-28.71,11.37-34.56,1.88-.76,26.67-11.18,35.96-35.8,5.47-14.5-1.21-33.24-7.67-51.35-7.3-20.48-14.2-39.82-.04-47.35,6.76-3.59,12.41-5.34,17.26-5.34,7.92,0,12.17,4.84,15.92,9.11.47.54.94,1.06,1.4,1.57,2.36,4.54,5,9.28,7.79,14.29,15.24,27.36,34.21,61.41,22.33,93.47-9.37,25.3-36.05,45.75-81.56,62.53-4.01,1.45-7.61,2.19-10.68,2.19Z"/><path class="cls-12" d="m1566.51,591.99v2h0c7.46,0,11.38,4.46,15.17,8.77.45.51.88,1,1.32,1.49,2.35,4.52,4.97,9.22,7.74,14.2,15.14,27.18,33.99,61.01,22.27,92.63-4.32,11.65-12.64,22.5-24.75,32.25-13.64,10.98-32.55,20.96-56.21,29.68-3.91,1.41-7.39,2.13-10.35,2.13-5.76,0-9.5-2.71-11.11-8.04-3.05-10.1,2.73-27.77,10.88-33.38,2.77-1.11,27.03-11.42,36.42-36.33,5.6-14.85-1.15-33.75-7.67-52.04-7.47-20.93-13.91-39-.51-46.13,6.52-3.47,12.17-5.22,16.79-5.22v-2m0,0c-4.56,0-10.3,1.51-17.73,5.46-27.42,14.57,18.97,68.13,7.25,99.23-9.55,25.34-35.49,35.26-35.49,35.26-13.02,8.66-21.17,45.21,1.16,45.21,3.08,0,6.73-.69,11.03-2.25,135.32-49.87,76.54-124.3,51.92-171.8-4.24-4.64-8.69-11.1-18.14-11.1h0Z"/><path class="cls-5" d="m1664.65,838.67c5.01,18.7-12.76,31.33-26,15.59"/><path class="cls-17" d="m1511.24,758.83s42.85,16.37,90.75-44.77c19.73-25.18-13.01-94.51-39.52-117.65-5.71-4.98,15.15-.56,15.15-.56,0,0,55.34,80.53,32.6,121.12-19.73,35.22-107.5,81.86-98.98,41.86Z"/><path class="cls-17" d="m1607.42,964.54s92.03,4.82,158.12-74.04l6.19,6.82s-40.26,67.05-156.21,79.76l-8.1-12.54Z"/><path class="cls-10" d="m1560.7,621.76c-1.29,3.99,6,11.53,10.68,9.85,3.68-1.32,5.85-8.36,3.07-11.82-3.31-4.14-12.55-1.75-13.75,1.97Z"/></g><g id="Layer_3"><path class="cls-16" d="m682.77,627.17c-81.2,0-147.27-66.06-147.27-147.27s66.06-147.27,147.27-147.27h557.46c81.2,0,147.27,66.06,147.27,147.27s-66.06,147.27-147.27,147.27h-557.46Z"/><path class="cls-14" d="m1240.23,338.13c37.87,0,73.47,14.75,100.25,41.52,26.78,26.78,41.52,62.38,41.52,100.25s-14.75,73.47-41.52,100.25-62.38,41.52-100.25,41.52h-557.46c-37.87,0-73.47-14.75-100.25-41.52s-41.52-62.38-41.52-100.25,14.75-73.47,41.52-100.25c26.78-26.78,62.38-41.52,100.25-41.52h557.46m0-11h-557.46c-84.37,0-152.77,68.4-152.77,152.77h0c0,84.37,68.4,152.77,152.77,152.77h557.46c84.37,0,152.77-68.4,152.77-152.77h0c0-84.37-68.4-152.77-152.77-152.77h0Z"/><path class="cls-12" d="m826.53,449.05c-2.75-1.97-4.13-4.9-4.13-8.78,0-1.75.38-4.72,1.13-8.92,1.36-7.11,2.04-13.42,2.04-18.91,0-4.2-.21-7.48-.62-9.84-.42-2.36-1.38-4.61-2.88-6.74-.75-1.03-1.13-1.78-1.13-2.23,0-.78.51-1.58,1.53-2.42,1.02-.84,2.3-1.55,3.85-2.13,1.54-.58,3-.87,4.35-.87,2.41,0,3.98.78,4.69,2.33.72,1.55,1.07,4.14,1.07,7.76,0,1.94-.6,7.31-1.81,16.1-1.21,7.82-1.81,13.61-1.81,17.36,0,2.65.36,4.64,1.07,5.96.72,1.33,1.9,2.22,3.56,2.67,1.66.52,4,.78,7.01.78,6.71,0,12.67-1,17.87-3.01.9-.26,1.51-.39,1.81-.39.75,0,1.41.37,1.98,1.12.57.74.85,1.73.85,2.96,0,2.85-1.81,5.08-5.43,6.69-4.83,2.33-11.46,3.49-19.9,3.49-7.31,0-12.35-.99-15.1-2.96Z"/><path class="cls-12" d="m879.56,448.95c-3.28-2.04-4.92-5.71-4.92-11.01,0-2.26.38-5.46,1.13-9.6.68-3.3,1.15-6.17,1.41-8.63.26-2.46.4-5.14.4-8.05,0-4.07-.27-7.66-.79-10.76l-2.26.29c-.6,0-1.02-.11-1.24-.34-.23-.23-.34-.66-.34-1.31,0-1.36.19-2.7.57-4.02.38-1.32.9-2.41,1.58-3.25,1.28-1.55,3.24-2.46,5.88-2.72,3.09-.32,7.14-.6,12.16-.82,5.01-.23,9.33-.34,12.95-.34,6.94,0,11.04.13,12.33.39,1.05.13,1.81.4,2.26.82.45.42.68,1.05.68,1.89,0,1.94-.79,3.72-2.37,5.33-.9,1.03-1.77,1.75-2.6,2.13-.83.39-1.96.55-3.39.48-5.58-.32-10.22-.48-13.91-.48-4,0-7.65.13-10.97.39,0,4.4-.42,9.54-1.24,15.42,6.86-.39,14.66-.58,23.41-.58,1.58,0,2.64.15,3.17.44.53.29.79.95.79,1.99,0,1.1-.32,2.28-.96,3.54-.64,1.26-1.49,2.31-2.54,3.15-.53.45-1.06.78-1.58.97-.53.19-1.21.26-2.04.19-4.9-.19-10.48-.29-16.74-.29h-5.09c-.6,3.23-.9,5.69-.9,7.37,0,3.49,1.06,5.96,3.17,7.42,2.11,1.45,5.58,2.18,10.4,2.18,3.09,0,5.99-.24,8.71-.73,2.71-.48,5.47-1.31,8.26-2.47,1.05-.52,1.85-.78,2.37-.78.83,0,1.64.5,2.43,1.5.79,1,1.19,2.08,1.19,3.25,0,1.42-.6,2.75-1.81,3.98-1.21,1.23-2.87,2.33-4.98,3.3-2.26.91-5.02,1.6-8.26,2.08-3.24.48-6.63.73-10.18.73-7.46,0-12.84-1.02-16.12-3.05Z"/><path class="cls-12" d="m946.34,450.07c-1.36-1.49-2.15-4.01-2.37-7.56-.38-8.15-1.51-15.48-3.39-22.01-1.43-5.24-3.24-9.79-5.43-13.67-2.19-3.88-5.05-7.05-8.59-9.5-.68-.52-1.19-.99-1.53-1.41-.34-.42-.51-.92-.51-1.5,0-1.42.87-2.78,2.6-4.07,1.73-1.29,3.69-1.94,5.88-1.94,2.49,0,4.69.91,6.62,2.72,1.92,1.81,3.68,4.46,5.26,7.95,2.41,5.04,4.24,10.78,5.48,17.21,1.24,6.43,1.94,12.95,2.09,19.54.07,1.75.38,2.94.9,3.59.53.65,1.43.97,2.71.97,3.54,0,7.03-1.57,10.46-4.7,3.43-3.14,6.24-7.26,8.43-12.36,2.19-5.11,3.28-10.44,3.28-16,0-4.33-.68-7.79-2.04-10.38-.68-1.23-1.02-2.26-1.02-3.1,0-1.36,1.05-2.63,3.17-3.83,2.11-1.2,4.07-1.79,5.88-1.79,1.96,0,3.28.86,3.96,2.57.68,1.71,1.02,3.96,1.02,6.74,0,7.56-1.66,15.66-4.98,24.29-3.32,8.63-7.82,15.87-13.51,21.72-5.69,5.85-11.82,8.78-18.38,8.78-2.64,0-4.64-.74-5.99-2.23Z"/><path class="cls-12" d="m1004.3,448.95c-3.28-2.04-4.92-5.71-4.92-11.01,0-2.26.38-5.46,1.13-9.6.68-3.3,1.15-6.17,1.41-8.63.26-2.46.4-5.14.4-8.05,0-4.07-.26-7.66-.79-10.76l-2.26.29c-.6,0-1.02-.11-1.24-.34-.23-.23-.34-.66-.34-1.31,0-1.36.19-2.7.57-4.02.38-1.32.9-2.41,1.58-3.25,1.28-1.55,3.24-2.46,5.88-2.72,3.09-.32,7.14-.6,12.16-.82,5.01-.23,9.33-.34,12.95-.34,6.94,0,11.04.13,12.33.39,1.05.13,1.81.4,2.26.82.45.42.68,1.05.68,1.89,0,1.94-.79,3.72-2.38,5.33-.9,1.03-1.77,1.75-2.6,2.13-.83.39-1.96.55-3.39.48-5.58-.32-10.22-.48-13.91-.48-4,0-7.65.13-10.97.39,0,4.4-.41,9.54-1.24,15.42,6.86-.39,14.66-.58,23.41-.58,1.58,0,2.64.15,3.17.44.53.29.79.95.79,1.99,0,1.1-.32,2.28-.96,3.54s-1.49,2.31-2.54,3.15c-.53.45-1.06.78-1.58.97-.53.19-1.21.26-2.04.19-4.9-.19-10.48-.29-16.74-.29h-5.09c-.61,3.23-.91,5.69-.91,7.37,0,3.49,1.06,5.96,3.17,7.42,2.11,1.45,5.58,2.18,10.4,2.18,3.09,0,5.99-.24,8.71-.73,2.71-.48,5.46-1.31,8.26-2.47,1.05-.52,1.85-.78,2.38-.78.83,0,1.64.5,2.43,1.5.79,1,1.19,2.08,1.19,3.25,0,1.42-.61,2.75-1.81,3.98-1.21,1.23-2.87,2.33-4.97,3.3-2.26.91-5.02,1.6-8.26,2.08-3.24.48-6.63.73-10.18.73-7.46,0-12.84-1.02-16.12-3.05Z"/><path class="cls-12" d="m1058.92,449.05c-2.75-1.97-4.13-4.9-4.13-8.78,0-1.75.38-4.72,1.13-8.92,1.36-7.11,2.04-13.42,2.04-18.91,0-4.2-.21-7.48-.62-9.84-.42-2.36-1.38-4.61-2.88-6.74-.75-1.03-1.13-1.78-1.13-2.23,0-.78.51-1.58,1.53-2.42,1.02-.84,2.3-1.55,3.84-2.13,1.54-.58,3-.87,4.35-.87,2.41,0,3.98.78,4.69,2.33.72,1.55,1.07,4.14,1.07,7.76,0,1.94-.6,7.31-1.81,16.1-1.21,7.82-1.81,13.61-1.81,17.36,0,2.65.36,4.64,1.07,5.96.72,1.33,1.9,2.22,3.56,2.67,1.66.52,4,.78,7.01.78,6.71,0,12.67-1,17.87-3.01.91-.26,1.51-.39,1.81-.39.75,0,1.41.37,1.98,1.12.57.74.85,1.73.85,2.96,0,2.85-1.81,5.08-5.43,6.69-4.83,2.33-11.46,3.49-19.9,3.49-7.31,0-12.35-.99-15.1-2.96Z"/><path class="cls-12" d="m734.59,565.28c-4.03-2.07-7.14-5.01-9.33-8.83-2.19-3.81-3.28-8.34-3.28-13.58,0-6.66,1.68-12.95,5.03-18.86,3.35-5.92,8.1-10.67,14.25-14.26,6.14-3.59,13.25-5.38,21.32-5.38,4.82,0,8.71.63,11.65,1.89s4.41,3.05,4.41,5.38c0,1.75-.77,3.43-2.32,5.04-1.55,1.62-3.22,2.42-5.03,2.42-.75,0-1.36-.16-1.81-.48-2.11-1.16-4.15-2.02-6.11-2.57-1.96-.55-4.18-.82-6.67-.82-5.2,0-9.67,1.02-13.4,3.06-3.73,2.04-6.58,4.79-8.54,8.24-1.96,3.46-2.94,7.22-2.94,11.3s.87,7.31,2.6,10.28c1.73,2.97,4.16,5.3,7.29,6.98,3.13,1.68,6.73,2.52,10.8,2.52,3.32,0,6.52-.57,9.61-1.7,3.09-1.13,5.88-2.7,8.37-4.7,1.06-.84,2.11-1.26,3.17-1.26.83,0,1.45.31,1.87.92.41.62.62,1.28.62,1.99,0,1.16-.4,2.44-1.19,3.83-.79,1.39-1.94,2.73-3.45,4.02-2.79,2.39-6.22,4.27-10.29,5.62-4.07,1.36-8.26,2.04-12.55,2.04-5.35,0-10.05-1.04-14.08-3.1Z"/><path class="cls-12" d="m792.26,562.42c-4.56-3.98-6.84-9.71-6.84-17.21s2.37-14.84,7.12-21.63c-1.43,1.1-2.79,1.65-4.07,1.65-2.19,0-3.28-1.49-3.28-4.46,0-1.87.43-3.44,1.3-4.7.87-1.26,1.98-2.44,3.34-3.54,3.01-2.26,6.8-4.19,11.37-5.77,4.56-1.58,9.78-2.38,15.66-2.38,9.95,0,17.51,2.41,22.67,7.23,5.16,4.82,7.75,11.62,7.75,20.41,0,6.79-1.53,12.95-4.58,18.47-3.05,5.53-7.33,9.89-12.84,13.09-5.5,3.2-11.8,4.8-18.89,4.8-7.92,0-14.16-1.99-18.72-5.96Zm34.1-7.23c3.62-1.55,6.58-3.99,8.88-7.32,2.3-3.33,3.45-7.48,3.45-12.46,0-4.65-1.04-8.49-3.11-11.49-2.07-3.01-4.79-5.2-8.14-6.59-3.36-1.39-6.99-2.09-10.91-2.09-4.45,0-8.93.97-13.46,2.91-2.34,3.04-4.28,6.4-5.82,10.09-1.55,3.69-2.32,7.4-2.32,11.15,0,5.95,1.92,10.46,5.77,13.53,3.85,3.07,8.59,4.61,14.25,4.61,4,0,7.8-.78,11.42-2.33Z"/><path class="cls-12" d="m855.08,564.7c0-7.3,1.62-17.03,4.86-29.19,2.04-7.43,4.67-14.55,7.92-21.33,1.66-3.43,3.58-6.01,5.77-7.76,2.19-1.75,4.67-2.62,7.46-2.62,2.34,0,4.28.65,5.82,1.94,1.54,1.29,2.47,3.39,2.77,6.3.68,6.14,1.56,11.93,2.66,17.36,1.09,5.43,2.21,9.31,3.34,11.64.38.84.79,1.42,1.24,1.75.45.32,1.02.49,1.7.49.83,0,1.51-.18,2.04-.53.53-.35,1.09-.95,1.7-1.79,2.04-2.97,5.16-10.02,9.39-21.14,1.88-4.91,3.96-8.82,6.22-11.73,2.26-2.91,5.35-4.36,9.27-4.36,2.71,0,4.65.78,5.82,2.33,1.17,1.55,1.75,4.07,1.75,7.56,0,2.65-.11,5.43-.34,8.34-.3,4.53-.45,8.08-.45,10.67,0,12.54,2.38,21.04,7.12,25.51,1.58,1.23,2.37,2.39,2.37,3.49,0,1.62-1,3.09-3,4.41-2,1.32-4.28,1.99-6.84,1.99-2.19,0-3.86-.6-5.03-1.79-1.17-1.2-2.13-2.99-2.88-5.38-1.36-5.04-2.04-10.96-2.04-17.75,0-3.69.26-8.76.79-15.23.3-3.49.45-5.59.45-6.3,0-1.1-.13-1.87-.4-2.33-.26-.45-.81-.68-1.64-.68-1.96,0-3.43,1.52-4.41,4.56-2.04,5.62-3.94,10.57-5.71,14.84-1.77,4.27-3.64,7.92-5.6,10.96-1.66,2.52-3.45,4.3-5.37,5.33-1.92,1.04-4.01,1.55-6.28,1.55-5.2,0-8.78-2.75-10.74-8.24-1.06-2.97-2-6.74-2.83-11.3-.83-4.56-1.4-9.49-1.7-14.79-.15-2.39-1.06-3.59-2.71-3.59-1.81,0-3.24,1.16-4.3,3.49-1.51,3.75-2.77,8.19-3.79,13.33-1.02,5.14-1.53,10.04-1.53,14.69,0,2.26.15,4.95.45,8.05.23,1.81.34,3.49.34,5.04,0,1.81-1.11,3.2-3.34,4.17-2.23.97-4.43,1.46-6.62,1.46-2.49,0-3.73-1.13-3.73-3.39Z"/><path class="cls-12" d="m953.75,566.78c-1.09-.87-1.64-2.67-1.64-5.38s.6-7.37,1.81-14.16c1.21-6.92,1.81-13.25,1.81-19.01,0-3.36-.19-6.21-.57-8.53-1.21.58-2.19.87-2.94.87-.68,0-1.17-.26-1.47-.78-.3-.52-.45-1.32-.45-2.42,0-2,.53-3.67,1.58-4.99,1.05-1.32,2.9-2.57,5.54-3.73,2.79-1.29,5.97-2.33,9.56-3.1,3.58-.78,7.14-1.16,10.69-1.16,7.31,0,13.17,1.65,17.58,4.95,4.41,3.3,6.62,7.69,6.62,13.19,0,4.33-1.34,8.28-4.02,11.83-2.68,3.56-6.05,6.35-10.12,8.39-4.07,2.04-8.07,3.05-11.99,3.05-2.64,0-4.49-.5-5.54-1.5-1.06-1-1.58-2.57-1.58-4.7,0-2.59.71-3.88,2.15-3.88.38,0,1.17.13,2.38.39,1.51.32,3.09.48,4.75.48,4.14,0,7.52-1,10.12-3.01,2.6-2,3.9-4.59,3.9-7.76s-1.41-5.8-4.24-7.71c-2.83-1.91-6.54-2.86-11.14-2.86-3.09,0-6.52.42-10.29,1.26-.23,4.27-.75,9.12-1.58,14.55-1.13,8.15-1.7,14.19-1.7,18.14,0,2.52.26,4.59.79,6.21.53,1.62,1.51,3.01,2.94,4.17,1.05.91,1.58,1.88,1.58,2.91,0,1.49-.96,2.8-2.88,3.93-1.92,1.13-4.35,1.7-7.29,1.7-1.81,0-3.26-.44-4.35-1.31Z"/><path class="cls-12" d="m1015.04,565.42c-2.75-1.97-4.13-4.9-4.13-8.78,0-1.75.38-4.72,1.13-8.92,1.36-7.11,2.04-13.42,2.04-18.91,0-4.2-.21-7.48-.62-9.84-.42-2.36-1.38-4.61-2.88-6.74-.75-1.03-1.13-1.78-1.13-2.23,0-.78.51-1.58,1.53-2.42,1.02-.84,2.3-1.55,3.84-2.13,1.54-.58,3-.87,4.35-.87,2.41,0,3.98.78,4.69,2.33.72,1.55,1.07,4.14,1.07,7.76,0,1.94-.6,7.31-1.81,16.1-1.21,7.82-1.81,13.61-1.81,17.36,0,2.65.36,4.64,1.07,5.96.72,1.33,1.9,2.22,3.56,2.67,1.66.52,4,.78,7.01.78,6.71,0,12.67-1,17.87-3.01.91-.26,1.51-.39,1.81-.39.75,0,1.41.37,1.98,1.12.57.74.85,1.73.85,2.96,0,2.85-1.81,5.08-5.43,6.69-4.83,2.33-11.46,3.49-19.9,3.49-7.31,0-12.35-.99-15.1-2.96Z"/><path class="cls-12" d="m1068.08,565.33c-3.28-2.04-4.92-5.71-4.92-11.01,0-2.26.38-5.46,1.13-9.6.68-3.3,1.15-6.17,1.41-8.63.26-2.46.4-5.14.4-8.05,0-4.07-.26-7.66-.79-10.76l-2.26.29c-.6,0-1.02-.11-1.24-.34-.23-.23-.34-.66-.34-1.31,0-1.36.19-2.7.57-4.02.38-1.32.9-2.41,1.58-3.25,1.28-1.55,3.24-2.46,5.88-2.72,3.09-.32,7.14-.6,12.16-.82,5.01-.23,9.33-.34,12.95-.34,6.94,0,11.04.13,12.33.39,1.05.13,1.81.4,2.26.82.45.42.68,1.05.68,1.89,0,1.94-.79,3.72-2.38,5.33-.9,1.03-1.77,1.75-2.6,2.13-.83.39-1.96.55-3.39.48-5.58-.32-10.22-.48-13.91-.48-4,0-7.65.13-10.97.39,0,4.4-.42,9.54-1.24,15.42,6.86-.39,14.66-.58,23.41-.58,1.58,0,2.64.15,3.17.44.53.29.79.95.79,1.99,0,1.1-.32,2.28-.96,3.54-.64,1.26-1.49,2.31-2.54,3.15-.53.45-1.06.78-1.58.97-.53.19-1.21.26-2.04.19-4.9-.19-10.48-.29-16.74-.29h-5.09c-.6,3.23-.9,5.69-.9,7.37,0,3.49,1.05,5.96,3.17,7.42,2.11,1.46,5.58,2.18,10.4,2.18,3.09,0,5.99-.24,8.71-.73s5.46-1.31,8.25-2.47c1.06-.52,1.85-.78,2.38-.78.83,0,1.64.5,2.43,1.5.79,1,1.19,2.09,1.19,3.25,0,1.42-.6,2.75-1.81,3.98-1.21,1.23-2.87,2.33-4.98,3.3-2.26.91-5.01,1.6-8.26,2.08-3.24.49-6.63.73-10.18.73-7.46,0-12.84-1.02-16.12-3.05Z"/><path class="cls-12" d="m1135.48,566.78c-1.09-.87-1.64-2.67-1.64-5.38s.49-6.69,1.47-11.93c1.43-8.08,2.15-15.16,2.15-21.24,0-5.75-.6-10.12-1.81-13.09-5.88.13-11.2.71-15.95,1.75-1.81.26-2.87.39-3.17.39-.75,0-1.26-.13-1.53-.39-.27-.26-.4-.81-.4-1.65,0-1.1.21-2.25.62-3.44.41-1.2.96-2.21,1.64-3.05,1.21-1.55,3.2-2.49,5.99-2.81,3.32-.26,7.54-.52,12.67-.78,5.13-.26,9.99-.39,14.59-.39,9.57,0,15.11.13,16.62.39,1.05.13,1.79.4,2.21.82.41.42.62,1.08.62,1.99,0,1.75-.91,3.49-2.71,5.24-.9.91-1.75,1.54-2.54,1.89-.79.36-1.83.5-3.11.44-3.32-.26-7.69-.39-13.12-.39-.08,3.82-.68,9.47-1.81,16.97-1.06,6.98-1.58,12.67-1.58,17.07,0,2.52.26,4.59.79,6.21.53,1.62,1.51,3.01,2.94,4.17,1.06.91,1.58,1.88,1.58,2.91,0,1.49-.96,2.8-2.88,3.93-1.92,1.13-4.35,1.7-7.29,1.7-1.81,0-3.26-.44-4.35-1.31Z"/><path class="cls-12" d="m1180.6,565.33c-3.28-2.04-4.92-5.71-4.92-11.01,0-2.26.38-5.46,1.13-9.6.68-3.3,1.15-6.17,1.41-8.63.26-2.46.4-5.14.4-8.05,0-4.07-.26-7.66-.79-10.76l-2.26.29c-.6,0-1.02-.11-1.24-.34-.23-.23-.34-.66-.34-1.31,0-1.36.19-2.7.57-4.02.38-1.32.9-2.41,1.58-3.25,1.28-1.55,3.24-2.46,5.88-2.72,3.09-.32,7.14-.6,12.16-.82,5.01-.23,9.33-.34,12.95-.34,6.94,0,11.04.13,12.33.39,1.05.13,1.81.4,2.26.82.45.42.68,1.05.68,1.89,0,1.94-.79,3.72-2.38,5.33-.9,1.03-1.77,1.75-2.6,2.13-.83.39-1.96.55-3.39.48-5.58-.32-10.22-.48-13.91-.48-4,0-7.65.13-10.97.39,0,4.4-.42,9.54-1.24,15.42,6.86-.39,14.66-.58,23.41-.58,1.58,0,2.64.15,3.17.44.53.29.79.95.79,1.99,0,1.1-.32,2.28-.96,3.54-.64,1.26-1.49,2.31-2.54,3.15-.53.45-1.06.78-1.58.97-.53.19-1.21.26-2.04.19-4.9-.19-10.48-.29-16.74-.29h-5.09c-.6,3.23-.9,5.69-.9,7.37,0,3.49,1.05,5.96,3.17,7.42,2.11,1.46,5.58,2.18,10.4,2.18,3.09,0,5.99-.24,8.71-.73s5.46-1.31,8.25-2.47c1.06-.52,1.85-.78,2.38-.78.83,0,1.64.5,2.43,1.5.79,1,1.19,2.09,1.19,3.25,0,1.42-.6,2.75-1.81,3.98-1.21,1.23-2.87,2.33-4.98,3.3-2.26.91-5.01,1.6-8.26,2.08-3.24.49-6.63.73-10.18.73-7.46,0-12.84-1.02-16.12-3.05Z"/></g></svg>