<?xml version="1.0" encoding="UTF-8"?><svg id="Layer_7" xmlns="http://www.w3.org/2000/svg" width="254" height="116" viewBox="0 0 254 116"><defs><style>.cls-1{stroke-width:0px;}</style></defs><path class="cls-1" d="m71.37,84.93c-2.3-1.63-3.45-4.04-3.45-7.24,0-1.44.31-3.89.95-7.36,1.13-5.87,1.7-11.07,1.7-15.6,0-3.47-.17-6.17-.52-8.12-.35-1.95-1.15-3.8-2.41-5.56-.63-.85-.95-1.47-.95-1.84,0-.64.43-1.31,1.28-2,.85-.69,1.92-1.28,3.22-1.76,1.29-.48,2.51-.72,3.64-.72,2.02,0,3.33.64,3.93,1.92.6,1.28.9,3.41.9,6.4,0,1.6-.51,6.03-1.51,13.28-1.01,6.45-1.51,11.23-1.51,14.32,0,2.19.3,3.83.9,4.92.6,1.09,1.59,1.83,2.98,2.2,1.39.43,3.34.64,5.86.64,5.61,0,10.59-.83,14.94-2.48.76-.21,1.26-.32,1.51-.32.63,0,1.18.31,1.66.92.47.61.71,1.43.71,2.44,0,2.35-1.51,4.19-4.54,5.52-4.04,1.92-9.59,2.88-16.65,2.88-6.12,0-10.33-.81-12.63-2.44Z"/><path class="cls-1" d="m113.46,86.01c-.85-.75-1.28-2.13-1.28-4.16,0-1.6.38-4.69,1.13-9.28.69-4.05,1.2-7.44,1.51-10.16.31-2.72.47-5.44.47-8.16,0-3.15-.21-5.79-.62-7.92-.41-2.13-1.25-3.95-2.51-5.44-.51-.69-.76-1.23-.76-1.6,0-.64.43-1.32,1.28-2.04.85-.72,1.89-1.32,3.12-1.8s2.38-.72,3.45-.72c1.83,0,3.1.67,3.83,2,.72,1.33,1.09,3.23,1.09,5.68,0,1.81-.17,4.25-.52,7.32-.35,3.07-.68,5.61-.99,7.64-.95,6.29-1.42,11.01-1.42,14.16,0,2.13.24,3.87.71,5.2.47,1.33,1.31,2.45,2.51,3.36.44.37.76.72.95,1.04.19.32.28.69.28,1.12,0,1.33-.79,2.48-2.36,3.44-1.58.96-3.59,1.44-6.05,1.44-1.7,0-2.98-.37-3.83-1.12Z"/><path class="cls-1" d="m148.13,85.77c-1.14-1.23-1.8-3.31-1.99-6.24-.32-6.72-1.26-12.77-2.84-18.16-1.2-4.32-2.71-8.08-4.54-11.28-1.83-3.2-4.23-5.81-7.19-7.84-.57-.43-.99-.81-1.28-1.16-.28-.35-.43-.76-.43-1.24,0-1.17.72-2.29,2.18-3.36,1.45-1.07,3.09-1.6,4.92-1.6,2.08,0,3.93.75,5.53,2.24,1.61,1.49,3.07,3.68,4.4,6.56,2.02,4.16,3.55,8.89,4.59,14.2,1.04,5.31,1.62,10.68,1.75,16.12.06,1.44.31,2.43.76,2.96.44.53,1.2.8,2.27.8,2.96,0,5.88-1.29,8.75-3.88,2.87-2.59,5.22-5.99,7.05-10.2,1.83-4.21,2.74-8.61,2.74-13.2,0-3.57-.57-6.43-1.7-8.56-.57-1.01-.85-1.87-.85-2.56,0-1.12.88-2.17,2.65-3.16,1.76-.99,3.41-1.48,4.92-1.48,1.64,0,2.74.71,3.31,2.12s.85,3.27.85,5.56c0,6.24-1.39,12.92-4.16,20.04-2.78,7.12-6.54,13.09-11.3,17.92-4.76,4.83-9.88,7.24-15.37,7.24-2.21,0-3.88-.61-5.01-1.84Z"/></svg>