<?xml version="1.0" encoding="UTF-8"?><svg id="Layer_7" xmlns="http://www.w3.org/2000/svg" width="396" height="168" viewBox="0 0 396 168"><defs><style>.cls-1{stroke-width:0px;}</style></defs><path class="cls-1" d="m60.92,116c-.91-.72-1.37-2.2-1.37-4.44s.5-6.08,1.51-11.68c1.01-5.71,1.51-10.93,1.51-15.68,0-2.77-.16-5.12-.47-7.04-1.01.48-1.83.72-2.46.72-.57,0-.98-.21-1.23-.64-.25-.43-.38-1.09-.38-2,0-1.65.44-3.03,1.32-4.12.88-1.09,2.43-2.12,4.63-3.08,2.33-1.07,5-1.92,7.99-2.56,2.99-.64,5.97-.96,8.94-.96,6.12,0,11.02,1.36,14.71,4.08,3.69,2.72,5.53,6.35,5.53,10.88,0,3.57-1.12,6.83-3.36,9.76-2.24,2.93-5.06,5.24-8.47,6.92s-6.75,2.52-10.03,2.52c-2.21,0-3.75-.41-4.63-1.24-.88-.83-1.32-2.12-1.32-3.88,0-2.13.6-3.2,1.8-3.2.32,0,.98.11,1.99.32,1.26.27,2.58.4,3.97.4,3.47,0,6.29-.83,8.46-2.48,2.18-1.65,3.26-3.79,3.26-6.4s-1.18-4.79-3.55-6.36c-2.37-1.57-5.47-2.36-9.32-2.36-2.59,0-5.46.35-8.61,1.04-.19,3.52-.63,7.52-1.32,12-.95,6.72-1.42,11.71-1.42,14.96,0,2.08.22,3.79.66,5.12.44,1.33,1.26,2.48,2.46,3.44.88.75,1.32,1.55,1.32,2.4,0,1.23-.8,2.31-2.41,3.24-1.61.93-3.64,1.4-6.1,1.4-1.51,0-2.73-.36-3.64-1.08Z"/><path class="cls-1" d="m113.22,112.4c-3.82-3.28-5.72-8.01-5.72-14.2s1.99-12.24,5.96-17.84c-1.2.91-2.33,1.36-3.41,1.36-1.83,0-2.74-1.23-2.74-3.68,0-1.54.36-2.84,1.09-3.88.72-1.04,1.66-2.01,2.79-2.92,2.52-1.87,5.69-3.45,9.51-4.76,3.81-1.31,8.18-1.96,13.1-1.96,8.32,0,14.65,1.99,18.96,5.96s6.48,9.59,6.48,16.84c0,5.6-1.28,10.68-3.83,15.24-2.55,4.56-6.13,8.16-10.74,10.8-4.6,2.64-9.87,3.96-15.8,3.96-6.62,0-11.84-1.64-15.65-4.92Zm28.52-5.96c3.03-1.28,5.5-3.29,7.43-6.04,1.92-2.75,2.88-6.17,2.88-10.28,0-3.84-.87-7-2.6-9.48s-4-4.29-6.81-5.44c-2.81-1.15-5.85-1.72-9.13-1.72-3.72,0-7.47.8-11.26,2.4-1.96,2.51-3.58,5.28-4.87,8.32-1.29,3.04-1.94,6.11-1.94,9.2,0,4.91,1.61,8.63,4.82,11.16,3.22,2.53,7.19,3.8,11.92,3.8,3.34,0,6.53-.64,9.55-1.92Z"/><path class="cls-1" d="m172.62,114.8c-2.74-1.68-4.11-4.71-4.11-9.08,0-1.87.31-4.51.95-7.92.57-2.72.96-5.09,1.18-7.12.22-2.03.33-4.24.33-6.64,0-3.36-.22-6.32-.66-8.88l-1.89.24c-.5,0-.85-.09-1.04-.28-.19-.19-.28-.54-.28-1.08,0-1.12.16-2.23.47-3.32.32-1.09.76-1.99,1.32-2.68,1.07-1.28,2.71-2.03,4.92-2.24,2.58-.27,5.97-.49,10.17-.68,4.19-.19,7.8-.28,10.83-.28,5.8,0,9.24.11,10.31.32.88.11,1.51.33,1.89.68.38.35.57.87.57,1.56,0,1.6-.66,3.07-1.99,4.4-.76.85-1.48,1.44-2.17,1.76-.7.32-1.64.45-2.84.4-4.67-.27-8.55-.4-11.63-.4-3.34,0-6.4.11-9.17.32,0,3.63-.35,7.87-1.04,12.72,5.74-.32,12.26-.48,19.58-.48,1.32,0,2.21.12,2.65.36.44.24.66.79.66,1.64,0,.91-.27,1.88-.8,2.92-.54,1.04-1.25,1.91-2.13,2.6-.44.37-.88.64-1.32.8-.44.16-1.01.21-1.7.16-4.1-.16-8.77-.24-14-.24h-4.26c-.51,2.67-.76,4.69-.76,6.08,0,2.88.88,4.92,2.65,6.12,1.76,1.2,4.67,1.8,8.7,1.8,2.58,0,5.01-.2,7.28-.6s4.57-1.08,6.91-2.04c.88-.43,1.54-.64,1.99-.64.69,0,1.37.41,2.03,1.24.66.83.99,1.72.99,2.68,0,1.17-.51,2.27-1.51,3.28-1.01,1.01-2.4,1.92-4.16,2.72-1.89.75-4.2,1.32-6.91,1.72-2.71.4-5.55.6-8.51.6-6.24,0-10.74-.84-13.48-2.52Z"/><path class="cls-1" d="m214.62,116c-.85-.72-1.28-2.12-1.28-4.2,0-1.44.44-4.61,1.32-9.52.69-3.41,1.25-6.52,1.66-9.32.41-2.8.62-5.56.62-8.28,0-4.59-.41-8.43-1.23-11.52-.32-1.23-.47-2.29-.47-3.2,0-1.65.62-2.93,1.84-3.84,1.23-.91,2.7-1.36,4.4-1.36,1.39,0,2.6.28,3.64.84,1.04.56,2.1,1.32,3.17,2.28,11.16,10.61,19.67,21.87,25.54,33.76.31.43.6.64.85.64.38,0,.63-.21.76-.64,1.13-6.24,1.7-11.89,1.7-16.96,0-3.95-.25-6.91-.76-8.88-.51-1.97-1.14-3.6-1.89-4.88-.44-.85-.66-1.47-.66-1.84,0-.96.82-1.91,2.46-2.84,1.64-.93,3.28-1.4,4.92-1.4,2.02,0,3.36.76,4.02,2.28.66,1.52.99,3.51.99,5.96,0,1.55-.21,3.71-.62,6.48-.41,2.77-.65,4.4-.71,4.88-1.13,7.57-1.7,12.99-1.7,16.24,0,2.03.16,4.16.47,6.4.19,1.33.28,2.51.28,3.52,0,1.97-.58,3.53-1.75,4.68-1.17,1.15-2.76,1.72-4.78,1.72-1.51,0-2.92-.36-4.21-1.08-1.29-.72-2.29-1.83-2.98-3.32-2.78-5.87-6.12-11.59-10.03-17.16-3.91-5.57-8.01-10.39-12.3-14.44-.69-.53-1.26-.8-1.7-.8-.63,0-1.04.59-1.23,1.76-1.32,8.53-1.99,15.01-1.99,19.44,0,1.76.19,3.31.57,4.64.38,1.33.95,2.61,1.7,3.84.69,1.07,1.04,2.03,1.04,2.88,0,1.07-.74,2.05-2.22,2.96-1.48.91-3.39,1.36-5.72,1.36-1.64,0-2.88-.36-3.74-1.08Z"/><path class="cls-1" d="m285.7,114.8c-3.47-1.68-6.2-4.11-8.18-7.28-1.99-3.17-2.98-6.95-2.98-11.32,0-5.44,1.42-10.59,4.26-15.44,2.84-4.85,6.86-8.77,12.06-11.76,5.2-2.99,11.15-4.48,17.83-4.48,3.91,0,7.09.52,9.55,1.56,2.46,1.04,3.69,2.52,3.69,4.44,0,1.44-.65,2.83-1.94,4.16-1.29,1.33-2.7,2-4.21,2-.63,0-1.13-.13-1.51-.4-3.28-1.87-7-2.8-11.16-2.8s-7.96.84-11.02,2.52c-3.06,1.68-5.38,3.95-6.95,6.8-1.58,2.85-2.36,5.96-2.36,9.32,0,4.96,1.66,8.91,4.97,11.84,3.31,2.93,7.74,4.4,13.29,4.4,3.78,0,7.03-.67,9.74-2,2.71-1.33,4.07-3.17,4.07-5.52,0-2.19-1.07-3.73-3.22-4.64-2.14-.91-5.11-1.47-8.89-1.68-1.77-.11-2.95-.28-3.55-.52-.6-.24-.9-.87-.9-1.88,0-1.28.46-2.35,1.37-3.2.91-.85,2.1-1.33,3.55-1.44,5.3-.37,13.02-.56,23.17-.56.88,0,1.53.13,1.94.4.41.27.61.75.61,1.44,0,1.49-.54,3-1.61,4.52-1.07,1.52-2.37,2.28-3.88,2.28h-1.51c.5,1.39.76,2.75.76,4.08,0,3.09-1.15,6-3.45,8.72-2.3,2.72-5.39,4.89-9.27,6.52s-8.03,2.44-12.44,2.44-8.36-.84-11.82-2.52Z"/></svg>