<?xml version="1.0" encoding="UTF-8"?><svg id="Layer_2" xmlns="http://www.w3.org/2000/svg" width="251" height="391" viewBox="0 0 251 391"><defs><style>.cls-1{fill:#ffd7f2;}.cls-1,.cls-2,.cls-3{stroke:#000;stroke-miterlimit:10;stroke-width:2px;}.cls-2,.cls-4{fill:#fff;}.cls-5{fill:#5f0053;opacity:.4;}.cls-5,.cls-6,.cls-4,.cls-7{stroke-width:0px;}.cls-8{opacity:.7;}.cls-7{opacity:.2;}</style></defs><path class="cls-1" d="m246.82,286.99S219.76-1.47,119.76,5.34C19.07,12.2,8.96,286.14,8.96,286.14c0,0-17.97,99.56,116.16,99.08,144.66-.51,121.7-98.23,121.7-98.23Zm-69.26-130.65c-.18.61-.57,1.3-.62,1.94-.11,1.54-.9,2.91-2.15,3.66-.89,1.5-2.09,2.88-3.66,4.11-6.27,4.91-14.32,4.91-21.55,7.5-.65.23-1.26.3-1.81.25-.79.81-1.91,1.31-3.15,1.47-2.56.32-5.08.83-7.64,1.14-2.34.28-4.74.17-7.07.53-.6.09-1.2.09-1.78,0-.48.19-1.03.3-1.64.3-5.61,0-11.29-.19-16.86-.87-5.32-.64-10.26-2.74-15.52-3.68-.96-.17-1.67-.57-2.17-1.1-.66.03-1.33-.12-1.99-.44-.47-.09-.95-.26-1.44-.55-3.64-2.14-7.33-4.58-8.99-8.63-1.47-3.58-1.91-7.59-.17-11.14.08-.17.18-.31.28-.46-.07-.32-.11-.66-.1-1.03.05-4.4,1.64-8.42,2.15-12.74.46-3.9.37-7.27,1.84-10.91-.22-1.05-.06-2.21.4-3.21-.37.8.13-.64.17-.83.1-.46.16-.93.23-1.4.14-1,.27-1.99.54-2.96.08-.27.19-.53.31-.76.25-1.95.82-3.83,1.43-5.71.69-3.91,1.58-7.78,2.88-11.56.42-1.78.88-3.54,1.43-5.31,1.28-4.13,2.5-8.27,3.83-12.39.49-1.52.92-3.05,1.58-4.51.04-.08.09-.16.13-.24,1.22-3.5,2.62-6.93,4.26-10.27,3.35-6.82,8.13-14.81,14.8-18.89.86-.53,1.71-.94,2.55-1.26,10.71-7.2,22.53,8.48,27.12,16.26,6.96,11.8,13.46,24.84,17.23,38.07,3.03,4.97,4.14,10.87,5.88,16.36,2.04,6.46,4.32,12.97,5.57,19.64,0,.04.01.09.02.13.54.97.93,2.01,1.15,3.13.16.81.24,1.64.4,2.45.06.29.14.58.19.87.03.15.04.25.05.31.03.04.09.12.19.3.5.91.64,1.81.53,2.62.1.2.19.4.26.62.58,1.77,1.09,3.56,1.3,5.42.14,1.27,0,2.55-.37,3.78Z"/><path class="cls-3" d="m90.97,284.43c8.03-8.33,4.83-20.85-.75-27.77-1.21-1.5-5.24-6.34-12.7-8.13-10.92-2.61-19.61,3.64-20.17,4.06-8.47,6.32-10.77,17.79-5.98,26.41,4.28,7.7,12.63,10.23,14.94,10.84,7.37,1.94,18.09,1.38,24.65-5.42Z"/><path class="cls-2" d="m74.9,271.91c3.46-3.57,2.08-8.94-.32-11.9-.52-.64-2.26-2.72-5.47-3.48-4.71-1.12-8.45,1.56-8.69,1.74-3.65,2.71-4.64,7.63-2.58,11.32,1.85,3.3,5.44,4.38,6.44,4.64,3.18.83,7.8.59,10.63-2.32Z"/><path class="cls-2" d="m78.14,292.89c2.34-1.7,1.41-4.25-.22-5.65-.35-.31-1.52-1.29-3.69-1.65-3.18-.53-5.7.74-5.86.83-2.46,1.29-3.13,3.62-1.74,5.38,1.25,1.57,3.67,2.08,4.34,2.21,2.14.4,5.26.28,7.17-1.1Z"/><path class="cls-3" d="m196.95,283.98c8.03-8.33,4.83-20.85-.75-27.77-1.21-1.5-5.24-6.34-12.7-8.13-10.92-2.61-19.61,3.64-20.17,4.06-8.47,6.32-10.77,17.79-5.98,26.41,4.28,7.7,12.63,10.23,14.94,10.84,7.37,1.94,18.09,1.38,24.65-5.42Z"/><path class="cls-2" d="m180.88,271.46c3.46-3.57,2.08-8.94-.32-11.9-.52-.64-2.26-2.72-5.47-3.48-4.71-1.12-8.45,1.56-8.69,1.74-3.65,2.71-4.64,7.63-2.58,11.32,1.85,3.3,5.44,4.38,6.44,4.64,3.18.83,7.8.59,10.63-2.32Z"/><path class="cls-2" d="m184.12,292.43c2.34-1.7,1.41-4.25-.22-5.65-.35-.31-1.52-1.29-3.69-1.65-3.18-.53-5.7.74-5.86.83-2.46,1.29-3.13,3.62-1.74,5.38,1.25,1.57,3.67,2.08,4.34,2.21,2.14.4,5.26.28,7.17-1.1Z"/><path class="cls-2" d="m178.58,151.72c-49.42-189.69-89.17-88.91-100.69,3.37-2.95,35.17,108.21,25.49,100.69-3.37Zm-1.02,4.62c-.18.61-.57,1.3-.62,1.94-.11,1.54-.9,2.91-2.15,3.66-.89,1.5-2.09,2.88-3.66,4.11-6.27,4.91-14.32,4.91-21.55,7.5-.65.23-1.26.3-1.81.25-.79.81-1.91,1.31-3.15,1.47-2.56.32-5.08.83-7.64,1.14-2.34.28-4.74.17-7.07.53-.6.09-1.2.09-1.78,0-.48.19-1.03.3-1.64.3-5.61,0-11.29-.19-16.86-.87-5.32-.64-10.26-2.74-15.52-3.68-.96-.17-1.67-.57-2.17-1.1-.66.03-1.33-.12-1.99-.44-.47-.09-.95-.26-1.44-.55-3.64-2.14-7.33-4.58-8.99-8.63-1.47-3.58-1.91-7.59-.17-11.14.08-.17.18-.31.28-.46-.07-.32-.11-.66-.1-1.03.05-4.4,1.64-8.42,2.15-12.74.46-3.9.37-7.27,1.84-10.91-.22-1.05-.06-2.21.4-3.21-.37.8.13-.64.17-.83.1-.46.16-.93.23-1.4.14-1,.27-1.99.54-2.96.08-.27.19-.53.31-.76.25-1.95.82-3.83,1.43-5.71.69-3.91,1.58-7.78,2.88-11.56.42-1.78.88-3.54,1.43-5.31,1.28-4.13,2.5-8.27,3.83-12.39.49-1.52.92-3.05,1.58-4.51.04-.08.09-.16.13-.24,1.22-3.5,2.62-6.93,4.26-10.27,3.35-6.82,8.13-14.81,14.8-18.89.86-.53,1.71-.94,2.55-1.26,10.71-7.2,22.53,8.48,27.12,16.26,6.96,11.8,13.46,24.84,17.23,38.07,3.03,4.97,4.14,10.87,5.88,16.36,2.04,6.46,4.32,12.97,5.57,19.64,0,.04.01.09.02.13.54.97.93,2.01,1.15,3.13.16.81.24,1.64.4,2.45.06.29.14.58.19.87.03.15.04.25.05.31.03.04.09.12.19.3.5.91.64,1.81.53,2.62.1.2.19.4.26.62.58,1.77,1.09,3.56,1.3,5.42.14,1.27,0,2.55-.37,3.78Z"/><path class="cls-6" d="m115.48,289.12c2.24,15.75,22.82,15.71,23.1-.51"/><g class="cls-8"><path class="cls-4" d="m71.87,56.21c2.22-3.35,3.8-7.08,6.08-10.38,1.17-1.69,1.91-2.64,3.03-4.03,1.4-1.73,2.84-3.42,4.32-5.08,2.61-2.93,5.31-5.81,8.25-8.41.29-.25.57-.5.87-.75.16-.13,1.07-.83.35-.3.61-.45,1.23-.86,1.87-1.26,1.77-1.1,3.62-2.09,5.49-3,2.48-1.21,4.93-2.22,7.59-3.06s4.95-1.37,7.48-1.39c3.86-.04,3.87-6.04,0-6-5.43.05-10.71,1.96-15.62,4.12-3.82,1.68-7.65,3.62-10.91,6.24-3.01,2.42-5.7,5.28-8.31,8.12-3.01,3.29-5.9,6.71-8.55,10.31s-4.56,7.98-7.11,11.84c-.9,1.35-.27,3.32,1.08,4.1,1.47.86,3.21.28,4.1-1.08h0Z"/></g><path class="cls-7" d="m8.53,298.05c0-.85.71-.9.86,0,2.96,18.88,22.14,67.71,115.63,70.15,102.23,2.67,119.2-58.73,121.38-73.56.12-.82,1.4-.77,1.71,0v6.81c-.86.85,0,0,0,0-.86-.85,12.05,82.34-121.22,83.28-112.58.79-118.35-64.29-118.35-86.69Z"/><path class="cls-5" d="m131.31,47.46c-25.67,4.25-36.36,52.33-42.35,123.81-5.81-3.95-8.72-5.98-9.43-9.3-3.04-14.4,14.99-137.48,51.78-114.5Z"/></svg>