<?xml version="1.0" encoding="UTF-8"?><svg id="Layer_2" xmlns="http://www.w3.org/2000/svg" width="207" height="308" viewBox="0 0 207 308"><defs><style>.cls-1,.cls-2,.cls-3,.cls-4{stroke:#000;stroke-miterlimit:10;}.cls-1,.cls-2,.cls-4{stroke-width:2px;}.cls-1,.cls-3{fill:#fff;}.cls-2{fill:#d7ffb8;}.cls-5{fill:#5f9153;opacity:.5;}.cls-5,.cls-6{stroke-width:0px;}.cls-6{opacity:.2;}</style></defs><path class="cls-5" d="m177.07,5.57l-9.22-.11c-3.09.27-3.95,2.33-3.95,2.33l.37-.42c-.24.28-.44.59-.57.94l-30.51,77.89,7.3.37L168.02,7.44c.19-.5,8.02-1.78,9.05-1.87Z"/><path class="cls-5" d="m33.28,7.59h10.1c3.03,0,4.04,2.03,4.04,2.03l-.39-.4c.26.26.47.57.63.9l36.12,76.8-7.07,1.02L43.38,9.62c-.22-.49-9.09-2.03-10.1-2.03Z"/><path class="cls-2" d="m201.3,285.71c.07-.2.14-.41.21-.61.28-.84.42-1.71.41-2.59l-1.99-272.01c0-.55-.11-1.1-.33-1.59l-.46-1.02c-.25-.55-.74-.9-1.28-.93l-26.7-1.16c-.23-.01-.46.04-.68.15,0,0-.01,0-.02.01-1.06.56-1.9,1.57-2.35,2.8l-27.53,75.15c-.22.6-.73,1.01-1.3,1.03l-62.84,2.65c-.58.02-1.11-.35-1.36-.94L43.58,10.46c-.08-.2-.2-.39-.35-.54-.09-.09-.19-.18-.28-.27-1.38-1.28-3.2-1.79-4.98-1.59l-20.73,2.29c-1.6.18-3.11.85-4.32,1.92h0c-.35.31-.54.81-.54,1.32.1,15.04-.47,229.03-.24,264.68.04,5.41,1.99,10.51,5.79,13.7.25.21.66.5.92.7.98.72,2.06,1.37,3.18,1.91,1.29.63,2.71.93,4.15.87l168.68-1.02c.27-.01-.22.18,0,0,2.54-1.98,4.98-4.56,6.44-8.72Z"/><path class="cls-4" d="m161.9,159.6c6.21-6.25,4.24-16.13.32-21.72-.85-1.21-3.68-5.13-9.15-6.76-8.01-2.39-14.64,2.21-15.07,2.52-6.47,4.66-8.54,13.55-5.26,20.44,2.93,6.15,9.03,8.4,10.73,8.95,5.4,1.75,13.36,1.67,18.43-3.44Z"/><path class="cls-1" d="m150.38,149.3c2.68-2.68,1.83-6.92.14-9.31-.37-.52-1.59-2.2-3.95-2.9-3.45-1.03-6.31.95-6.5,1.08-2.79,2-3.68,5.81-2.27,8.76,1.26,2.64,3.9,3.6,4.62,3.84,2.33.75,5.76.72,7.95-1.47Z"/><path class="cls-3" d="m152.12,165.79c1.78-1.25,1.18-3.27.02-4.42-.25-.25-1.09-1.06-2.68-1.41-2.34-.52-4.25.4-4.37.46-1.87.93-2.44,2.73-1.46,4.14.87,1.26,2.66,1.75,3.15,1.86,1.57.38,3.89.39,5.35-.63Z"/><path class="cls-4" d="m74,161.22c5.7-5.91,3.9-15.24.32-20.51-.78-1.14-3.37-4.84-8.38-6.37-7.34-2.25-13.42,2.11-13.82,2.4-5.94,4.41-7.85,12.81-4.85,19.31,2.68,5.81,8.27,7.92,9.82,8.44,4.95,1.65,12.24,1.56,16.9-3.27Z"/><path class="cls-1" d="m63.46,151.51c2.46-2.53,1.68-6.53.14-8.79-.34-.49-1.45-2.07-3.61-2.73-3.16-.97-5.79.9-5.96,1.03-2.56,1.89-3.38,5.49-2.09,8.28,1.16,2.49,3.57,3.4,4.23,3.62,2.13.71,5.28.67,7.29-1.4Z"/><path class="cls-3" d="m65.04,167.08c1.64-1.18,1.08-3.09.02-4.18-.23-.24-1-1-2.46-1.33-2.14-.49-3.89.38-4.01.44-1.71.88-2.24,2.58-1.34,3.92.8,1.19,2.43,1.64,2.88,1.76,1.44.35,3.56.36,4.9-.6Z"/><path class="cls-4" d="m94.38,174.91c.11.35-.18-.32,0,0,4.04,7.12,18.18,13.22,25.42-5.26,1.45-3.71-1.18-5.93-5.16-2.72-9.11,7.34-18.44.01-18.44.01h0c-3.83-2.2-4.84,1.86-2.83,5.92,0,0,0,.02.01.03l1,2.02Z"/><path class="cls-6" d="m175.67,278c.97.06,5.62.34,9.09-2.33l14.14-10.1c5.05-3.88,2.1,2.44,2.17,3.84l.82,15.05c.02.35.38,1.62.03,2.09l-7.06,7.77-168.56.12c-2.7,0-6.5-.04-8.17-1.67l-3.04-2.33c-3.18-3.11-3.02-7.89-3.02-11.85v-10.39c0-.88,1.31-1.39,2.23-.87l12.92,9.12c6.06,3.11,12.7,2.34,14.14,2.33l130.28-.78"/></svg>