<?xml version="1.0" encoding="UTF-8"?><svg id="Layer_7" xmlns="http://www.w3.org/2000/svg" width="348.7" height="100" viewBox="0 0 348.7 100"><defs><style>.cls-1{fill:#e6e6e6;stroke:#006837;stroke-width:5px;}.cls-1,.cls-2{stroke-miterlimit:10;}.cls-2{stroke:#000;}</style></defs><path class="cls-1" d="m2.5,59.94v-17.35C2.5,20.45,24.51,2.5,51.66,2.5h250.81c24.15,0,43.73,15.97,43.73,35.67v29.6c0,16.42-16.32,29.73-36.46,29.73H48.55c-25.43,0-46.05-16.81-46.05-37.56Z"/><path class="cls-2" d="m57.42,67.58c-1.81-.6-3.25-1.44-4.31-2.53-1.07-1.09-1.6-2.33-1.6-3.74,0-.99.25-1.83.75-2.53.5-.7,1.14-1.05,1.93-1.05.52,0,1.07.19,1.63.56,1.13.99,2.57,1.8,4.31,2.44,1.74.64,3.55.96,5.42.96,2.61,0,4.73-.49,6.34-1.48,1.61-.99,2.42-2.29,2.42-3.89,0-1.44-.67-2.52-1.99-3.24-1.33-.72-3.54-1.43-6.63-2.13-3.79-.87-6.76-1.99-8.92-3.37-2.16-1.38-3.23-3.49-3.23-6.33,0-2.18.67-4.31,2.03-6.39,1.35-2.08,3.29-3.79,5.81-5.13,2.53-1.34,5.42-2.01,8.69-2.01,2.96,0,5.45.46,7.45,1.39,2,.93,3.01,2.15,3.01,3.68,0,.78-.23,1.48-.69,2.1-.46.62-1.01,1.11-1.67,1.48-.65.37-1.24.56-1.76.56-.44,0-1.02-.19-1.76-.56-1.22-.62-2.57-1.1-4.05-1.45-1.48-.35-2.81-.53-3.99-.53-2.09,0-3.81.43-5.16,1.3-1.35.86-2.03,1.92-2.03,3.15,0,1.32.84,2.42,2.52,3.3,1.68.89,4.69,1.82,9.05,2.81,3.18.82,5.54,1.91,7.09,3.24,1.55,1.34,2.32,3.33,2.32,5.96s-.72,4.87-2.16,7.07c-1.44,2.2-3.44,3.96-6.01,5.28s-5.51,1.98-8.82,1.98c-2.18,0-4.17-.3-5.98-.9Z"/><path class="cls-2" d="m86.07,83.64c-.7-.72-1.04-1.92-1.04-3.61,0-1.94.48-5.35,1.44-10.25,1.26-7.08,1.89-12.05,1.89-14.89,0-1.73-.21-3.13-.62-4.2-.41-1.07-1.14-1.77-2.19-2.1-.57-.21-.99-.41-1.27-.62-.28-.21-.42-.51-.42-.93,0-.58.25-1.23.75-1.95.5-.72,1.2-1.33,2.09-1.82.89-.49,1.88-.74,2.97-.74,2.61,0,3.92,1.75,3.92,5.25,0,1.03-.09,1.98-.26,2.84,1.35-2.47,3.07-4.46,5.16-5.96,2.09-1.5,4.38-2.25,6.86-2.25,2.61,0,4.67.83,6.17,2.5,1.5,1.67,2.25,3.92,2.25,6.76s-.61,5.55-1.83,8.12c-1.22,2.58-2.93,4.66-5.13,6.27-2.2,1.61-4.69,2.41-7.48,2.41s-5.23-.93-7.19-2.78c-.48,3.17-.72,5.89-.72,8.15,0,1.61.18,2.82.56,3.64.37.82,1.1,1.46,2.19,1.92.48.25.72.58.72.99,0,.45-.19,1.02-.56,1.7s-.99,1.29-1.86,1.82c-.87.54-1.96.8-3.27.8-1.39,0-2.44-.36-3.14-1.08Zm20.45-23.97c1.39-1.42,2.09-3.16,2.09-5.22,0-1.65-.48-2.94-1.44-3.89-.96-.95-2.24-1.42-3.86-1.42-2.31,0-4.29.92-5.95,2.75-1.66,1.83-2.94,4.17-3.86,7.01,2.18,1.94,4.62,2.9,7.32,2.9,2.39,0,4.29-.71,5.68-2.13Z"/><path class="cls-2" d="m120.18,63.78c0-1.48.33-3.29.98-5.44.7-2.14,1.05-4.08,1.05-5.81,0-.87-.12-1.61-.36-2.22-.24-.62-.71-1.09-1.41-1.42-.7-.33-1.22-.65-1.57-.96-.35-.31-.52-.69-.52-1.14,0-.58.29-1.2.88-1.88s1.35-1.25,2.29-1.7c.94-.45,1.88-.68,2.84-.68,1.44,0,2.41.49,2.91,1.48s.75,2.29.75,3.89c0,1.81-.33,4.26-.98,7.35-.35,1.65-.52,2.99-.52,4.02s.24,1.74.72,2.25c.48.52,1.24,1.02,2.29,1.51.39.21.59.51.59.93,0,.45-.2,1.02-.59,1.7s-1.02,1.29-1.9,1.82c-.87.54-1.96.8-3.27.8-2.79,0-4.18-1.5-4.18-4.51Zm1.14-27.86c-.72-.66-1.08-1.58-1.08-2.78.04-1.24.49-2.25,1.34-3.06.85-.8,1.93-1.21,3.23-1.21s2.32.32,3.04.96c.72.64,1.08,1.55,1.08,2.75,0,1.28-.42,2.33-1.27,3.15-.85.82-1.97,1.24-3.37,1.24-1.26-.04-2.25-.39-2.97-1.05Z"/><path class="cls-2" d="m137.01,67.27c-.59-.68-.88-1.82-.88-3.43,0-1.48.22-3.83.65-7.04.65-4.41.98-8.11.98-11.12,0-3.21-.15-6.04-.46-8.49s-.94-4.58-1.89-6.39c-.39-.82-.59-1.42-.59-1.79,0-.78.52-1.53,1.57-2.25,1.04-.72,2.11-1.08,3.2-1.08,1.57,0,2.61.94,3.14,2.81.52,1.88.78,4.64.78,8.31,0,2.84-.11,5.31-.33,7.41-.22,2.1-.52,4.55-.91,7.35-.48,2.92-.72,5.03-.72,6.3,0,1.36.23,2.37.69,3.03s1.3,1.32,2.52,1.98c.3.17.53.33.69.49.15.17.23.37.23.62,0,.45-.2,1.02-.59,1.7s-1.02,1.29-1.9,1.82c-.87.54-1.98.8-3.33.8s-2.25-.34-2.84-1.02Z"/><path class="cls-2" d="m151.9,67.27c-.59-.68-.88-1.82-.88-3.43,0-1.48.22-3.83.65-7.04.65-4.41.98-8.11.98-11.12,0-3.21-.15-6.04-.46-8.49-.31-2.45-.94-4.58-1.9-6.39-.39-.82-.59-1.42-.59-1.79,0-.78.52-1.53,1.57-2.25,1.05-.72,2.11-1.08,3.2-1.08,1.57,0,2.61.94,3.14,2.81.52,1.88.78,4.64.78,8.31,0,2.84-.11,5.31-.33,7.41-.22,2.1-.52,4.55-.92,7.35-.48,2.92-.72,5.03-.72,6.3,0,1.36.23,2.37.69,3.03.46.66,1.3,1.32,2.52,1.98.3.17.53.33.69.49.15.17.23.37.23.62,0,.45-.2,1.02-.59,1.7-.39.68-1.02,1.29-1.89,1.82-.87.54-1.98.8-3.33.8s-2.25-.34-2.84-1.02Z"/><path class="cls-2" d="m183.82,63.78c0-1.48.33-3.29.98-5.44.7-2.14,1.05-4.08,1.05-5.81,0-.87-.12-1.61-.36-2.22-.24-.62-.71-1.09-1.41-1.42-.7-.33-1.22-.65-1.57-.96-.35-.31-.52-.69-.52-1.14,0-.58.29-1.2.88-1.88s1.35-1.25,2.29-1.7c.94-.45,1.88-.68,2.84-.68,1.44,0,2.41.49,2.91,1.48s.75,2.29.75,3.89c0,1.81-.33,4.26-.98,7.35-.35,1.65-.52,2.99-.52,4.02s.24,1.74.72,2.25c.48.52,1.24,1.02,2.29,1.51.39.21.59.51.59.93,0,.45-.2,1.02-.59,1.7-.39.68-1.02,1.29-1.9,1.82-.87.54-1.96.8-3.27.8-2.79,0-4.18-1.5-4.18-4.51Zm1.14-27.86c-.72-.66-1.08-1.58-1.08-2.78.04-1.24.49-2.25,1.34-3.06s1.93-1.21,3.23-1.21,2.32.32,3.04.96c.72.64,1.08,1.55,1.08,2.75,0,1.28-.42,2.33-1.27,3.15-.85.82-1.97,1.24-3.37,1.24-1.26-.04-2.25-.39-2.97-1.05Z"/><path class="cls-2" d="m199.4,82.84c-1.94-1.26-2.91-2.91-2.91-4.97,0-1.52.5-2.85,1.5-3.98,1-1.13,2.29-1.7,3.86-1.7.91,0,1.37.25,1.37.74,0,.21-.06.54-.16,1.02-.11.47-.16.83-.16,1.08,0,1.11.66,1.96,1.99,2.53,1.33.58,3.04.87,5.13.87s4.03-.3,5.68-.9c1.66-.6,2.48-1.49,2.48-2.69,0-1.11-.7-1.89-2.09-2.35-1.39-.45-3.44-.84-6.14-1.17-.3-.04-1.13-.15-2.48-.34-1.35-.18-2.46-.44-3.33-.77-1.48-.45-2.56-1.02-3.23-1.7-.68-.68-1.01-1.51-1.01-2.5,0-1.93,1.24-3.48,3.72-4.63-1.39-.7-2.46-1.68-3.2-2.93-.74-1.26-1.11-2.69-1.11-4.29,0-2.06.57-3.98,1.7-5.78,1.13-1.79,2.82-3.23,5.06-4.33,2.24-1.09,4.95-1.64,8.13-1.64,2.7,0,5.02.38,6.96,1.14,1.94.76,2.91,2.05,2.91,3.86,0,.62-.12,1.2-.36,1.73-.24.54-.64.8-1.21.8-.48,0-1.22-.14-2.22-.43.22.95.33,1.92.33,2.9,0,2.55-.91,4.78-2.71,6.67-1.81,1.89-4.32,3.03-7.55,3.4-1.31.08-2.23.22-2.78.4-.54.19-.82.5-.82.96,0,.41.23.7.69.86.46.17,1.17.31,2.12.43,3.01.25,5.47.63,7.38,1.14,1.92.51,3.43,1.32,4.54,2.41,1.11,1.09,1.67,2.6,1.67,4.54,0,2.26-.72,4.27-2.16,6.02-1.44,1.75-3.39,3.1-5.85,4.05-2.46.95-5.13,1.42-8,1.42-3.22,0-5.81-.63-7.74-1.88Zm14.9-27.27c1.15-1.03,1.73-2.37,1.73-4.02,0-.82-.13-1.69-.39-2.59-1.22-.33-2.53-.5-3.92-.5-2.31,0-4.12.41-5.42,1.24-1.31.82-1.96,1.96-1.96,3.4,0,1.24.48,2.21,1.44,2.93.96.72,2.24,1.08,3.86,1.08,1.96,0,3.52-.51,4.67-1.54Z"/><path class="cls-2" d="m220.31,83.39c-1.2-.89-1.8-2.09-1.8-3.61,0-1.15.32-2.1.95-2.84.63-.74,1.36-1.11,2.19-1.11.52,0,1.02.21,1.5.62.83.78,1.9,1.17,3.2,1.17,1.52,0,2.68-.46,3.46-1.39.78-.93,1.35-2.25,1.7-3.98.52-2.43.86-4.75,1.01-6.95.15-2.2.23-4.81.23-7.81s-.12-5.05-.36-6.27c-.24-1.21-.82-2.03-1.73-2.44-.7-.33-1.19-.62-1.47-.87s-.42-.58-.42-.99c0-.62.29-1.26.88-1.92.59-.66,1.37-1.21,2.35-1.67.98-.45,1.99-.68,3.04-.68,1.57,0,2.61.49,3.14,1.48.52.99.79,2.37.79,4.14,0,4.86-.23,9.3-.69,13.31-.46,4.01-1.23,7.73-2.32,11.15-1.18,3.87-2.68,6.84-4.51,8.9-1.83,2.06-4.05,3.09-6.66,3.09-1.79,0-3.28-.44-4.48-1.33Zm11.3-47.44c-.72-.64-1.08-1.53-1.08-2.69,0-1.28.42-2.33,1.27-3.15.85-.82,1.95-1.24,3.3-1.24,1.26,0,2.25.32,2.97.96.72.64,1.08,1.55,1.08,2.75,0,1.28-.42,2.33-1.27,3.15-.85.82-1.97,1.24-3.36,1.24-1.22-.04-2.19-.38-2.91-1.02Z"/><path class="cls-2" d="m247.76,65.79c-1.85-1.79-2.78-4.29-2.78-7.5,0-2.84.67-5.48,2.03-7.91,1.35-2.43,3.18-4.35,5.49-5.78,2.31-1.42,4.81-2.13,7.51-2.13s4.71.61,6.27,1.82c1.57,1.22,2.35,2.83,2.35,4.85,0,1.61-.52,3.09-1.57,4.45-1.04,1.36-2.45,2.44-4.21,3.24s-3.69,1.21-5.78,1.21c-1.22,0-2.4-.14-3.53-.43s-2.09-.7-2.88-1.24c.04,1.89.73,3.42,2.06,4.57,1.33,1.15,3.04,1.73,5.13,1.73,1.26,0,2.56-.22,3.89-.65,1.33-.43,2.47-1.02,3.43-1.76.61-.49,1.18-.74,1.7-.74.44,0,.79.13,1.08.4.28.27.42.61.42,1.02,0,.91-.83,2.1-2.48,3.58-2.92,2.64-6.38,3.95-10.39,3.95-3.31,0-5.89-.9-7.74-2.69Zm12.64-12.76c1.04-.62,1.57-1.4,1.57-2.35,0-.78-.35-1.39-1.05-1.82-.7-.43-1.66-.65-2.88-.65-1.66,0-3.07.4-4.25,1.21s-2.03,1.93-2.55,3.37c.61.37,1.39.66,2.35.86.96.21,1.92.31,2.88.31,1.57,0,2.88-.31,3.92-.93Z"/><path class="cls-2" d="m275.23,66.87c1.13-4.36,1.7-7.93,1.7-10.69,0-2.06-.13-3.61-.39-4.66-.26-1.05-.61-1.76-1.04-2.13-.44-.37-1.07-.7-1.89-.99-.78-.29-1.18-.74-1.18-1.36,0-.58.25-1.23.75-1.95.5-.72,1.2-1.33,2.09-1.82.89-.49,1.88-.74,2.97-.74,2.61,0,3.92,1.75,3.92,5.25,0,1.69-.33,4-.98,6.92l.2.06c3.31-8.24,7.73-12.36,13.26-12.36,2.22,0,3.96.65,5.23,1.95,1.26,1.3,1.89,2.96,1.89,4.97,0,1.2-.3,2.7-.91,4.51-.52,1.57-.79,2.95-.79,4.14,0,2.39,1.18,3.98,3.53,4.76.61.25.91.62.91,1.11s-.15,1.09-.46,1.79c-.3.7-.82,1.32-1.54,1.85-.72.54-1.69.8-2.91.8-1.7,0-3.04-.58-4.02-1.73-.98-1.15-1.47-2.66-1.47-4.51,0-1.4.37-3.42,1.11-6.05.48-1.98.72-3.27.72-3.89,0-1.89-1.05-2.84-3.14-2.84-2.44,0-4.53,1.18-6.27,3.55-1.74,2.37-3.16,5.3-4.25,8.8v1.48c0,1.56-.46,2.83-1.37,3.8-.92.97-2.11,1.45-3.59,1.45-1.57,0-2.27-.49-2.09-1.48Z"/></svg>