<?xml version="1.0" encoding="UTF-8"?><svg id="Layer_7" xmlns="http://www.w3.org/2000/svg" width="238" height="119" viewBox="0 0 238 119"><defs><style>.cls-1{fill:#e6e6e6;stroke:#006837;stroke-width:5px;}.cls-1,.cls-2{stroke-miterlimit:10;}.cls-2{stroke:#000;}</style></defs><path class="cls-1" d="m5,66.76v-14.57c0-18.6,14.09-33.67,31.47-33.67h160.54c15.46,0,27.99,13.41,27.99,29.95v24.86c0,13.79-10.45,24.97-23.34,24.97H34.48c-16.28,0-29.48-14.12-29.48-31.54Z"/><path class="cls-2" d="m59.92,76.91c-1.81-.6-3.25-1.44-4.31-2.53-1.07-1.09-1.6-2.34-1.6-3.74,0-.99.25-1.83.75-2.53.5-.7,1.14-1.05,1.93-1.05.52,0,1.07.19,1.63.56,1.13.99,2.57,1.8,4.31,2.44,1.74.64,3.55.96,5.42.96,2.61,0,4.73-.49,6.34-1.48,1.61-.99,2.42-2.29,2.42-3.89,0-1.44-.67-2.52-1.99-3.24-1.33-.72-3.54-1.43-6.63-2.13-3.79-.87-6.76-1.99-8.92-3.37-2.16-1.38-3.23-3.49-3.23-6.33,0-2.18.67-4.31,2.03-6.39,1.35-2.08,3.29-3.79,5.82-5.13,2.53-1.34,5.42-2.01,8.69-2.01,2.96,0,5.44.46,7.45,1.39,2,.93,3.01,2.15,3.01,3.68,0,.78-.23,1.48-.69,2.1-.46.62-1.01,1.11-1.67,1.48-.65.37-1.24.56-1.76.56-.44,0-1.02-.19-1.76-.56-1.22-.62-2.57-1.1-4.05-1.45-1.48-.35-2.81-.53-3.99-.53-2.09,0-3.81.43-5.16,1.3-1.35.86-2.03,1.92-2.03,3.15,0,1.32.84,2.42,2.52,3.3,1.68.89,4.69,1.82,9.05,2.81,3.18.82,5.54,1.91,7.09,3.24,1.55,1.34,2.32,3.33,2.32,5.96s-.72,4.87-2.16,7.07c-1.44,2.2-3.44,3.96-6.01,5.28-2.57,1.32-5.51,1.98-8.82,1.98-2.18,0-4.17-.3-5.98-.9Z"/><path class="cls-2" d="m91.09,75.42c-1.2-1.58-1.8-3.78-1.8-6.58,0-1.28.17-3.11.52-5.5l.72-5.13c-.91.25-1.83.37-2.74.37-.48,0-.84-.08-1.08-.25-.24-.16-.36-.45-.36-.87,0-.99.62-2.31,1.86-3.95,1.24-1.65,2.67-3.1,4.28-4.36,1.61-1.26,2.92-1.88,3.92-1.88s1.44.78,1.44,2.35c0,.7-.11,1.57-.33,2.59,2.18-.41,3.83-.62,4.97-.62,1.05,0,1.83.17,2.35.52.52.35.78.98.78,1.88,0,.99-.26,1.98-.78,2.96-.52.99-1.07,1.48-1.63,1.48-.44,0-1.02-.08-1.76-.25-1.74-.37-3.51-.56-5.29-.56-.78,3.13-1.18,5.64-1.18,7.54,0,2.31.6,3.91,1.8,4.82,1.2.91,3.06,1.36,5.59,1.36.74,0,1.26.11,1.57.34.3.23.46.63.46,1.21,0,1.36-.74,2.51-2.22,3.46-1.48.95-3.29,1.42-5.42,1.42-2.57,0-4.45-.79-5.65-2.38Z"/><path class="cls-2" d="m110.46,75.45c-1.57-1.57-2.35-3.77-2.35-6.61s.76-5.52,2.29-8.15c1.52-2.64,3.69-4.79,6.5-6.46,2.81-1.67,6.02-2.5,9.64-2.5,2.7,0,4.95.43,6.76,1.3,1.81.86,2.71,2,2.71,3.4,0,.45-.04.96-.13,1.51-.09.56-.2,1.02-.33,1.39-.35.87-.85,1.3-1.5,1.3-.17,0-.5-.06-.98-.18-.35,1.85-.52,3.52-.52,5,0,3.83,1.24,5.97,3.72,6.42.48.12.82.27,1.01.43.2.17.29.49.29.99,0,.99-.36,1.98-1.08,2.97s-1.91,1.48-3.56,1.48-3.01-.59-3.92-1.76c-.91-1.17-1.37-2.85-1.37-5.03-1.22,2.1-2.76,3.77-4.61,5-1.85,1.24-3.93,1.85-6.24,1.85-2.66,0-4.77-.78-6.34-2.35Zm12.94-5.56c1.35-.99,2.42-2.31,3.2-3.95.87-1.73,1.42-3.97,1.63-6.73-1.66-.74-3.51-1.11-5.55-1.11-2.66,0-4.85.74-6.57,2.22-1.72,1.48-2.58,3.34-2.58,5.56,0,1.69.48,3.03,1.44,4.02.96.99,2.26,1.48,3.92,1.48s3.16-.49,4.51-1.48Z"/><path class="cls-2" d="m143.46,76.2c1.13-4.37,1.7-7.93,1.7-10.69,0-2.06-.13-3.61-.39-4.66-.26-1.05-.61-1.76-1.05-2.13-.44-.37-1.07-.7-1.89-.99-.78-.29-1.18-.74-1.18-1.36,0-.58.25-1.23.75-1.95.5-.72,1.2-1.33,2.09-1.82.89-.49,1.86-.74,2.91-.74,2.66,0,3.99,1.75,3.99,5.25.83-1.73,1.82-3.06,2.97-3.99,1.15-.93,2.58-1.39,4.28-1.39,1.26,0,2.26.26,3.01.77.74.52,1.11,1.31,1.11,2.38s-.38,2.15-1.14,3.12c-.76.97-1.54,1.45-2.32,1.45-.39,0-.7-.12-.91-.37-.57-.66-1.26-.99-2.09-.99-1.31,0-2.44.8-3.4,2.41-.96,1.61-1.46,3.75-1.5,6.42l.13,5.5c0,1.57-.46,2.83-1.37,3.8-.91.97-2.11,1.45-3.59,1.45-1.66,0-2.35-.49-2.09-1.48Z"/><path class="cls-2" d="m167.28,75.42c-1.2-1.58-1.8-3.78-1.8-6.58,0-1.28.17-3.11.52-5.5l.72-5.13c-.91.25-1.83.37-2.74.37-.48,0-.84-.08-1.08-.25-.24-.16-.36-.45-.36-.87,0-.99.62-2.31,1.86-3.95,1.24-1.65,2.67-3.1,4.28-4.36,1.61-1.26,2.92-1.88,3.92-1.88s1.44.78,1.44,2.35c0,.7-.11,1.57-.33,2.59,2.18-.41,3.83-.62,4.97-.62,1.05,0,1.83.17,2.35.52.52.35.78.98.78,1.88,0,.99-.26,1.98-.78,2.96-.52.99-1.07,1.48-1.63,1.48-.44,0-1.02-.08-1.76-.25-1.74-.37-3.51-.56-5.29-.56-.78,3.13-1.18,5.64-1.18,7.54,0,2.31.6,3.91,1.8,4.82,1.2.91,3.06,1.36,5.59,1.36.74,0,1.26.11,1.57.34.3.23.46.63.46,1.21,0,1.36-.74,2.51-2.22,3.46-1.48.95-3.29,1.42-5.42,1.42-2.57,0-4.45-.79-5.65-2.38Z"/></svg>