<?xml version="1.0" encoding="UTF-8"?><svg xmlns="http://www.w3.org/2000/svg" width="1920" height="1080" xmlns:xlink="http://www.w3.org/1999/xlink" viewBox="0 0 1920 1080"><defs><style>.cls-1{fill:url(#linear-gradient);}.cls-1,.cls-2,.cls-3,.cls-4,.cls-5,.cls-6,.cls-7,.cls-8,.cls-9,.cls-10{stroke-width:0px;}.cls-1,.cls-2,.cls-3,.cls-10{opacity:.2;}.cls-11{fill:#e6e6e6;}.cls-11,.cls-12,.cls-13,.cls-14,.cls-15,.cls-16,.cls-17,.cls-18,.cls-19,.cls-20,.cls-21,.cls-22,.cls-23,.cls-24,.cls-25,.cls-26,.cls-27{stroke-miterlimit:10;}.cls-11,.cls-12,.cls-13,.cls-14,.cls-15,.cls-16,.cls-18,.cls-19,.cls-20,.cls-21,.cls-22,.cls-23,.cls-24,.cls-25,.cls-27{stroke:#000;}.cls-11,.cls-13,.cls-20{stroke-width:5px;}.cls-2{fill:url(#linear-gradient-3);}.cls-3{fill:url(#linear-gradient-2);}.cls-12,.cls-14,.cls-17,.cls-25,.cls-27{stroke-width:3px;}.cls-12,.cls-17,.cls-22,.cls-26{fill:none;}.cls-13{fill:#ccc;}.cls-16{opacity:.1;}.cls-16,.cls-18,.cls-19,.cls-22,.cls-23{stroke-width:2px;}.cls-17,.cls-4,.cls-28{opacity:.5;}.cls-17,.cls-26{stroke:#009145;}.cls-18,.cls-20,.cls-21,.cls-4,.cls-27,.cls-7{fill:#fff;}.cls-19{fill:#fffac6;}.cls-20{opacity:.8;}.cls-29{opacity:.9;}.cls-30{opacity:.7;}.cls-24{fill:gray;opacity:.6;}.cls-25{fill:#ceffdd;}.cls-26{opacity:.4;stroke-width:4px;}.cls-6{fill:#29abe2;}.cls-8{fill:#004f25;}.cls-9{fill:#006837;}</style><linearGradient id="linear-gradient" x1="1585.76" y1="804.69" x2="1318.97" y2="684.72" gradientTransform="translate(-45.64 88) rotate(-3.45)" gradientUnits="userSpaceOnUse"><stop offset="0" stop-color="#ccc"/><stop offset=".64" stop-color="#000"/></linearGradient><linearGradient id="linear-gradient-2" x1="884.08" y1="676.21" x2="595.8" y2="546.58" gradientTransform="translate(-14.1 17.45) rotate(-1.35)" xlink:href="#linear-gradient"/><linearGradient id="linear-gradient-3" x1="348.96" y1="812.93" x2="159.33" y2="727.66" gradientTransform="translate(-64.91 25.61) rotate(-4.67)" xlink:href="#linear-gradient"/></defs><g id="Layer_1"><rect class="cls-6" x=".5" y=".5" width="1919" height="1079"/><path class="cls-5" d="m1919,1v1078H1V1h1918m1-1H0v1080h1920V0h0Z"/></g><g id="Layer_4"><path class="cls-4" d="m113.75,202.95s3.82-5.82,3.82,8.91c0,11.45,6.55,17.9,12.22,22.9,12.98,11.45,53.46,5.09,54.22-12.09,0,0,9.16,20.99,36.66,19.72,26.34-1.22,28.64-18.26,31.31-23.54,6.11-12.09,11.13,11.96,38.18,4.45,16.04-4.45,22.14-23.59,20.62-34.35s14.82,3.17,32.84-7c7.69-4.34,8.4-27.36-14.51-34.35,0,0,36.37,1.43,35.89-17.81-.22-8.94-15.27-23.54-49.64-21.63,0,0,5.35-27.99-33.6-20.99,0,0-22.48-38.91-50.95-3.55,0,0-35.34-44.16-71.23,3.55,0,0-54.22-17.68-51.93,29.01,0,0-63.38,12.97-22.15,49.87,0,0-27.49,40.08,28.26,36.9Z"/><path class="cls-4" d="m109.81,731.52s5-6.62,5,10.13c0,13.03,8.57,20.36,16,26.05,17,13.03,70,5.79,71-13.75,0,0,12,23.88,48,22.43,34.49-1.39,37.51-20.77,41-26.77,8-13.75,14.58,13.61,50,5.07,21-5.07,28.99-26.84,27-39.08s19.4,3.61,43-7.96c10.07-4.94,11-31.12-19-39.08,0,0,47.63,1.63,47-20.26-.29-10.16-20-26.77-65-24.6,0,0,7-31.84-44-23.88,0,0-29.44-44.26-66.72-4.04,0,0-46.28-50.24-93.28,4.04,0,0-71-20.11-68,33,0,0-83,14.76-29,56.73,0,0-36,45.59,37,41.97Z"/><path class="cls-4" d="m321.34,302.86s2.75-4.22,2.75,6.45c0,8.29,4.71,12.96,8.79,16.58,9.33,8.29,38.44,3.68,38.99-8.75,0,0,6.59,15.2,26.36,14.28,18.94-.88,20.6-13.22,22.51-17.04,4.39-8.75,8.01,8.66,27.46,3.22,11.53-3.22,15.92-17.08,14.83-24.87s10.65,2.3,23.61-5.07c5.53-3.14,6.04-19.8-10.43-24.87,0,0,26.15,1.04,25.81-12.89-.16-6.47-10.98-17.04-35.69-15.66,0,0,3.84-20.26-24.16-15.2,0,0-16.17-28.16-36.64-2.57,0,0-25.41-31.97-51.22,2.57,0,0-38.99-12.8-37.34,21,0,0-45.58,9.39-15.92,36.1,0,0-19.77,29.01,20.32,26.71Z"/><path class="cls-4" d="m1419.81,345.52s5-6.62,5,10.13c0,13.03,8.57,20.36,16,26.05,17,13.03,70,5.79,71-13.75,0,0,12,23.88,48,22.43,34.49-1.39,37.51-20.77,41-26.77,8-13.75,14.58,13.61,50,5.07,21-5.07,28.99-26.84,27-39.08-2-12.3,19.4,3.61,43-7.96,10.07-4.94,11-31.12-19-39.08,0,0,47.63,1.63,47-20.26-.29-10.16-20-26.77-65-24.6,0,0,7-31.84-44-23.88,0,0-29.44-44.26-66.72-4.04,0,0-46.28-50.24-93.28,4.04,0,0-71-20.11-68,33,0,0-83,14.76-29,56.73,0,0-36,45.59,37,41.97Z"/><path class="cls-4" d="m1610.19,589.17s3.95-5.79,3.95,8.86c0,11.39,6.77,17.8,12.63,22.77,13.42,11.39,55.28,5.06,56.07-12.02,0,0,9.48,20.88,37.9,19.61,27.23-1.21,29.62-18.16,32.38-23.41,6.32-12.02,11.51,11.9,39.48,4.43,16.58-4.43,22.89-23.46,21.32-34.16-1.58-10.75,15.32,3.16,33.96-6.96,7.95-4.32,8.69-27.2-15-34.16,0,0,37.61,1.43,37.12-17.71-.23-8.88-15.79-23.41-51.33-21.51,0,0,5.53-27.83-34.75-20.88,0,0-23.25-38.69-52.69-3.53,0,0-36.55-43.91-73.66,3.53,0,0-56.07-17.58-53.7,28.85,0,0-65.54,12.9-22.9,49.59,0,0-28.43,39.85,29.22,36.69Z"/></g><g id="Layer_2"><path class="cls-13" d="m1257.5,1059.5c72.57-301.42,224.27-587.68,284.99-588.04,59.13-.35,233.41,304.34,282.01,578.04"/><path class="cls-13" d="m94.5,1050.5c74.37-306.25,224.98-566.67,287.2-567.04,60.6-.36,235.99,294.96,285.8,573.04"/><path class="cls-18" d="m1718.97,730.64c5.08,10.81,3.67,20.83.92,28.22-2.89,7.77-12.87,8.79-16.98,1.67-12.81-22.17-21.2-68.06-28.44-68.41-7.28-.35,2.33,49.56-6.21,50.63-17.59,2.2-24.49-72.79-33.11-72.64-8.46.15-.94,70.52-12.42,71.54-11.84,1.04-21.74-65.71-34.15-64.93-13.63.86-16.16,62.41-26.9,62.73-11.28.34-17.99-69.3-30.01-69.33-13.95-.04-23.69,120.5-33.11,119.96-8.41-.48-4.64-96.79-22.77-100.15-16.49-3.06-40.41,72.78-50.7,69.33-7.81-2.62,2.13-47.6-6.21-50.63-11.62-4.22-43.03,79.22-54.33,75.39-3.01-1.02-6.8-6.85-3.48-25.32,5.55-30.81,8.65-38.51,14.31-51.75,26.81-62.75,117.69-226.99,165.03-233.28,58-7.7,178.55,256.98,178.55,256.98Z"/><path class="cls-11" d="m480.5,1054.5c124.57-484.1,382.32-901.79,486.54-902.36,101.5-.56,408.03,468.8,491.46,908.36"/><path class="cls-18" d="m861.84,477.04c-13.14-2.37-18.96,84.16-44.24,84.16-13.69,0-1.47-72.75-10.53-75.18-13.88-3.72-29.49,121.19-47.4,118.95-12.77-1.6-5.13-71.13-14.75-75.18-14.57-6.14-67.08,126.7-77.95,134.66-23.7,17.36-22.97-37.43,2.03-103.43,64.72-170.86,232.45-407.89,296.59-408.86,74.41-1.14,251.41,264.86,340.99,454.56,17.61,37.28,1.35,76.22-2.34,90.28-5.15,19.65-48.73-110.24-63.2-112.21-10.98-1.5,1.05,58.35-15.8,63.96-32.73,10.9-44.58-152.51-65.31-155.98-13.86-2.32-7.44,70.61-24.23,68.45-20.34-2.62-21.63-94.77-33.71-95.38-15.89-.81-29.49,123.44-58.99,122.31-21.08-.8-33.03-137.93-46.87-135.74-9.83,1.56-46.64,119.66-67.41,124.82-31.6,7.85-46.21-107.24-66.36-100.08"/><path class="cls-18" d="m391.98,485.78c-2.85-1.22-1.96-3.06-12.76-2.04-1.45.14-2.48-.16-3.93,0-23.53,2.68-95.73,89.09-173.74,258.19-46.13,100.01,3.93,65.31,43.63-16.8,2.35-4.85,9.37-5.65,8.49,3.6-3.45,36.12-12.86,73.4,1.87,63.2,23.76-16.47,33.91-46.07,42.45-59.15,2.34-3.59,7.72-2.18,8.14,2.13,1.63,16.62,4.32,43.28,4.74,42.22.61-1.52,9.45,128.07,50.77-41.84.34-1.39,2.21-1.52,2.75-.2,6.59,16.14,43.93,116.89,58,.52,5.9-48.8,10.58-6.73,11.53-1.26,7.14,41.25,46.4,139.22,57.99-7.23.48-6.06,7.62-8.57,11.27-3.81,22.84,29.74,98.38,87.17,32.39-37.01-98.43-185.22-131.74-195.44-143.58-200.53Z"/><path class="cls-1" d="m1537.76,471.71l-17.64,102.01c-2.26,13.06-10.53,23.74-21.76,28.09h0c-18.12,7.02-28.06,28.62-22.72,49.38l14.31,55.57c2.82,10.94,1.5,22.63-3.64,32.33l-49.6,93.67c-6.78,12.81-8.33,28.32-4.24,42.64l69.52,136.6c3.17,11.11,18.35,31.52,14,42h-57l-30-122-67.5-198.12s116.08-263.23,176.27-262.17Z"/><path class="cls-3" d="m965,152l-52.81,136.9c-4.23,19.16-17.58,34.47-35.12,40.3h0c-28.3,9.4-44.85,40.76-37.83,71.66l18.8,82.74c3.7,16.29,1,33.47-7.47,47.52l-81.76,135.61c-11.18,18.55-14.45,41.34-9,62.69l40.94,160.2c4.23,16.55,2.53,34.18-4.76,49.42l-39.32,112.96-274.97,4.47-4.09-3.9S739,198,965,152Z"/><path class="cls-2" d="m379,484l-11.05,94.2c-2.28,11.72-10.97,21.5-22.85,25.75h0c-19.17,6.85-29.53,26.43-23.68,44.75l15.66,49.05c3.08,9.66,1.79,20.12-3.58,28.93l-51.82,85.11c-7.09,11.64-8.59,25.51-4.13,38.14l33.45,94.78c3.46,9.79,2.87,20.48-1.65,29.97l-30.36,78.33-133-2h-52S240,528,379,484Z"/></g><g id="Layer_8"><rect class="cls-16" x="22" y="23" width="1877" height="1033"/></g><g id="Layer_3"><g class="cls-30"><path class="cls-27" d="m1595.99,166.88s-1.61-4.33-1.61-17.32,29.87-17.32,29.87-17.32c0,0,8.88-.87,14.53,28.58,0,0-36.33,4.33-42.79,6.06Z"/><path class="cls-12" d="m1752.45,185.2s-.27-8.64,6.84-9.7h9.85l-5.94,14.08-10.74-4.38Z"/><path class="cls-27" d="m1551.97,191.17s-52.01,22.03,0,49.64c52.01,27.61,188.82-19.38,188.82-19.38,0,0,27.22-7.17,46.82-9.96,19.59-2.79,20.39-46.59,20.39-46.59,0,0,.8-12.74-20-7.17-20.8,5.58-27.2,31.86-27.2,31.86,0,0-118.41-43.8-168.82-26.28,0,0-13.6,2.39-21.6,11.95s-4,15.13-18.4,15.93Z"/><path class="cls-27" d="m1649.48,213.63c3.84-7.01,12.9-17.68,52.1-11.31,1.41.23,3.37,1.02,5.6,1.59,4.31,1.1,28.95,27.01,71.94,37.46,3.03.74,3.71,4.76,1.07,6.41-4.04,2.52-12.97,5.6-31.92,8.61-3.87.61-7.83.45-11.64-.49-15.04-3.72-56.26-14.81-83.84-30.75-4.03-2.33-5.54-7.45-3.31-11.52Z"/><path class="cls-14" d="m1555.17,191.97s24,23.62,0,49.64c0,0-26.45-9.56-26.42-24.82s26.42-24.82,26.42-24.82Z"/><path class="cls-14" d="m1564.27,195.8c3.18,5.2,10.8,13.77,25.98,12.32,6.75-.64,12.02-6.34,11.69-13.08s-4.67-15.01-21.3-19.84c-2.17-.63-7.98-2.17-9.47.03-1.64,2.41-4.22,6.09-8.8,12.74-1.42,2.06.6,5.69,1.9,7.82Z"/><path class="cls-5" d="m1571.97,207.9s22,16.33,34.8-1.99c5.96-8.52,1.6-29.47-19.2-31.06-.8,0,18.88,3,17.72,22.73-.43,7.31-5.89,13.51-13.18,14.49-4.8.65-11.33-.19-20.14-4.17Z"/><path class="cls-5" d="m1626.78,187.59c-4.03.22-7.31,2.95-8,6.37-.94,4.66,3.09,9.55,8,9.56,3.93,0,7.63-3.1,8-7.17.4-4.37-3.17-8.52-8-8.76Z"/><path class="cls-5" d="m1646.78,186.79c-3.55.2-6.4,3.54-6.4,7.17,0,3.48,2.63,6.95,6.4,7.17,3.81.22,6.84-2.99,7.2-6.37.43-4.1-3.09-8.19-7.2-7.96Z"/><path class="cls-5" d="m1665.18,185.2c-3.62.02-6.56,3.56-6.4,7.17.13,2.95,2.34,5.96,5.6,6.37,3.53.44,6.65-2.36,7.2-5.58.66-3.88-2.48-7.98-6.4-7.96Z"/><path class="cls-7" d="m1626.12,190.83s-.73-.19-1.55.03c-.92.24-1.94,1-2.17,3.1,0,0,.57,1.59,2.87,0s1.79-3.08.85-3.13Z"/><path class="cls-7" d="m1645.32,189.25s-.6-.19-1.28.03c-.76.24-1.6.99-1.79,3.08,0,0,.47,1.58,2.37,0,1.9-1.58,1.47-3.06.7-3.11Z"/><path class="cls-7" d="m1664.37,187.63s-.73-.19-1.55.03c-.92.24-1.94,1-2.17,3.1,0,0,.57,1.59,2.87,0,2.3-1.59,1.79-3.08.85-3.13Z"/><path class="cls-7" d="m1568.24,192.59c-.76.85-2.09.9-2.28-.22-.6-3.65.18-7.53,2.4-10.35,3.45-4.38,4.8-4.78,4.8-4.78,0,0,.8-.8,3.45-.62,1.17.08,1.92,1.22,1.29,2.21-2.25,3.52-6.98,10.74-9.66,13.76Z"/><path class="cls-7" d="m1571.22,194.51l-.29-1.27c-.05-.24,0-.49.13-.7l8.14-12.45c.11-.17.27-.3.47-.38.49-.18,1.49-.41,2.46.12.48.26.59.87.29,1.31l-9.43,13.68c-.48.69-1.58.5-1.77-.31Z"/><path class="cls-7" d="m1534.28,213.87s-.44-11.26,12.34-15.94c.75-.27,1.6-.27,2.31.08.88.43,1.64,1.35.23,3.11-3.2,3.98-3.37-2.39-14.89,12.74Z"/><path class="cls-7" d="m1591.57,186.79s-.8-3.19,2.4-1.59c1.73.86,2.46,2.23,2.76,3.31.25.89-.51,1.74-1.42,1.56-1.22-.25-2.83-1.02-3.74-3.28Z"/><path class="cls-27" d="m1759.59,206.7s-1.99-4.7,4.21-6.33c6.2-1.63,24.47,0,24.47,0,0,0,21.72,14.3,19.32,24.65,0,0-11.2,3.19-24.8.8l-23.2-19.11Z"/></g><path class="cls-20" d="m655.45,590.49s12.17-15.85,12.17,24.24c0,31.17,20.86,48.72,38.93,62.34,41.37,31.17,170.33,13.85,172.76-32.9,0,0,29.2,57.14,116.8,53.68,83.91-3.32,91.26-49.71,99.76-64.07,19.47-32.9,35.48,32.57,121.66,12.12,51.1-12.12,70.54-64.22,65.7-93.51s47.21,8.64,104.63-19.05c24.51-11.82,26.77-74.46-46.23-93.51,0,0,115.89,3.9,114.36-48.49-.71-24.32-48.66-64.07-158.16-58.87,0,0,17.03-76.19-107.06-57.14,0,0-71.63-105.9-162.35-9.66,0,0-112.61-120.21-226.97,9.66,0,0-172.76-48.12-165.46,78.97,0,0-201.96,35.32-70.56,135.75,0,0-87.6,109.09,90.03,100.43Z"/></g><g id="Layer_5"><path class="cls-8" d="m591.82,452.38c-8.94-2.92-16.05-7.05-21.32-12.4-5.28-5.34-7.92-11.44-7.92-18.29,0-4.84,1.24-8.97,3.72-12.4,2.47-3.43,5.65-5.14,9.53-5.14,2.58,0,5.28.91,8.08,2.72,5.6,4.84,12.71,8.82,21.33,11.94,8.61,3.13,17.55,4.69,26.82,4.69,12.92,0,23.37-2.42,31.34-7.26,7.97-4.84,11.95-11.19,11.95-19.05,0-7.05-3.29-12.35-9.85-15.88-6.57-3.52-17.5-7-32.79-10.43-18.74-4.23-33.44-9.72-44.1-16.48-10.66-6.75-15.99-17.08-15.99-31,0-10.68,3.57-21.65,10.25-31.83,6.67-10.18,15.6-18.23,28.09-24.79,12.49-6.55,27.25-9.61,43.4-9.61,14.65,0,27.66,1.76,37.57,6.3,9.91,4.54,14.13,11.04,14.13,18.5,0,3.83-1.13,7.26-3.39,10.28-2.26,3.02-5.01,5.44-8.24,7.26-3.23,1.81-6.14,2.72-8.72,2.72-2.16,0-5.06-.91-8.72-2.72-6.03-3.02-12.71-5.39-20.03-7.11-7.33-1.71-13.89-2.57-19.71-2.57-10.34,0-18.85,2.12-25.52,6.35-6.68,4.23-10.67,9.17-10.67,15.21,0,6.45,4.8,12.05,13.09,16.39,8.29,4.34,23.21,8.92,44.75,13.76,15.72,4.04,27.41,9.33,35.06,15.88,7.64,6.55,11.47,16.28,11.47,29.18s-3.55,23.84-10.66,34.62c-7.11,10.79-17.02,19.4-29.73,25.85-12.71,6.45-27.25,9.68-43.62,9.68-10.77,0-20.63-1.46-29.56-4.38Z"/><path class="cls-8" d="m739.38,424.44c-7.41-7.54-11.11-19.25-11.11-35.14,0-5.12.36-10.84,1.08-17.17.57-4.85.86-9.96.86-15.35,0-9.42-.43-16.9-1.3-22.42-.86-5.52-2.95-10.71-6.26-15.55-1.15-1.75-1.73-3.16-1.73-4.24,0-2.42,2.16-4.91,6.47-7.47,4.32-2.56,8.42-3.84,12.3-3.84,4.6,0,7.59,1.85,8.96,5.55,1.37,3.7,2.05,8.79,2.05,15.25,0,5.79-.72,13.87-2.16,24.24-1.58,12.52-2.37,23.5-2.37,32.92,0,11.04,3.05,19.12,9.17,24.24,6.11,5.12,14.28,7.68,24.5,7.68s19.1-2.15,24.93-7.14c5.83-4.98,10.44-12.45,12.14-22.08,2.59-14.68,2.86-17.78,2.86-28.55,0-15.35-2.3-27-6.91-34.94-1.44-2.29-2.16-4.11-2.16-5.45,0-2.83,1.83-5.48,5.5-7.98,3.67-2.49,7.52-3.74,11.55-3.74,7.77,0,11.65,6.06,11.65,18.18,0,5.79-.94,16.06-2.81,30.8-1.87,14.74-3.53,25.35-4.96,31.81-3.74,16.83-10.29,29.66-19.64,38.48-9.35,8.82-22.23,13.23-38.63,13.23-15.25,0-26.58-3.77-33.99-11.31Z"/><path class="cls-8" d="m851.28,454.57c0-15.22,3.09-35.48,9.28-60.8,3.88-15.48,8.92-30.3,15.11-44.44,3.16-7.14,9.04-16.96,11.89-21.71,3.31-5.52,7.73-11.04,16.56-11.04,4.46,0,8.83,5.52,11.04,14.35.97,3.87,1.59,7.9,2.17,13.96,1.29,12.79,2.98,24.84,5.07,36.15,2.08,11.31,4.21,19.39,6.37,24.24.72,1.75,1.51,2.96,2.37,3.64.86.68,1.94,1.01,3.24,1.01,1.58,0,2.88-.37,3.88-1.11,1-.74,2.08-1.98,3.24-3.74,3.88-6.19,9.85-20.87,17.91-44.03,3.59-10.23,7.55-18.38,11.87-24.44s11.45-15.61,18.93-15.61,11.01,3.39,13.25,6.62c2.23,3.23-.02,13.23-.02,20.5,0,5.52-.22,11.31-.65,17.37-.58,9.43-.86,16.83-.86,22.22,0,26.13,4.53,43.83,13.6,53.12,3.02,2.56,4.53,4.98,4.53,7.27,0,3.37-1.91,6.43-5.72,9.19-3.81,2.76-8.17,4.14-13.06,4.14-4.18,0-7.38-1.25-9.6-3.74-2.23-2.49-4.07-6.23-5.5-11.21-2.59-10.5-3.88-22.82-3.88-36.96,0-7.68.5-18.24,1.51-31.71.57-7.27.86-11.65.86-13.13,0-2.29-.25-3.9-.75-4.85-.51-.94-1.55-1.41-3.13-1.41-3.74,0-6.55,3.17-8.42,9.49-3.88,11.72-7.52,22.02-10.9,30.9-3.38,8.89-6.94,16.5-10.68,22.82-3.17,5.25-6.58,8.96-10.25,11.11-3.67,2.16-7.66,3.23-11.98,3.23-9.93,0-16.76-5.72-20.5-17.17-2.02-6.19-3.81-14.04-5.4-23.53-1.58-9.49-2.66-19.76-3.24-30.8-.29-4.98-2.02-7.47-5.18-7.47-3.45,0-6.19,2.42-8.2,7.27-2.88,7.81-5.29,17.07-7.23,27.77-1.94,10.7-2.91,20.91-2.91,30.6,0,4.71.29,10.3.86,16.76.43,3.77.65,7.27.65,10.5,0,3.77-2.12,6.67-6.37,8.69-4.25,2.02-8.45,3.03-12.63,3.03-4.75,0-7.12-2.35-7.12-7.07Z"/><path class="cls-8" d="m1036.62,456.77c0-15.22,3.09-35.48,9.28-60.8,3.88-15.48,8.92-30.3,15.11-44.44,3.16-7.14,7.56-11.78,11.01-16.16,2.43-3.1,8.89-8.86,14.22-8.86,4.46,0,10.12,2.15,12.14,4.42,3.21,3.59,3.71,10.1,4.28,16.16,1.3,12.79,2.98,24.84,5.07,36.15,2.08,11.31,4.21,19.39,6.37,24.24.72,1.75,1.51,2.96,2.37,3.64.86.68,1.94,1.01,3.24,1.01,1.58,0,2.88-.37,3.88-1.11,1-.74,2.08-1.98,3.24-3.74,3.88-6.19,9.85-20.87,17.91-44.03,3.59-10.23,7.55-18.38,11.87-24.44s10.21-9.09,17.7-9.09c5.18,0,8.88,1.62,11.11,4.85,2.23,3.23,3.34,8.48,3.34,15.75,0,5.52-.22,11.31-.65,17.37-.58,9.43-.86,16.83-.86,22.22,0,26.13,4.53,43.83,13.6,53.12,3.02,2.56,4.53,4.98,4.53,7.27,0,3.37-1.91,6.43-5.72,9.19-3.81,2.76-8.17,4.14-13.06,4.14-4.17,0-7.38-1.25-9.6-3.74-2.23-2.49-4.07-6.23-5.5-11.21-2.59-10.5-3.88-22.82-3.88-36.96,0-7.68.5-18.24,1.51-31.71.57-7.27.86-11.65.86-13.13,0-2.29-.25-3.9-.75-4.85-.51-.94-1.55-1.41-3.13-1.41-3.74,0-6.55,3.17-8.42,9.49-3.88,11.72-7.52,22.02-10.9,30.9-3.38,8.89-6.94,16.5-10.68,22.82-3.17,5.25-6.58,8.96-10.25,11.11-3.67,2.16-7.66,3.23-11.98,3.23-9.93,0-16.76-5.72-20.5-17.17-2.02-6.19-3.81-14.04-5.39-23.53-1.59-9.49-2.66-19.76-3.24-30.8-.29-4.98-1.82-8.16-5.18-7.47-.41.08-5.48,1.52-8.2,7.27-3.56,7.52-5.29,17.07-7.23,27.77-1.94,10.7-2.91,20.91-2.91,30.6,0,4.71.29,10.3.86,16.76.43,3.77.65,7.27.65,10.5,0,3.77-2.12,6.67-6.37,8.69-4.24,2.02-8.45,3.03-12.62,3.03-4.75,0-7.12-2.35-7.12-7.07Z"/><path class="cls-8" d="m1224.68,434.53c-1.94-1.88-2.91-5.38-2.91-10.5,0-4.04.86-11.85,2.59-23.43,1.58-10.23,2.73-18.78,3.45-25.65.72-6.87,1.08-13.73,1.08-20.6,0-7.94-.47-14.61-1.4-20-.94-5.38-2.61-7.36-5.49-11.13-1.15-1.75-5.52-4.42-5.52-8.83,0-1.62,2.47-5.91,4.42-7.73s4.42-4.42,8.83-5.52c2.97-.74,6.46-.59,8.83,0,4.42,1.1,6.48,5.61,8.14,8.97,1.65,3.37,2.48,8.15,2.48,14.34,0,4.58-.4,10.74-1.19,18.48-.79,7.74-1.55,14.17-2.27,19.29-2.16,15.89-3.24,27.81-3.24,35.75,0,5.39.54,9.76,1.62,13.13,1.08,3.37,2.98,6.2,5.72,8.48,1,.94,1.73,1.82,2.16,2.63.43.81.65,1.75.65,2.83,0,3.37-1.8,6.26-5.4,8.69-3.6,2.42-8.2,3.64-13.81,3.64-3.88,0-6.8-.94-8.74-2.83Z"/><path class="cls-8" d="m1310.72,431.49c-2.45-2.13-3.67-6.51-3.67-13.14s1.1-16.34,3.29-29.12c3.2-19.73,4.81-37.02,4.81-51.86,0-14.05-1.35-24.7-4.05-31.97-13.16.32-25.05,1.74-35.67,4.26-4.05.63-6.41.95-7.08.95-1.69,0-2.83-.31-3.42-.95-.59-.63-.88-1.97-.88-4.03,0-2.68.46-5.48,1.39-8.41.92-2.92,2.15-5.41,3.67-7.46,2.7-3.79,7.17-6.07,13.41-6.87,7.42-.63,16.86-1.26,28.34-1.89,11.47-.63,22.35-.95,32.64-.95,21.42,0,33.81.32,37.19.95,2.36.32,4,.99,4.93,2.01.92,1.03,1.39,2.65,1.39,4.85,0,4.26-2.02,8.52-6.07,12.79-2.02,2.21-3.92,3.75-5.69,4.62-1.77.87-4.09,1.22-6.96,1.07-7.42-.63-17.2-.95-29.35-.95-.17,9.32-1.52,23.13-4.05,41.44-2.36,17.05-3.54,30.94-3.54,41.67,0,6.16.59,11.21,1.77,15.15,1.18,3.95,3.37,7.34,6.58,10.18,2.36,2.21,3.54,4.58,3.54,7.1,0,3.63-2.15,6.83-6.45,9.59-4.3,2.76-9.74,4.14-16.32,4.14-4.05,0-7.3-1.07-9.74-3.2Z"/><path class="cls-8" d="m666.63,629.32c-8.27-2.7-14.84-6.52-19.72-11.47-4.88-4.94-7.32-10.58-7.32-16.92,0-4.48,1.14-8.3,3.44-11.47,2.29-3.17,5.23-4.76,8.82-4.76,2.39,0,4.88.84,7.47,2.52,5.18,4.47,11.75,8.16,19.72,11.05,7.97,2.89,16.23,4.34,24.8,4.34,11.95,0,21.61-2.24,28.99-6.71,7.37-4.47,11.06-10.35,11.06-17.62,0-6.53-3.04-11.42-9.11-14.68-6.08-3.26-16.19-6.48-30.33-9.65-17.33-3.91-30.93-8.99-40.79-15.24-9.86-6.24-14.79-15.8-14.79-28.67,0-9.88,3.09-19.53,9.26-28.95,6.17-9.41,15.04-17.15,26.59-23.21,11.55-6.06,24.8-9.09,39.74-9.09,13.54,0,24.9,2.1,34.07,6.29,9.16,4.19,13.75,9.74,13.75,16.64,0,3.54-1.05,6.71-3.14,9.51-2.09,2.8-4.63,5.03-7.62,6.71-2.99,1.68-5.68,2.52-8.07,2.52-1.99,0-4.68-.84-8.07-2.52-5.58-2.8-11.76-4.99-18.53-6.57-6.78-1.58-12.85-2.38-18.23-2.38-9.56,0-17.43,1.96-23.61,5.87-6.18,3.92-9.26,8.67-9.26,14.26,0,5.97,3.83,10.96,11.5,14.96,7.67,4.01,21.46,8.25,41.39,12.72,14.54,3.73,25.35,8.63,32.42,14.68,7.07,6.06,10.61,15.06,10.61,26.99s-3.29,22.05-9.86,32.02c-6.57,9.98-15.74,17.95-27.49,23.91-11.76,5.96-25.2,8.95-40.34,8.95-9.96,0-19.08-1.36-27.34-4.06Z"/><path class="cls-8" d="m817.59,623.42c-2.52-2.76-3.92-7.71-4.21-14.85-.43-18.31-2.02-33.6-4.75-45.85-2.3-10.91-5.36-20.37-9.17-28.38-3.81-8.01-8.96-14.85-15.43-20.5-1.44-1.34-2.45-2.46-3.02-3.33-.58-.87-.86-1.85-.86-2.93,0-2.96,1.62-5.72,4.86-8.28,3.24-2.56,6.94-3.84,11.11-3.84,4.89,0,9.14,1.95,12.73,5.86,3.59,3.91,6.76,9.63,9.5,17.17,7.77,19.26,11.65,45.04,11.65,77.36,0,2.96.39,4.92,1.19,5.86.79.94,2.34,1.41,4.64,1.41,6.33,0,12.59-2.39,18.78-7.17,6.18-4.78,11.22-10.94,15.11-18.48,3.88-7.54,5.83-15.15,5.83-22.82,0-5.79-1.15-11.48-3.45-17.07-2.3-5.59-5.32-10.4-9.06-14.44-1.15-1.21-1.94-2.22-2.37-3.03s-.65-1.68-.65-2.63c0-2.02.9-4.04,2.7-6.06,1.8-2.02,3.92-3.74,6.37-5.15,2.45-1.41,4.6-2.12,6.47-2.12,6.18,0,11.36,8.42,15.54,25.25,4.46,16.03,6.69,37.64,6.69,64.84,0,3.5.36,5.83,1.08,6.97.72,1.15,2.3,1.72,4.75,1.72,6.91,0,13.49-3.03,19.75-9.09,6.26-6.06,11.29-14.17,15.11-24.34,3.81-10.17,5.72-20.91,5.72-32.22,0-5.92-.47-11.01-1.4-15.25-.94-4.24-2.05-7.44-3.34-9.59-1.44-2.56-2.16-4.71-2.16-6.46,0-2.83,2.01-5.55,6.04-8.18,4.03-2.63,7.7-3.94,11.01-3.94,4.03,0,6.69,2.19,7.99,6.56,1.3,4.38,1.94,9.93,1.94,16.66,0,15.89-2.88,32.49-8.63,49.79-5.76,17.3-13.7,31.75-23.85,43.32-10.14,11.58-21.33,17.37-33.56,17.37-5.04,0-8.78-1.01-11.22-3.03-2.45-2.02-4.07-4.85-4.86-8.48-.79-3.64-1.19-8.48-1.19-14.54l.22-16.36c-6.47,13.47-14.35,23.9-23.63,31.31-9.28,7.41-18.74,11.11-28.38,11.11-5.18,0-9.03-1.38-11.55-4.14Z"/><path class="cls-8" d="m984.13,620.96c-6.26-4.24-9.39-11.88-9.39-22.93,0-4.71.72-11.38,2.16-20,1.3-6.87,2.19-12.86,2.7-17.98.5-5.12.76-10.7.76-16.76,0-8.48-.51-15.96-1.51-22.42l-4.32.61c-1.15,0-1.94-.23-2.37-.71-.43-.47-.65-1.38-.65-2.73,0-2.83.36-5.62,1.08-8.38.72-2.76,1.73-5.02,3.02-6.77,2.44-3.23,6.18-5.12,11.22-5.66,5.9-.67,13.63-1.24,23.2-1.72,9.57-.47,17.8-.71,24.71-.71,13.23,0,21.08.27,23.52.81,2.01.27,3.45.84,4.32,1.72.86.88,1.29,2.19,1.29,3.94,0,4.04-1.51,7.74-4.53,11.11-1.73,2.16-3.38,3.64-4.96,4.44-1.59.81-3.74,1.15-6.48,1.01-10.65-.67-19.5-1.01-26.54-1.01-7.63,0-14.6.27-20.93.81,0,9.16-.79,19.86-2.37,32.12,13.09-.81,27.98-1.21,44.67-1.21,3.02,0,5.03.3,6.04.91,1,.61,1.51,1.99,1.51,4.14,0,2.29-.61,4.75-1.83,7.37-1.22,2.63-2.84,4.82-4.86,6.56-1.01.94-2.02,1.62-3.02,2.02-1.01.4-2.3.54-3.88.4-9.35-.4-20-.61-31.94-.61h-9.71c-1.15,6.73-1.73,11.85-1.73,15.35,0,7.27,2.01,12.42,6.04,15.45,4.03,3.03,10.65,4.54,19.86,4.54,5.9,0,11.44-.5,16.62-1.51,5.18-1.01,10.43-2.73,15.75-5.15,2.01-1.08,3.52-1.62,4.53-1.62,1.58,0,3.13,1.05,4.64,3.13,1.51,2.09,2.27,4.34,2.27,6.77,0,2.96-1.15,5.72-3.45,8.28-2.3,2.56-5.47,4.85-9.49,6.87-4.32,1.89-9.57,3.33-15.75,4.34-6.19,1.01-12.66,1.51-19.42,1.51-14.24,0-24.49-2.12-30.75-6.36Z"/><path class="cls-8" d="m1093.43,620.96c-6.26-4.24-9.39-11.88-9.39-22.93,0-4.71.72-11.38,2.16-20,1.29-6.87,2.19-12.86,2.7-17.98.5-5.12.76-10.7.76-16.76,0-8.48-.51-15.96-1.51-22.42l-4.32.61c-1.15,0-1.94-.23-2.37-.71-.43-.47-.65-1.38-.65-2.73,0-2.83.36-5.62,1.08-8.38.72-2.76,1.73-5.02,3.02-6.77,2.44-3.23,6.19-5.12,11.22-5.66,5.9-.67,13.63-1.24,23.2-1.72,9.57-.47,17.8-.71,24.71-.71,13.24,0,21.08.27,23.52.81,2.01.27,3.45.84,4.32,1.72.86.88,1.29,2.19,1.29,3.94,0,4.04-1.51,7.74-4.53,11.11-1.73,2.16-3.38,3.64-4.96,4.44-1.59.81-3.74,1.15-6.48,1.01-10.65-.67-19.5-1.01-26.54-1.01-7.63,0-14.6.27-20.93.81,0,9.16-.79,19.86-2.37,32.12,13.09-.81,27.98-1.21,44.67-1.21,3.02,0,5.03.3,6.04.91,1,.61,1.51,1.99,1.51,4.14,0,2.29-.61,4.75-1.83,7.37-1.22,2.63-2.84,4.82-4.86,6.56-1.01.94-2.02,1.62-3.02,2.02-1.01.4-2.3.54-3.88.4-9.35-.4-20-.61-31.94-.61h-9.71c-1.15,6.73-1.73,11.85-1.73,15.35,0,7.27,2.01,12.42,6.04,15.45,4.03,3.03,10.65,4.54,19.86,4.54,5.9,0,11.44-.5,16.62-1.51s10.43-2.73,15.75-5.15c2.01-1.08,3.52-1.62,4.53-1.62,1.58,0,3.13,1.05,4.64,3.13,1.51,2.09,2.27,4.34,2.27,6.77,0,2.96-1.15,5.72-3.45,8.28-2.3,2.56-5.47,4.85-9.5,6.87-4.32,1.89-9.57,3.33-15.75,4.34-6.19,1.01-12.66,1.51-19.42,1.51-14.24,0-24.49-2.12-30.75-6.36Z"/><path class="cls-8" d="m1195.06,654.05c-2.97-2.4-4.45-7.35-4.45-14.83s1.64-20.3,4.91-39c3.27-19.05,4.92-36.51,4.92-52.36,0-9.26-.51-17.1-1.54-23.51-3.28,1.6-5.94,2.4-7.99,2.4-1.84,0-3.18-.71-3.99-2.14-.82-1.42-1.23-3.65-1.23-6.68,0-5.52,1.43-10.1,4.3-13.76,2.87-3.65,7.88-7.08,15.05-10.28,7.57-3.56,16.23-6.41,25.96-8.55,9.72-2.14,19.4-3.21,29.03-3.21,19.86,0,35.79,4.54,47.77,13.62,11.98,9.08,17.97,21.19,17.97,36.33,0,11.93-3.64,22.8-10.9,32.59-7.27,9.8-16.43,17.5-27.49,23.11-11.06,5.61-21.92,8.42-32.56,8.42-7.17,0-12.19-1.38-15.05-4.14-2.87-2.76-4.3-7.08-4.3-12.96,0-7.12,1.94-10.68,5.84-10.68,1.02,0,3.17.36,6.45,1.07,4.09.89,8.39,1.34,12.9,1.34,11.26,0,20.43-2.76,27.49-8.28,7.07-5.52,10.6-12.64,10.6-21.37s-3.84-15.98-11.52-21.24c-7.68-5.25-17.77-7.88-30.26-7.88-8.4,0-17.72,1.16-27.95,3.47-.62,11.75-2.05,25.11-4.3,40.07-3.07,22.44-4.61,39.09-4.61,49.95,0,6.95.71,12.65,2.15,17.1,1.43,4.45,4.09,8.28,7.99,11.49,2.87,2.5,4.3,5.17,4.3,8.01,0,4.1-2.61,7.7-7.83,10.82-5.22,3.11-11.83,4.67-19.81,4.67-4.91,0-8.86-1.2-11.83-3.61Z"/></g><g id="Layer_6"><g class="cls-29"><path class="cls-7" d="m240.84,535.04c-12.38,12.8-20.92,29.07-23.01,46.85-.59,5.01-.61,10.06-.1,15.07.16,1.61,1.26,3,3,3,1.5,0,3.16-1.38,3-3-1.7-16.78,3.09-33.23,12.61-47.07,2.6-3.79,5.55-7.31,8.74-10.61,2.68-2.78-1.55-7.03-4.24-4.24h0Z"/></g><path class="cls-19" d="m315.83,496.95c.48,5.48,3.72,10.06,9.62,12.04,53.87,18.03,68.63,112.47,68.63,112.47,0,0,37.03,213.57,51.35,292,12.21,66.9-15.7,43.05-22.89,35.96-4.51-4.45-16.11-23.92-29.4-16.84-7.92,4.22-13.89,11.99-16.15,16.55-21.87,44.04-56.48-28.48-72.12,6.09-24.87,54.99-37.98,20.12-41.21,1.87-3.23-18.25-33.29-187.8-53.42-301.37-18.32-103.67,18.81-112.13,31.39-144.39-5.73-21.44-3.21-38.13,24.73-41.26,36.58-8.27,48.57-5.34,49.48,26.89Z"/><path class="cls-21" d="m376.29,679.58c.68-1.97-.92-3.16-2.46-3.37-.33-.05-1.43-.18-2.87.46-2.1.94-3.07,2.73-3.13,2.84-.93,1.77-.36,3.46,1.19,3.98,1.38.46,3.03-.19,3.48-.38,1.43-.61,3.23-1.92,3.79-3.53Z"/><path class="cls-23" d="m281.41,684.01c5.4-8.17.89-18.22-4.75-23.21-1.22-1.08-5.28-4.56-11.71-4.96-9.42-.59-15.67,5.94-16.08,6.37-6.06,6.55-6.26,16.53-1.01,23.06,4.69,5.84,11.97,6.74,13.97,6.91,6.38.55,15.17-1.49,19.58-8.16Z"/><path class="cls-18" d="m266.25,675.85c2.33-3.51.39-7.81-2.04-9.95-.53-.46-2.27-1.95-5.05-2.12-4.06-.25-6.76,2.55-6.93,2.74-2.62,2.81-2.7,7.09-.44,9.89,2.02,2.5,5.16,2.88,6.02,2.96,2.75.23,6.54-.64,8.44-3.51Z"/><path class="cls-21" d="m272.06,693c1.68-1.77.53-3.77-1.02-4.72-.34-.2-1.45-.86-3.3-.85-2.71.02-4.61,1.46-4.73,1.55-1.85,1.44-2.05,3.5-.64,4.77,1.26,1.13,3.35,1.21,3.92,1.22,1.83.02,4.39-.53,5.76-1.98Z"/><path class="cls-22" d="m340.28,676.22c-6.51-38.34,20.64-44.37,28.25-4.95"/><path class="cls-23" d="m306.21,690.89s16.78,17.39,18.72-7.89c.17-2.25.24-5.46-4.35-1.01-6.19,6.01-13.98,2.85-13.98,2.85h0c-1.77.08-2.68,2.68-1.55,4.42l1.16,1.62Z"/><path class="cls-5" d="m206.71,627.26c24.1,2.86,48.5,2.5,72.52-.89,24.02-3.38,47.61-9.83,69.99-19.18,12.51-5.23,24.64-11.33,36.27-18.31,1.65-.99.15-3.59-1.51-2.59-20.57,12.35-42.72,21.97-65.77,28.66-23.1,6.71-47.04,10.48-71.09,11.14-13.5.37-27.01-.24-40.42-1.83-1.91-.23-1.9,2.77,0,3h0Z"/><path class="cls-5" d="m237.78,819.55c12.52,4.05,25.55,6.42,38.63,7.69,14.09,1.37,28.31,1.42,42.42.21,13.91-1.19,27.77-3.57,41.16-7.53,12.3-3.64,24.36-8.62,35.13-15.64,9.57-6.24,18.19-14.21,24.03-24.1.68-1.16,1.33-2.34,1.93-3.55.86-1.72-1.72-3.24-2.59-1.51-4.95,9.88-12.73,18.02-21.68,24.39-10.14,7.22-21.63,12.4-33.44,16.23-13.01,4.22-26.52,6.87-40.1,8.3-13.9,1.46-27.95,1.68-41.88.64-12.97-.97-25.92-3.04-38.42-6.67-1.47-.43-2.93-.87-4.38-1.34-1.84-.6-2.63,2.3-.8,2.89h0Z"/><path class="cls-5" d="m314.6,496.51c-18.66,4.69-37.52,8.59-56.52,11.67-5.37.87-10.75,1.67-16.14,2.41l.8,2.89c8.21-1.59,16.43-3.18,24.64-4.78,13-2.52,26-5.04,39-7.56,3.01-.58,6.01-1.17,9.02-1.75,1.89-.37,1.09-3.26-.8-2.89-8.21,1.59-16.43,3.18-24.64,4.78-13,2.52-26,5.04-39,7.56-3.01.58-6.01,1.17-9.02,1.75-1.93.37-1.06,3.15.8,2.89,19.06-2.62,38.02-6.05,56.79-10.29,5.31-1.2,10.6-2.47,15.87-3.79,1.87-.47,1.08-3.36-.8-2.89Z"/><path class="cls-10" d="m262.89,953.17l12.72,14.77c1.51,2.05,5.73,4,8.4.18l21.93-27.32c5.63-6.02,11.4-3.88,14.6-2.59l27.79,15.16c4.59,1.85,10.42.87,14.3-2.21l24.43-24.74c5.91-4.4,15.06-3.43,21.67-.49l23.39,19.48c2.2,1.49,7.46,3.5,7.93-3.28l4.85-29.31,3.37,37.89c-.36,5.61-11.13,9.46-15.65,6.12l-27.6-23.56c-4.64-3.67-14.81-1.66-18.47,2.99l-18.64,23.67c-2.72,3.08-11.43,5.27-15.09,3.39l-32.46-16.72c-2.89-1.55-8.14-2.58-10.02.1l-26.11,39.31c-4.33-1.73-10.95-3.04-13.1-5.59l-9.47-25.1c-.58-3.24,1.12-2.32,1.22-2.18Z"/><path class="cls-24" d="m276.39,467.98c-9.45,2.42-50.22.97-34.05,44.06l72.66-14.09s7.68-41.83-38.61-29.97Z"/><g class="cls-28"><path class="cls-5" d="m249.77,510.14c-1.45-4.84-2.74-9.73-3.6-14.72s-1.34-10.3-1.95-15.44c-.11-.95-1.61-.96-1.5,0,.61,5.12,1.08,10.28,1.93,15.36s2.18,10.2,3.68,15.2c.28.92,1.72.53,1.45-.4h0Z"/></g><g class="cls-28"><path class="cls-5" d="m258.6,509c-3.17-11.6-5.34-23.48-6.49-35.45-.09-.95-1.59-.96-1.5,0,1.16,12.1,3.34,24.11,6.54,35.84.25.93,1.7.54,1.45-.4h0Z"/></g><g class="cls-28"><path class="cls-5" d="m267.43,506.86c-2.45-12.2-4.52-24.47-6.21-36.79-.13-.95-1.58-.55-1.45.4,1.7,12.32,3.77,24.59,6.21,36.79.19.95,1.64.55,1.45-.4h0Z"/></g><g class="cls-28"><path class="cls-5" d="m276.5,504.88c-2.15-12.13-4.3-24.25-6.45-36.38-.17-.95-1.61-.55-1.45.4,2.15,12.13,4.3,24.25,6.45,36.38.17.95,1.61.55,1.45-.4h0Z"/></g><g class="cls-28"><path class="cls-5" d="m284.82,503.59c-2.16-12.19-4.32-24.38-6.48-36.56-.17-.95-1.61-.55-1.45.4,2.16,12.19,4.32,24.38,6.48,36.56.17.95,1.61.55,1.45-.4h0Z"/></g><g class="cls-28"><path class="cls-5" d="m292.87,502.72c-1.4-5.92-1.63-12-2.27-18.03s-1.63-11.82-2.96-17.64c-.22-.94-1.66-.54-1.45.4,1.38,6,2.4,12.07,3.01,18.19s.87,11.73,2.23,17.47c.22.94,1.67.54,1.45-.4h0Z"/></g><g class="cls-28"><path class="cls-5" d="m302.6,500.23c-.97-11.67-2.51-23.52-5.64-34.83-.26-.93-1.7-.53-1.45.4,3.09,11.18,4.63,22.88,5.59,34.43.08.96,1.58.96,1.5,0h0Z"/></g><g class="cls-28"><path class="cls-5" d="m311.41,497.97c-1.24-10.38-3.28-20.64-6.15-30.69-.26-.93-1.71-.53-1.45.4,2.83,9.92,4.88,20.05,6.1,30.29.11.95,1.61.96,1.5,0h0Z"/></g><path class="cls-7" d="m358.79,559.82c-5.67-15.14-15.58-28.6-29.25-37.44-4.02-2.6-8.33-4.7-12.8-6.42-1.51-.58-3.29.64-3.69,2.1-.46,1.69.58,3.11,2.1,3.69,13.93,5.33,25.23,15.76,32.61,28.55,2.08,3.61,3.84,7.34,5.26,11.12.57,1.52,2.03,2.55,3.69,2.1,1.46-.4,2.67-2.17,2.1-3.69h0Z"/></g><g id="Layer_7"><path class="cls-25" d="m1500.62,792.53c48.35-137.96,132.2-150.85,169.2-276.2,9.36-31.71-3.17-58.04-2.38-57.32,7.98,7.29,79.17,126.96,69.69,266.52-8.7,128.19-69.46,222.38-148.95,243.22-80.4,21.08-122.96-75.23-87.57-176.22Z"/><path class="cls-26" d="m1674.74,474.77c67.67,196.28-26.48,419.79-132.39,492.86"/><path class="cls-17" d="m1635.76,855.87c0-59.79-8.83-92.41-66.2-108.17"/><path class="cls-17" d="m1669.23,779.59c0-47.72-24.65-74.87-49.66-86.33"/><path class="cls-17" d="m1688.71,701.86c0-35.64-17.76-64.47-39.72-64.47"/><path class="cls-17" d="m1635.88,857.92c30.77-29.99,46.95-32.85,66.07-28.55"/><path class="cls-17" d="m1668.35,780.21c18.55-24.88,36.54-32.5,51.25-32.5"/><path class="cls-17" d="m1689.44,702.45c9.71-16.45,23.55-36.01,34.58-29.24"/><path class="cls-9" d="m1534.23,971c-3.79,2.55-7.76,4.95-11.38,7.74-1.61,1.24-3.16,2.68-4.02,4.55-1.03,2.25-1.03,4.58-.04,6.85.82,1.87,2.27,3.45,3.74,4.84,1.67,1.58,4.03,3.07,6.44,2.41,2.6-.71,3.43-2.94,3.98-5.31.47-2.05,1.08-4.08,1.82-6.05,1.53-4.05,3.88-8.18,6.61-11.59-1.57-1.21-3.14-2.42-4.71-3.64-3.17,6-7.23,11.34-12.15,16-1.18,1.11-1.12,3.12,0,4.24s3.06,1.12,4.24,0c5.25-4.98,9.71-10.81,13.09-17.21.69-1.32.45-2.96-.77-3.87-1.09-.81-2.99-.95-3.94.23-4.6,5.77-8.04,12.38-9.8,19.57-.15.63-.56,1.56-.51,2.21.02.35-.1,0,.09-.05.17-.04.44-.28.61-.35.11-.05.36.03.43-.01-.08.05-.44-.21-.18-.07-.59-.3-.9-.65-1.48-1.23-.42-.42-1.17-1.21-1.34-1.44-.23-.31-.44-.64-.63-.98-.25-.46-.16-.24-.25-.62-.1-.41-.08-.8.04-1.12s.6-.98.83-1.24c.45-.49,1.16-1.11,1.55-1.41,3.26-2.5,7.22-4.89,10.77-7.28,1.34-.9,1.93-2.64,1.08-4.1-.78-1.33-2.75-1.98-4.1-1.08h0Z"/><path class="cls-15" d="m1613.69,909.26s.74-14.7-19.47-12.68c-2.01.2-4.03,2.7,2.52,4.46,8.84,2.38,12.4,11.09,12.4,11.09h0c1.38,1.55,3.89.99,4.27-.96l.28-1.91Z"/><path class="cls-15" d="m1591.52,875.16c8.21-2.1,11.62-11.05,11.28-17.43-.07-1.38-.39-5.9-3.99-9.83-5.28-5.75-13-5.18-13.5-5.13-7.62.69-13.81,6.91-14.64,14.05-.74,6.38,3.07,11.1,4.16,12.35,3.49,3.99,9.99,7.71,16.7,5.99Z"/><path class="cls-21" d="m1587.4,861.34c3.53-.89,4.99-4.73,4.83-7.47-.03-.59-.17-2.54-1.73-4.23-2.28-2.48-5.6-2.24-5.82-2.22-3.28.29-5.93,2.95-6.28,6.01-.31,2.74,1.33,4.77,1.8,5.31,1.51,1.72,4.31,3.32,7.19,2.59Z"/><path class="cls-21" d="m1580.45,875.53c2.08-.16,2.61-2.09,2.26-3.57-.08-.32-.35-1.38-1.46-2.42-1.63-1.53-3.65-1.7-3.78-1.71-1.98-.14-3.36,1.05-3.28,2.66.07,1.44,1.27,2.68,1.61,3.01,1.09,1.06,2.96,2.17,4.66,2.04Z"/><path class="cls-15" d="m1650.26,914.02c8.23-2.18,11.71-11.2,11.42-17.63-.06-1.39-.34-5.94-3.92-9.86-5.24-5.75-12.96-5.11-13.46-5.06-7.62.75-13.86,7.06-14.75,14.25-.79,6.42,2.98,11.15,4.06,12.4,3.46,3.99,9.93,7.68,16.65,5.91Z"/><path class="cls-21" d="m1646.25,900.14c3.54-.92,5.03-4.8,4.89-7.56-.03-.6-.15-2.55-1.7-4.24-2.26-2.47-5.58-2.21-5.8-2.19-3.28.32-5.96,3.01-6.33,6.1-.33,2.76,1.29,4.79,1.76,5.33,1.49,1.72,4.28,3.31,7.17,2.56Z"/><path class="cls-21" d="m1639.19,914.47c2.08-.18,2.63-2.12,2.29-3.61-.07-.32-.34-1.38-1.44-2.43-1.62-1.53-3.63-1.69-3.76-1.69-1.98-.13-3.37,1.08-3.31,2.7.06,1.45,1.25,2.69,1.58,3.02,1.08,1.05,2.94,2.16,4.64,2.01Z"/><path class="cls-10" d="m1522.47,954.08s-86.77-126.14,107.4-333.89c31.09-33.26,41.16-84.52,41.41-101.33,0-.54-.75-.7-.96-.19-5.51,13.23-33.13,78.63-46.33,91.5-25.75,25.08-94.15,111.75-108.4,148.78-9.63,25.02-54.92,124.99,6.88,195.13Z"/><g class="cls-30"><path class="cls-7" d="m1507.72,853.73c-1.94,21.85-2.49,44.49,5.56,65.29,2.21,5.72,4.93,11.21,8.09,16.46,1.99,3.3,7.18.29,5.18-3.03-5.28-8.77-9.14-17.93-11.42-27.93-2.28-10.02-2.83-20.25-2.61-30.67.14-6.72.61-13.42,1.2-20.12.14-1.62-1.48-3-3-3-1.74,0-2.86,1.38-3,3h0Z"/></g></g></svg>